<svg width="35" height="35" viewBox="0 0 35 35" fill="none" xmlns="http://www.w3.org/2000/svg">
<g filter="url(#filter0_d_2_5259)">
<rect x="4.5" y="2.5" width="26" height="26" rx="13" fill="white"/>
</g>
<path fill-rule="evenodd" clip-rule="evenodd" d="M17.5 19.5C17.9418 19.5 18.3 19.1418 18.3 18.7V16.3H20.7C21.1418 16.3 21.5 15.9418 21.5 15.5C21.5 15.0582 21.1418 14.7 20.7 14.7H18.3V12.3C18.3 11.8582 17.9418 11.5 17.5 11.5C17.0582 11.5 16.7 11.8582 16.7 12.3V14.7H14.3C13.8582 14.7 13.5 15.0582 13.5 15.5C13.5 15.9418 13.8582 16.3 14.3 16.3H16.7V18.7C16.7 19.1418 17.0582 19.5 17.5 19.5Z" fill="#162C4E"/>
<defs>
<filter id="filter0_d_2_5259" x="0.5" y="0.5" width="34" height="34" filterUnits="userSpaceOnUse" color-interpolation-filters="sRGB">
<feFlood flood-opacity="0" result="BackgroundImageFix"/>
<feColorMatrix in="SourceAlpha" type="matrix" values="0 0 0 0 0 0 0 0 0 0 0 0 0 0 0 0 0 0 127 0" result="hardAlpha"/>
<feOffset dy="2"/>
<feGaussianBlur stdDeviation="2"/>
<feComposite in2="hardAlpha" operator="out"/>
<feColorMatrix type="matrix" values="0 0 0 0 0.568627 0 0 0 0 0.843137 0 0 0 0 0.772549 0 0 0 0.3 0"/>
<feBlend mode="normal" in2="BackgroundImageFix" result="effect1_dropShadow_2_5259"/>
<feBlend mode="normal" in="SourceGraphic" in2="effect1_dropShadow_2_5259" result="shape"/>
</filter>
</defs>
</svg>
