<svg width="16" height="18" viewBox="0 0 16 18" fill="none" xmlns="http://www.w3.org/2000/svg">
<g id="Frame" clip-path="url(#clip0_1_6078)">
<path id="Vector" fill-rule="evenodd" clip-rule="evenodd" d="M8.36366 1.56661C9.58546 0.00768822 11.2838 -0.000591278 11.2838 -0.000591278C11.2838 -0.000591278 11.5364 1.46518 10.3228 2.87684C9.0271 4.3849 7.55391 4.1377 7.55391 4.1377C7.55391 4.1377 7.27748 2.95254 8.36366 1.56661Z" fill="black"/>
<path id="Vector_2" fill-rule="evenodd" clip-rule="evenodd" d="M7.70958 5.16495C8.3382 5.16495 9.5044 4.32842 11.0228 4.32842C13.6362 4.32842 14.6643 6.12892 14.6643 6.12892C14.6643 6.12892 12.6536 7.12394 12.6536 9.5392C12.6536 12.2635 15.1583 13.2023 15.1583 13.2023C15.1583 13.2023 13.4068 17.9737 11.0417 17.9737C9.95524 17.9737 9.11068 17.264 7.96616 17.264C6.79965 17.264 5.642 17.9991 4.88815 17.9991C2.72833 17.9991 0.000976562 13.4732 0.000976562 9.8349C0.000976562 6.25696 2.31078 4.3778 4.47702 4.3778C5.88392 4.37869 6.97651 5.16495 7.70958 5.16495Z" fill="black"/>
</g>
<defs>
<clipPath id="clip0_1_6078">
<rect width="15.1579" height="18" fill="white"/>
</clipPath>
</defs>
</svg>
