<svg width="12" height="12" viewBox="0 0 12 12" fill="none" xmlns="http://www.w3.org/2000/svg">
<path fill-rule="evenodd" clip-rule="evenodd" d="M0.576593 11.2491C0.322125 10.9946 0.322126 10.582 0.576593 10.3276L9.60084 1.30331L3.80198 1.30321C3.44211 1.3032 3.15039 1.01146 3.15039 0.651592C3.1504 0.291721 3.44214 -6.59102e-06 3.80201 1.11685e-10L11.1739 0.000128307C11.5338 0.000134459 11.8255 0.291859 11.8255 0.651721L11.8257 8.02365C11.8257 8.38352 11.5339 8.67525 11.1741 8.67526C10.8142 8.67527 10.5225 8.38354 10.5224 8.02367L10.5223 2.22482L1.4981 11.2491C1.24363 11.5035 0.83106 11.5035 0.576593 11.2491Z" fill="#6FD943"/>
</svg>
