<svg width="9" height="9" viewBox="0 0 9 9" fill="none" xmlns="http://www.w3.org/2000/svg">
<g id="Group 37856">
<g id="Vector">
<path fill-rule="evenodd" clip-rule="evenodd" d="M2.35584 2.13874L1.58172 2.33227C1.18107 2.43243 0.9 2.79242 0.9 3.2054V7.2C0.9 7.69706 1.30294 8.1 1.8 8.1H7.2C7.69706 8.1 8.1 7.69706 8.1 7.2V3.2054C8.1 2.79242 7.81893 2.43243 7.41828 2.33227L6.64416 2.13874L5.95192 1.10038C5.86846 0.975195 5.72796 0.9 5.5775 0.9H3.4225C3.27204 0.9 3.13153 0.975195 3.04808 1.10038L2.35584 2.13874ZM1.8 1.35L1.36344 1.45914C0.562135 1.65947 0 2.37944 0 3.2054V7.2C0 8.19411 0.805887 9 1.8 9H7.2C8.19411 9 9 8.19411 9 7.2V3.2054C9 2.37944 8.43786 1.65947 7.63656 1.45914L7.2 1.35L6.70077 0.601155C6.45039 0.225586 6.02888 0 5.5775 0H3.4225C2.97112 0 2.54961 0.225586 2.29923 0.601154L1.8 1.35Z" fill="#172C4E"/>
<path fill-rule="evenodd" clip-rule="evenodd" d="M6.3 4.95C6.3 5.94411 5.49411 6.75 4.5 6.75C3.50589 6.75 2.7 5.94411 2.7 4.95C2.7 3.95589 3.50589 3.15 4.5 3.15C5.49411 3.15 6.3 3.95589 6.3 4.95ZM5.4 4.95C5.4 5.44706 4.99706 5.85 4.5 5.85C4.00294 5.85 3.6 5.44706 3.6 4.95C3.6 4.45294 4.00294 4.05 4.5 4.05C4.99706 4.05 5.4 4.45294 5.4 4.95Z" fill="#172C4E"/>
<path d="M6.75 4.05C6.99853 4.05 7.2 3.84853 7.2 3.6C7.2 3.35147 6.99853 3.15 6.75 3.15C6.50147 3.15 6.3 3.35147 6.3 3.6C6.3 3.84853 6.50147 4.05 6.75 4.05Z" fill="#172C4E"/>
</g>
</g>
</svg>
