<svg width="24" height="24" viewBox="0 0 24 24" fill="none" xmlns="http://www.w3.org/2000/svg">
    <path
        d="M22.56 3.84009H1.44C0.646078 3.84009 0 4.48617 0 5.28009V18.7201C0 19.514 0.646078 20.1601 1.44 20.1601H22.56C23.3539 20.1601 24 19.514 24 18.7201V5.28009C24 4.48617 23.3539 3.84009 22.56 3.84009ZM23.04 18.7201C23.04 18.9841 22.824 19.2001 22.56 19.2001H1.44C1.17506 19.2001 0.96 18.9841 0.96 18.7201V5.28009C0.96 5.0151 1.17506 4.80009 1.44 4.80009H22.56C22.824 4.80009 23.04 5.0151 23.04 5.28009V18.7201Z"
        fill="#172C4E" />
    <path d="M23.5205 8.15991H0.480469V10.0799H23.5205V8.15991Z" fill="#172C4E" />
    <path
        d="M23.52 7.67993H0.48C0.215062 7.67993 0 7.89495 0 8.15993V10.0799C0 10.3449 0.215062 10.5599 0.48 10.5599H23.52C23.7849 10.5599 24 10.3449 24 10.0799V8.15993C24 7.89495 23.7849 7.67993 23.52 7.67993ZM23.04 9.59993H0.96V8.63993H23.04V9.59993Z"
        fill="#172C4E" />
    <path
        d="M12.9598 13.4399H4.31984C4.05491 13.4399 3.83984 13.655 3.83984 13.9199C3.83984 14.1849 4.05491 14.3999 4.31984 14.3999H12.9598C13.2248 14.3999 13.4398 14.1849 13.4398 13.9199C13.4398 13.655 13.2248 13.4399 12.9598 13.4399Z"
        fill="#172C4E" />
    <path
        d="M9.11984 15.3601H4.31984C4.05491 15.3601 3.83984 15.5752 3.83984 15.8401C3.83984 16.105 4.05491 16.3201 4.31984 16.3201H9.11984C9.38478 16.3201 9.59984 16.105 9.59984 15.8401C9.59984 15.5752 9.38478 15.3601 9.11984 15.3601Z"
        fill="#172C4E" />
</svg>
