<svg width="43" height="43" viewBox="0 0 43 43" fill="none" xmlns="http://www.w3.org/2000/svg">
<rect width="43" height="43" rx="3.61345" fill="#FC275A"/>
<path d="M16.5837 32.8333C17.7803 32.8333 18.7503 31.8633 18.7503 30.6667C18.7503 29.47 17.7803 28.5 16.5837 28.5C15.387 28.5 14.417 29.47 14.417 30.6667C14.417 31.8633 15.387 32.8333 16.5837 32.8333Z" fill="white"/>
<path d="M27.417 32.8333C28.6136 32.8333 29.5837 31.8633 29.5837 30.6667C29.5837 29.47 28.6136 28.5 27.417 28.5C26.2204 28.5 25.2503 29.47 25.2503 30.6667C25.2503 31.8633 26.2204 32.8333 27.417 32.8333Z" fill="white"/>
<path d="M12.7341 11.2811C12.1989 11.0135 11.5482 11.2304 11.2806 11.7656C11.0131 12.3007 11.23 12.9515 11.7651 13.219L12.8522 13.7626C13.1878 13.9304 13.4127 14.2599 13.4466 14.6335L14.2416 23.3777C14.3937 25.0517 15.7973 26.3334 17.4782 26.3334H26.8653C28.3163 26.3334 29.5916 25.3715 29.9902 23.9763L31.3133 19.3453C31.4809 18.759 31.5848 18.1738 31.6489 17.6939C31.7297 17.0885 31.2446 16.5834 30.6337 16.5834L16.2942 16.5834C16.014 16.5834 15.7801 16.3698 15.7547 16.0908L15.6044 14.4373C15.5025 13.3164 14.8279 12.328 13.8212 11.8247L12.7341 11.2811Z" fill="white"/>
<path fill-rule="evenodd" clip-rule="evenodd" d="M11.2816 11.7656C11.5492 11.2304 12.1999 11.0135 12.735 11.2811L13.8222 11.8247C14.8289 12.328 15.5035 13.3164 15.6054 14.4373L16.4003 23.1815C16.451 23.7395 16.9189 24.1667 17.4792 24.1667H26.8662C27.3499 24.1667 27.775 23.8461 27.9079 23.381L29.6256 17.3691C29.7899 16.7938 30.3896 16.4607 30.9648 16.6251C31.5401 16.7895 31.8733 17.3891 31.7089 17.9644L29.9912 23.9763C29.5926 25.3715 28.3173 26.3334 26.8662 26.3334H17.4792C15.7983 26.3334 14.3947 25.0517 14.2425 23.3777L13.4476 14.6335C13.4137 14.2599 13.1888 13.9304 12.8532 13.7626L11.7661 13.219C11.2309 12.9515 11.014 12.3007 11.2816 11.7656Z" fill="#162C4E"/>
</svg>
