<svg width="15" height="14" viewBox="0 0 15 14" fill="none" xmlns="http://www.w3.org/2000/svg">
<g id="Circle and Square / Light / Line">
<path id="Shape" d="M11.276 4.66602C12.2425 4.66602 13.026 5.44952 13.026 6.41602V11.0827C13.026 12.0492 12.2425 12.8327 11.276 12.8327H6.60938C5.64288 12.8327 4.85938 12.0492 4.85938 11.0827C4.85938 10.7605 5.12054 10.4993 5.44271 10.4993C5.76487 10.4993 6.02604 10.7605 6.02604 11.0827C6.02604 11.4048 6.28721 11.666 6.60938 11.666H11.276C11.5982 11.666 11.8594 11.4048 11.8594 11.0827V6.41602C11.8594 6.09385 11.5982 5.83268 11.276 5.83268C10.9539 5.83268 10.6927 5.57152 10.6927 5.24935C10.6927 4.92718 10.9539 4.66602 11.276 4.66602Z" fill="white"/>
<path id="Shape_2" fill-rule="evenodd" clip-rule="evenodd" d="M5.44271 8.16602C7.05354 8.16602 8.35938 6.86018 8.35938 5.24935C8.35938 3.63852 7.05354 2.33268 5.44271 2.33268C3.83188 2.33268 2.52604 3.63852 2.52604 5.24935C2.52604 6.86018 3.83188 8.16602 5.44271 8.16602ZM5.44271 9.33268C7.69787 9.33268 9.52604 7.50451 9.52604 5.24935C9.52604 2.99419 7.69787 1.16602 5.44271 1.16602C3.18755 1.16602 1.35938 2.99419 1.35938 5.24935C1.35938 7.50451 3.18755 9.33268 5.44271 9.33268Z" fill="white"/>
</g>
</svg>
