<svg width="12" height="12" viewBox="0 0 12 12" fill="none" xmlns="http://www.w3.org/2000/svg">
<path fill-rule="evenodd" clip-rule="evenodd" d="M0 6C0 4.61929 1.11929 3.5 2.5 3.5H4.5C4.77614 3.5 5 3.72386 5 4C5 4.27614 4.77614 4.5 4.5 4.5H2.5C1.67157 4.5 1 5.17157 1 6C1 6.82843 1.67157 7.5 2.5 7.5H4.5C4.77614 7.5 5 7.72386 5 8C5 8.27614 4.77614 8.5 4.5 8.5H2.5C1.11929 8.5 0 7.38071 0 6ZM12 6C12 4.61929 10.8807 3.5 9.5 3.5H7.5C7.22386 3.5 7 3.72386 7 4C7 4.27614 7.22386 4.5 7.5 4.5H9.5C10.3284 4.5 11 5.17157 11 6C11 6.82843 10.3284 7.5 9.5 7.5H7.5C7.22386 7.5 7 7.72386 7 8C7 8.27614 7.22386 8.5 7.5 8.5H9.5C10.8807 8.5 12 7.38071 12 6ZM3 5.5C2.72386 5.5 2.5 5.72386 2.5 6C2.5 6.27614 2.72386 6.5 3 6.5H9C9.27614 6.5 9.5 6.27614 9.5 6C9.5 5.72386 9.27614 5.5 9 5.5H3Z" fill="white"/>
</svg>
