<svg width="24" height="24" viewBox="0 0 24 24" fill="none" xmlns="http://www.w3.org/2000/svg">
    <g clip-path="url(#clip0_33650_1627)">
        <path
            d="M23.2174 3.39136H0.782625C0.350391 3.39136 0 3.74175 0 4.17398V19.8262C0 20.2583 0.350391 20.6088 0.782625 20.6088H23.2174C23.6496 20.6088 24 20.2584 24 19.8262V4.17398C24 3.74175 23.6496 3.39136 23.2174 3.39136ZM22.4348 19.0435H8.34783V18.2609C8.34783 17.8287 7.99744 17.4783 7.5652 17.4783C7.13297 17.4783 6.78258 17.8287 6.78258 18.2609V19.0435H1.5652V4.95656H6.78258V5.73919C6.78258 6.17137 7.13297 6.52181 7.5652 6.52181C7.99744 6.52181 8.34783 6.17142 8.34783 5.73919V4.95656H22.4348V19.0435Z"
            fill="#172C4E" />
        <path
            d="M7.56485 12.4695C7.13266 12.4695 6.78223 12.8199 6.78223 13.2521V15.7565C6.78223 16.1886 7.13262 16.5391 7.56485 16.5391C7.99709 16.5391 8.34748 16.1887 8.34748 15.7565V13.2521C8.34748 12.8199 7.99709 12.4695 7.56485 12.4695Z"
            fill="#172C4E" />
        <path
            d="M7.56485 7.46094C7.13266 7.46094 6.78223 7.81133 6.78223 8.24356V10.7479C6.78223 11.1801 7.13262 11.5305 7.56485 11.5305C7.99709 11.5305 8.34748 11.1801 8.34748 10.7479V8.24356C8.34748 7.81133 7.99709 7.46094 7.56485 7.46094Z"
            fill="#172C4E" />
        <path
            d="M12.2609 6.52173C10.9663 6.52173 9.91309 7.57496 9.91309 8.86956C9.91309 10.1641 10.9663 11.2174 12.2609 11.2174C13.5555 11.2174 14.6087 10.1641 14.6087 8.86956C14.6087 7.57496 13.5555 6.52173 12.2609 6.52173ZM12.2609 9.65218C11.8294 9.65218 11.4783 9.30109 11.4783 8.86956C11.4783 8.43802 11.8294 8.08693 12.2609 8.08693C12.6924 8.08693 13.0435 8.43802 13.0435 8.86956C13.0435 9.30109 12.6924 9.65218 12.2609 9.65218Z"
            fill="#172C4E" />
        <path
            d="M18.5217 12.7827C17.2271 12.7827 16.1738 13.836 16.1738 15.1305C16.1738 16.4251 17.2271 17.4784 18.5217 17.4784C19.8163 17.4784 20.8695 16.4251 20.8695 15.1305C20.8695 13.8359 19.8163 12.7827 18.5217 12.7827ZM18.5217 15.9131C18.0901 15.9131 17.739 15.562 17.739 15.1305C17.739 14.699 18.0901 14.3479 18.5217 14.3479C18.9532 14.3479 19.3043 14.699 19.3043 15.1305C19.3043 15.5621 18.9532 15.9131 18.5217 15.9131Z"
            fill="#172C4E" />
        <path
            d="M19.2646 8.12668C18.959 7.82105 18.4635 7.82105 18.1579 8.12668L11.5173 14.7673C11.2117 15.0729 11.2117 15.5685 11.5173 15.8741C11.6701 16.0269 11.8704 16.1034 12.0706 16.1034C12.2709 16.1034 12.4712 16.0269 12.624 15.8741L19.2646 9.23344C19.5703 8.92782 19.5703 8.4323 19.2646 8.12668Z"
            fill="#172C4E" />
    </g>
    <defs>
        <clipPath id="clip0_33650_1627">
            <rect width="24" height="24" fill="white" />
        </clipPath>
    </defs>
</svg>
