<svg width="20" height="20" viewBox="0 0 20 20" fill="none" xmlns="http://www.w3.org/2000/svg">
<path fill-rule="evenodd" clip-rule="evenodd" d="M4.16699 7.5L4.84475 17.6663C4.9323 18.9795 6.02305 20 7.33921 20H12.6614C13.9776 20 15.0684 18.9795 15.1559 17.6663L15.8337 7.5H4.16699ZM5.94847 9.16667L6.50772 17.5554C6.5369 17.9932 6.90049 18.3333 7.33921 18.3333H12.6614C13.1002 18.3333 13.4637 17.9932 13.4929 17.5554L14.0522 9.16667H5.94847Z" fill="white"/>
<path fill-rule="evenodd" clip-rule="evenodd" d="M4.36472 3.80972L4.65151 2.089C4.85242 0.883533 5.89539 0 7.11749 0H12.8819C14.104 0 15.1469 0.883533 15.3478 2.089L15.6346 3.80972C16.2599 4.26415 16.6663 5.00127 16.6663 5.83333V6.66667C16.6663 8.04738 15.5471 9.16667 14.1663 9.16667H5.83301C4.4523 9.16667 3.33301 8.04738 3.33301 6.66667V5.83333C3.33301 5.00127 3.7395 4.26415 4.36472 3.80972ZM7.11749 1.66667H12.8819C13.2892 1.66667 13.6369 1.96118 13.7039 2.363L13.8656 3.33333H6.13377L6.2955 2.363C6.36247 1.96118 6.71013 1.66667 7.11749 1.66667ZM5.83301 5C5.37277 5 4.99967 5.3731 4.99967 5.83333V6.66667C4.99967 7.1269 5.37277 7.5 5.83301 7.5H14.1663C14.6266 7.5 14.9997 7.1269 14.9997 6.66667V5.83333C14.9997 5.3731 14.6266 5 14.1663 5H5.83301Z" fill="white"/>
</svg>
