<svg width="20" height="20" viewBox="0 0 20 20" fill="none" xmlns="http://www.w3.org/2000/svg">
<path fill-rule="evenodd" clip-rule="evenodd" d="M16.6663 14.1667H3.33301C2.87277 14.1667 2.49967 14.5398 2.49967 15C2.49967 15.4602 2.87277 15.8333 3.33301 15.8333H16.6663C17.1266 15.8333 17.4997 15.4602 17.4997 15C17.4997 14.5398 17.1266 14.1667 16.6663 14.1667ZM3.33301 12.5C1.9523 12.5 0.833008 13.6193 0.833008 15C0.833008 16.3807 1.9523 17.5 3.33301 17.5H16.6663C18.0471 17.5 19.1663 16.3807 19.1663 15C19.1663 13.6193 18.0471 12.5 16.6663 12.5H3.33301Z" fill="white"/>
<path d="M10.8337 3.33333C10.8337 2.8731 10.4606 2.5 10.0003 2.5C9.54009 2.5 9.16699 2.8731 9.16699 3.33333V7.98816L8.08958 6.91074C7.76414 6.58531 7.23651 6.58531 6.91107 6.91074C6.58563 7.23618 6.58563 7.76382 6.91107 8.08926L9.41107 10.5893C9.73651 10.9147 10.2641 10.9147 10.5896 10.5893L13.0896 8.08926C13.415 7.76382 13.415 7.23618 13.0896 6.91074C12.7641 6.58531 12.2365 6.58531 11.9111 6.91074L10.8337 7.98816V3.33333Z" fill="white"/>
</svg>
