<svg width="20" height="20" viewBox="0 0 20 20" fill="none" xmlns="http://www.w3.org/2000/svg">
<path fill-rule="evenodd" clip-rule="evenodd" d="M9.99997 15.0002C13.4379 15.0002 15.8826 12.8398 17.3144 11.0407C17.8109 10.4167 17.8109 9.58364 17.3144 8.95963C15.8826 7.16048 13.4379 5.00016 9.99997 5.00016C6.56206 5.00016 4.1173 7.16048 2.68559 8.95962C2.18901 9.58364 2.18901 10.4167 2.68559 11.0407C4.1173 12.8398 6.56206 15.0002 9.99997 15.0002ZM18.6185 12.0785C19.5984 10.847 19.5984 9.15328 18.6185 7.92183C17.0616 5.96538 14.1888 3.3335 9.99997 3.3335C5.81119 3.3335 2.93835 5.96538 1.38146 7.92183C0.401494 9.15328 0.401494 10.847 1.38146 12.0785C2.93835 14.0349 5.81119 16.6668 9.99997 16.6668C14.1888 16.6668 17.0616 14.0349 18.6185 12.0785Z" fill="white"/>
<path fill-rule="evenodd" clip-rule="evenodd" d="M11.667 9.99984C11.667 10.9203 10.9208 11.6665 10.0003 11.6665C9.07985 11.6665 8.33366 10.9203 8.33366 9.99984C8.33366 9.97618 8.33415 9.95264 8.33513 9.92923C8.46504 9.97496 8.60478 9.99984 8.75033 9.99984C9.44068 9.99984 10.0003 9.44019 10.0003 8.74984C10.0003 8.60429 9.97545 8.46455 9.92972 8.33464C9.95313 8.33366 9.97667 8.33317 10.0003 8.33317C10.9208 8.33317 11.667 9.07936 11.667 9.99984ZM13.3337 9.99984C13.3337 11.8408 11.8413 13.3332 10.0003 13.3332C8.15938 13.3332 6.66699 11.8408 6.66699 9.99984C6.66699 8.15889 8.15938 6.6665 10.0003 6.6665C11.8413 6.6665 13.3337 8.15889 13.3337 9.99984Z" fill="white"/>
</svg>
