<svg width="23" height="23" viewBox="0 0 23 23" fill="none" xmlns="http://www.w3.org/2000/svg">
<rect width="22.3562" height="22.3562" rx="11.1781" fill="#162C4E"/>
<g clip-path="url(#clip0_2_8492)">
<path fill-rule="evenodd" clip-rule="evenodd" d="M6.52044 13.0411C6.26321 13.0411 6.05469 13.2497 6.05469 13.5069C6.05469 13.7641 6.26321 13.9726 6.52044 13.9726H11.6437C11.901 13.9726 12.1095 13.7641 12.1095 13.5069C12.1095 13.2497 11.901 13.0411 11.6437 13.0411H6.52044ZM14.4382 13.0411C14.181 13.0411 13.9725 13.2497 13.9725 13.5069C13.9725 13.7641 14.181 13.9726 14.4382 13.9726H15.8355C16.0927 13.9726 16.3013 13.7641 16.3013 13.5069C16.3013 13.2497 16.0927 13.0411 15.8355 13.0411H14.4382Z" fill="white"/>
<path fill-rule="evenodd" clip-rule="evenodd" d="M13.0407 14.4384C13.5552 14.4384 13.9723 14.0214 13.9723 13.5069C13.9723 12.9925 13.5552 12.5754 13.0407 12.5754C12.5263 12.5754 12.1092 12.9925 12.1092 13.5069C12.1092 14.0214 12.5263 14.4384 13.0407 14.4384ZM13.0407 15.3699C14.0697 15.3699 14.9038 14.5358 14.9038 13.5069C14.9038 12.478 14.0697 11.6439 13.0407 11.6439C12.0118 11.6439 11.1777 12.478 11.1777 13.5069C11.1777 14.5358 12.0118 15.3699 13.0407 15.3699Z" fill="white"/>
<path fill-rule="evenodd" clip-rule="evenodd" d="M6.52044 8.38367C6.26321 8.38367 6.05469 8.59219 6.05469 8.84942C6.05469 9.10665 6.26321 9.31517 6.52044 9.31517H7.9177C8.17493 9.31517 8.38345 9.10665 8.38345 8.84942C8.38345 8.59219 8.17493 8.38367 7.9177 8.38367H6.52044ZM10.7122 8.38367C10.455 8.38367 10.2465 8.59219 10.2465 8.84942C10.2465 9.10665 10.455 9.31517 10.7122 9.31517H15.8355C16.0927 9.31517 16.3013 9.10665 16.3013 8.84942C16.3013 8.59219 16.0927 8.38367 15.8355 8.38367H10.7122Z" fill="white"/>
<path fill-rule="evenodd" clip-rule="evenodd" d="M9.31516 9.78085C9.82962 9.78085 10.2467 9.3638 10.2467 8.84934C10.2467 8.33488 9.82962 7.91783 9.31516 7.91783C8.80071 7.91783 8.38366 8.33488 8.38366 8.84934C8.38366 9.3638 8.80071 9.78085 9.31516 9.78085ZM9.31516 10.7124C10.3441 10.7124 11.1782 9.87826 11.1782 8.84934C11.1782 7.82043 10.3441 6.98633 9.31516 6.98633C8.28625 6.98633 7.45215 7.82043 7.45215 8.84934C7.45215 9.87826 8.28625 10.7124 9.31516 10.7124Z" fill="white"/>
</g>
<defs>
<clipPath id="clip0_2_8492">
<rect width="11.1781" height="11.1781" fill="white" transform="translate(5.58887 5.58911)"/>
</clipPath>
</defs>
</svg>
