<svg width="13" height="13" viewBox="0 0 13 13" fill="none" xmlns="http://www.w3.org/2000/svg">
<g clip-path="url(#clip0_2_8117)">
<path fill-rule="evenodd" clip-rule="evenodd" d="M11.9825 7.5742C12.2844 7.87348 12.6157 8.32995 12.6157 8.89861V9.27567C12.6157 10.0935 11.9527 10.7564 11.1349 10.7564L2.2503 10.7564C1.43249 10.7564 0.769531 10.0935 0.769531 9.27567L0.769531 8.89861C0.769531 8.32995 1.10086 7.87348 1.40275 7.5742C1.59791 7.38073 1.75671 7.12697 1.75671 6.80773C1.75671 6.48849 1.59791 6.23472 1.40275 6.04125C1.10086 5.74197 0.769531 5.2855 0.769531 4.71684L0.769531 4.33979C0.769532 3.52198 1.43249 2.85902 2.2503 2.85902L11.1349 2.85901C11.9527 2.85901 12.6157 3.52197 12.6157 4.33978V4.71684C12.6157 5.2855 12.2844 5.74197 11.9825 6.04125C11.7873 6.23472 11.6285 6.48849 11.6285 6.80773C11.6285 7.12696 11.7873 7.38073 11.9825 7.5742ZM11.6285 8.89861C11.6285 8.71943 11.5167 8.50249 11.2875 8.27527C10.9848 7.97519 10.6413 7.48429 10.6413 6.80773C10.6413 6.13116 10.9848 5.64026 11.2875 5.34018C11.5167 5.11296 11.6285 4.89602 11.6285 4.71684V4.33978C11.6285 4.06718 11.4075 3.84619 11.1349 3.84619L2.2503 3.8462C1.9777 3.8462 1.75671 4.06719 1.75671 4.33979V4.71684C1.75671 4.89602 1.86855 5.11296 2.09775 5.34018C2.40045 5.64026 2.74389 6.13116 2.74389 6.80773C2.74389 7.48429 2.40045 7.97519 2.09775 8.27527C1.86855 8.50249 1.75671 8.71944 1.75671 8.89861V9.27567C1.75671 9.54828 1.9777 9.76926 2.2503 9.76926L11.1349 9.76926C11.4075 9.76926 11.6285 9.54828 11.6285 9.27567V8.89861Z" fill="white"/>
<path d="M8.02888 6.16951L6.05452 8.14387C5.86177 8.33663 5.54924 8.33663 5.35648 8.14387C5.16372 7.95111 5.16372 7.63859 5.35648 7.44583L7.33084 5.47147C7.5236 5.27871 7.83612 5.27871 8.02888 5.47147C8.22164 5.66423 8.22164 5.97676 8.02888 6.16951Z" fill="white"/>
<path d="M6.19909 5.82049C6.19909 6.0931 5.97811 6.31408 5.7055 6.31408C5.4329 6.31408 5.21191 6.0931 5.21191 5.82049C5.21191 5.54789 5.4329 5.3269 5.7055 5.3269C5.97811 5.3269 6.19909 5.54789 6.19909 5.82049Z" fill="white"/>
<path d="M7.18627 7.79485C7.18627 8.06746 7.40726 8.28844 7.67986 8.28844C7.95247 8.28844 8.17345 8.06746 8.17345 7.79485C8.17345 7.52225 7.95247 7.30126 7.67986 7.30126C7.40726 7.30126 7.18627 7.52225 7.18627 7.79485Z" fill="white"/>
</g>
<defs>
<clipPath id="clip0_2_8117">
<rect width="11.8462" height="11.8462" fill="white" transform="translate(0.769531 0.884644)"/>
</clipPath>
</defs>
</svg>
