<svg width="20" height="20" viewBox="0 0 20 20" fill="none" xmlns="http://www.w3.org/2000/svg">
<path d="M19.5348 10.1882C19.5348 9.36868 19.4683 8.77068 19.3244 8.15054H9.9668V11.8492H15.4595C15.3488 12.7684 14.7508 14.1527 13.4219 15.0829L13.4033 15.2067L16.362 17.4988L16.5669 17.5192C18.4495 15.7806 19.5348 13.2224 19.5348 10.1882Z" fill="#6FD943"/>
<path d="M9.96707 19.9334C12.658 19.9334 14.9171 19.0474 16.5672 17.5192L13.4222 15.0829C12.5805 15.6698 11.451 16.0795 9.96707 16.0795C7.33145 16.0795 5.0945 14.3409 4.29709 11.9379L4.18021 11.9478L1.10371 14.3287L1.06348 14.4406C2.70242 17.6963 6.06895 19.9334 9.96707 19.9334Z" fill="#34A853"/>
<path d="M4.2967 11.9379C4.0863 11.3177 3.96453 10.6532 3.96453 9.96668C3.96453 9.28004 4.0863 8.61562 4.28563 7.99548L4.28006 7.86341L1.16501 5.44423L1.06309 5.4927C0.387597 6.84376 0 8.36094 0 9.96668C0 11.5724 0.387597 13.0895 1.06309 14.4406L4.2967 11.9379Z" fill="#FFC700"/>
<path d="M9.96707 3.85376C11.8386 3.85376 13.101 4.66216 13.8208 5.33773L16.6336 2.59134C14.9061 0.985598 12.658 0 9.96707 0C6.06895 0 2.70242 2.23695 1.06348 5.4927L4.28602 7.99548C5.0945 5.59241 7.33145 3.85376 9.96707 3.85376Z" fill="#EB4335"/>
</svg>
