<svg width="13" height="13" viewBox="0 0 13 13" fill="none" xmlns="http://www.w3.org/2000/svg">
<path opacity="0.25" fill-rule="evenodd" clip-rule="evenodd" d="M7.47453 11.3446C7.20713 11.3745 6.98835 11.1536 6.98835 10.8845L6.98835 7.47424C6.98835 7.20518 7.20647 6.98706 7.47553 6.98706L10.8858 6.98706C11.1548 6.98706 11.3758 7.20584 11.3459 7.47324C11.3003 7.88213 11.1973 8.28338 11.0392 8.66498C10.8189 9.19695 10.4959 9.6803 10.0887 10.0875C9.68159 10.4946 9.19823 10.8176 8.66627 11.0379C8.28467 11.196 7.88342 11.299 7.47453 11.3446Z" fill="#162C4E"/>
<path fill-rule="evenodd" clip-rule="evenodd" d="M11.3459 5.52657C11.3758 5.79397 11.1548 6.01275 10.8858 6.01275L7.47553 6.01275C7.20647 6.01275 6.98835 5.79463 6.98835 5.52557L6.98835 2.11531C6.98835 1.84625 7.20713 1.62534 7.47453 1.65517C7.88342 1.70079 8.28467 1.80383 8.66627 1.96189C9.19823 2.18224 9.68159 2.50521 10.0887 2.91236C10.4959 3.31951 10.8189 3.80286 11.0392 4.33483C11.1973 4.71643 11.3003 5.11768 11.3459 5.52657Z" fill="#6FD943"/>
<path opacity="0.25" fill-rule="evenodd" clip-rule="evenodd" d="M5.52731 2.14235C5.79471 2.11252 6.01352 2.33344 6.01352 2.6025L6.01352 10.3974C6.01352 10.6664 5.79471 10.8874 5.52731 10.8575C4.54332 10.7478 3.61998 10.3072 2.91313 9.60033C2.09086 8.77805 1.62891 7.66281 1.62891 6.49993C1.62891 5.33706 2.09086 4.22182 2.91313 3.39954C3.61998 2.69269 4.54332 2.25211 5.52731 2.14235Z" fill="#162C4E"/>
</svg>
