<svg width="31" height="31" viewBox="0 0 31 31" fill="none" xmlns="http://www.w3.org/2000/svg">
<g id="Group 37778">
<rect id="Rectangle 69" y="30.1494" width="30.1494" height="30.1494" rx="15.0747" transform="rotate(-90 0 30.1494)" fill="#6FD943"/>
<path id="Shape" fill-rule="evenodd" clip-rule="evenodd" d="M16.9087 12.5174C16.6019 12.1703 16.6019 11.6075 16.9087 11.2603C17.2155 10.9132 17.713 10.9132 18.0199 11.2603L20.7699 14.3715C21.0767 14.7186 21.0767 15.2814 20.7699 15.6285L18.0199 18.7396C17.713 19.0868 17.2155 19.0868 16.9087 18.7396C16.6019 18.3925 16.6019 17.8297 16.9087 17.4826L18.3174 15.8889L10.7857 15.8889C10.3518 15.8889 10 15.4909 10 15C10 14.5091 10.3518 14.1111 10.7857 14.1111L18.3174 14.1111L16.9087 12.5174Z" fill="white"/>
</g>
</svg>
