<svg width="43" height="43" viewBox="0 0 43 43" fill="none" xmlns="http://www.w3.org/2000/svg">
<rect width="43" height="43" rx="3.61345" fill="#FFC700"/>
<path d="M22.167 25.5001C22.167 24.2114 23.2117 23.1667 24.5003 23.1667H31.5003C32.789 23.1667 33.8337 24.2114 33.8337 25.5001V32.5001C33.8337 33.7887 32.789 34.8334 31.5003 34.8334H24.5003C23.2117 34.8334 22.167 33.7887 22.167 32.5001V25.5001Z" fill="white"/>
<path d="M26.833 23.3334C26.833 23.2414 26.9076 23.1667 26.9997 23.1667H28.9997C29.0917 23.1667 29.1663 23.2414 29.1663 23.3334V25.5001C29.1663 26.1444 28.644 26.6667 27.9997 26.6667C27.3553 26.6667 26.833 26.1444 26.833 25.5001V23.3334Z" fill="#162C4E"/>
<path d="M8.16602 25.5001C8.16602 24.2114 9.21068 23.1667 10.4993 23.1667H17.4993C18.788 23.1667 19.8327 24.2114 19.8327 25.5001V32.5001C19.8327 33.7887 18.788 34.8334 17.4993 34.8334H10.4993C9.21068 34.8334 8.16602 33.7887 8.16602 32.5001V25.5001Z" fill="white"/>
<path d="M12.833 23.3334C12.833 23.2414 12.9076 23.1667 12.9997 23.1667H14.9997C15.0917 23.1667 15.1663 23.2414 15.1663 23.3334V25.5001C15.1663 26.1444 14.644 26.6667 13.9997 26.6667C13.3553 26.6667 12.833 26.1444 12.833 25.5001V23.3334Z" fill="#162C4E"/>
<path d="M15.167 11.5001C15.167 10.2114 16.2117 9.16675 17.5003 9.16675H24.5003C25.789 9.16675 26.8337 10.2114 26.8337 11.5001V18.5001C26.8337 19.7887 25.789 20.8334 24.5003 20.8334H17.5003C16.2117 20.8334 15.167 19.7887 15.167 18.5001V11.5001Z" fill="white"/>
<path d="M19.833 9.33341C19.833 9.24137 19.9076 9.16675 19.9997 9.16675H21.9997C22.0917 9.16675 22.1663 9.24137 22.1663 9.33341V11.5001C22.1663 12.1444 21.644 12.6667 20.9997 12.6667C20.3553 12.6667 19.833 12.1444 19.833 11.5001V9.33341Z" fill="#162C4E"/>
</svg>
