<svg width="500" height="93" viewBox="0 0 500 93" fill="none" xmlns="http://www.w3.org/2000/svg">
    <g clip-path="url(#clip0_137_998)">
        <path
            d="M-3.99579 39.674C8.27383 49.1601 35.0054 56.2039 82.2213 55.3428C129.437 54.4817 207.421 40.8754 276.534 31.0641C345.647 21.2527 456.006 7.14413 497.588 1.28296C539.171 -4.57822 556.187 10.8091 519.988 12.348C483.789 13.8868 395.424 17.6642 328.575 26.6668C261.726 35.6695 174.304 56.8876 121.884 61.4044C69.4637 65.9212 40.63 63.2386 15.7955 56.1471C-9.03912 49.0555 -17.5633 36.5278 -20.8275 32.3738C-24.0917 28.2197 -16.2654 30.1878 -3.99579 39.674Z"
            fill="url(#paint0_linear_137_998)" />
        <path
            d="M-17.5662 96.408L511.464 93.956L512.077 14.16C469.043 16.127 424.67 19.39 371.361 23.79C318.053 28.19 214.33 47.844 158.734 58.537C103.138 69.23 57.9928 65.275 27.8828 60.798C-2.22719 56.321 -7.73419 44.147 -18.5962 43.062L-17.5662 96.408Z"
            fill="#6FD943" />
    </g>
    <defs>
        <linearGradient id="paint0_linear_137_998" x1="249.08" y1="1.22096" x2="249.08" y2="61.398"
            gradientUnits="userSpaceOnUse">
            <stop stop-color="#78C2A4" />
            <stop offset="1" stop-color="#00302B" />
        </linearGradient>
        <clipPath id="clip0_137_998">
            <rect width="500" height="92.355" fill="white" />
        </clipPath>
    </defs>
</svg>
