<svg width="43" height="43" viewBox="0 0 43 43" fill="none" xmlns="http://www.w3.org/2000/svg">
<rect width="43" height="43" rx="3.61345" fill="#172C4E"/>
<path fill-rule="evenodd" clip-rule="evenodd" d="M13.2529 8.63867C12.5243 8.63867 11.9336 9.22934 11.9336 9.95797V33.792C11.9336 34.3189 12.5208 34.6331 12.9591 34.3409L15.2544 32.8107C15.6484 32.5481 16.1528 32.5167 16.5763 32.7284L19.3986 34.1396C20.5129 34.6967 21.8244 34.6967 22.9387 34.1396L25.7611 32.7284C26.1845 32.5167 26.6889 32.5481 27.0829 32.8107L29.3782 34.3409C29.8165 34.6331 30.4037 34.3189 30.4037 33.792V9.95797C30.4037 9.22934 29.8131 8.63867 29.0844 8.63867H13.2529Z" fill="white"/>
<path fill-rule="evenodd" clip-rule="evenodd" d="M15.8916 16.5544C15.8916 15.8258 16.4823 15.2351 17.2109 15.2351H19.8495C20.5781 15.2351 21.1688 15.8258 21.1688 16.5544C21.1688 17.283 20.5781 17.8737 19.8495 17.8737H17.2109C16.4823 17.8737 15.8916 17.283 15.8916 16.5544ZM23.8074 16.5544C23.8074 15.8258 24.398 15.2351 25.1267 15.2351C25.8553 15.2351 26.446 15.8258 26.446 16.5544C26.446 17.283 25.8553 17.8737 25.1267 17.8737C24.398 17.8737 23.8074 17.283 23.8074 16.5544ZM15.8916 21.8316C15.8916 21.103 16.4823 20.5123 17.2109 20.5123H19.8495C20.5781 20.5123 21.1688 21.103 21.1688 21.8316C21.1688 22.5602 20.5781 23.1509 19.8495 23.1509H17.2109C16.4823 23.1509 15.8916 22.5602 15.8916 21.8316ZM23.8074 21.8316C23.8074 21.103 24.398 20.5123 25.1267 20.5123C25.8553 20.5123 26.446 21.103 26.446 21.8316C26.446 22.5602 25.8553 23.1509 25.1267 23.1509C24.398 23.1509 23.8074 22.5602 23.8074 21.8316ZM15.8916 27.1088C15.8916 26.3801 16.4823 25.7895 17.2109 25.7895H19.8495C20.5781 25.7895 21.1688 26.3801 21.1688 27.1088C21.1688 27.8374 20.5781 28.4281 19.8495 28.4281H17.2109C16.4823 28.4281 15.8916 27.8374 15.8916 27.1088ZM23.8074 27.1088C23.8074 26.3801 24.398 25.7895 25.1267 25.7895C25.8553 25.7895 26.446 26.3801 26.446 27.1088C26.446 27.8374 25.8553 28.4281 25.1267 28.4281C24.398 28.4281 23.8074 27.8374 23.8074 27.1088Z" fill="#6FD943"/>
<path d="M7.97559 9.95797C7.97559 9.22934 8.56625 8.63867 9.29488 8.63867H33.0422C33.7708 8.63867 34.3615 9.22934 34.3615 9.95797C34.3615 10.6866 33.7708 11.2773 33.0422 11.2773H9.29488C8.56625 11.2773 7.97559 10.6866 7.97559 9.95797Z" fill="#6FD943"/>
</svg>
