<svg width="24" height="24" viewBox="0 0 24 24" fill="none" xmlns="http://www.w3.org/2000/svg">
    <path
        d="M19.586 13H8.496C8.36483 13.0001 8.23493 12.9743 8.11376 12.9241C7.9926 12.8738 7.88257 12.8001 7.79001 12.7072C7.69744 12.6142 7.62416 12.5039 7.57439 12.3825C7.52462 12.2612 7.49934 12.1312 7.5 12C7.5 11.7356 7.60474 11.4819 7.7913 11.2945C7.97786 11.1071 8.23106 11.0012 8.4955 11H19.5855L15.793 7.207C15.6108 7.0184 15.51 6.7658 15.5123 6.5036C15.5146 6.2414 15.6198 5.99059 15.8052 5.80518C15.9906 5.61977 16.2414 5.51461 16.5036 5.51233C16.7658 5.51005 17.0184 5.61084 17.207 5.793L22.707 11.293C22.8945 11.4805 22.9998 11.7348 22.9998 12C22.9998 12.2652 22.8945 12.5195 22.707 12.707L17.207 18.207C17.0184 18.3892 16.7658 18.49 16.5036 18.4877C16.2414 18.4854 15.9906 18.3802 15.8052 18.1948C15.6198 18.0094 15.5146 17.7586 15.5123 17.4964C15.51 17.2342 15.6108 16.9816 15.793 16.793L19.586 13ZM13 1C13.1313 0.999981 13.2614 1.02583 13.3827 1.07608C13.5041 1.12632 13.6143 1.19998 13.7072 1.29284C13.8001 1.3857 13.8738 1.49595 13.924 1.61728C13.9743 1.73862 14.0002 1.86867 14.0002 2C14.0002 2.13134 13.9743 2.26138 13.924 2.38272C13.8738 2.50406 13.8001 2.6143 13.7072 2.70716C13.6143 2.80002 13.5041 2.87368 13.3827 2.92392C13.2614 2.97417 13.1313 3.00002 13 3H3.5045C3.2245 3 3 3.2245 3 3.5035V20.4965C3 20.775 3.225 21 3.5045 21H13C13.1313 21 13.2614 21.0258 13.3827 21.0761C13.5041 21.1263 13.6143 21.2 13.7072 21.2928C13.8001 21.3857 13.8738 21.4959 13.924 21.6173C13.9743 21.7386 14.0002 21.8687 14.0002 22C14.0002 22.1313 13.9743 22.2614 13.924 22.3827C13.8738 22.5041 13.8001 22.6143 13.7072 22.7072C13.6143 22.8 13.5041 22.8737 13.3827 22.9239C13.2614 22.9742 13.1313 23 13 23H3.5045C3.17565 23.0001 2.85 22.9355 2.54614 22.8097C2.24229 22.684 1.96619 22.4996 1.73361 22.2671C1.50103 22.0346 1.31654 21.7586 1.19066 21.4548C1.06479 21.151 1 20.8254 1 20.4965V3.5035C0.999869 3.17462 1.06457 2.84893 1.1904 2.54507C1.31622 2.2412 1.50071 1.96512 1.73332 1.73261C1.96592 1.5001 2.24208 1.31572 2.54599 1.19001C2.8499 1.06431 3.17561 0.999738 3.5045 1H13Z"
        fill="#172C4E" />
</svg>
