<svg width="14" height="14" viewBox="0 0 14 14" fill="none" xmlns="http://www.w3.org/2000/svg">
<path d="M10.0015 7.91807C9.90809 7.91807 9.81473 7.8245 9.76805 7.73094L8.83441 3.52041C8.78773 3.38006 8.88109 3.28649 9.02114 3.23971C9.16118 3.19293 9.25455 3.28649 9.30123 3.42684L10.2349 7.63737C10.2815 7.77772 10.1882 7.87129 10.0481 7.91807H10.0015Z" fill="#172C4E"/>
<path d="M5.47345 14C4.95995 14 4.39977 13.8129 4.02631 13.4854L0.525171 9.74269C-0.175057 9.04094 -0.175057 7.82456 0.525171 7.07602L7.06064 0.526316C7.80755 -0.175439 8.9746 -0.175439 9.72151 0.526316L13.4561 4.03509C14.1096 4.69006 14.2497 6.18713 13.4561 6.93567L6.92059 13.4854C6.54714 13.8129 5.98695 14 5.47345 14ZM8.36773 0.432749C7.99428 0.432749 7.62082 0.573099 7.34073 0.853801L0.805263 7.40351C0.291762 7.96491 0.291762 8.90058 0.805263 9.4152L4.30641 13.1579C4.86659 13.6725 5.98695 13.7193 6.54714 13.1579L13.0826 6.60819C13.6428 6.04678 13.5494 4.87719 13.0826 4.36257L9.34805 0.853801C9.11464 0.573099 8.74119 0.432749 8.36773 0.432749Z" fill="#172C4E"/>
<path d="M3.93315 10.7252C3.88647 10.7252 3.79311 10.7252 3.74643 10.6784C3.65306 10.5848 3.65306 10.4444 3.74643 10.3509L5.6137 8.47954C5.70707 8.38597 5.84711 8.38597 5.94048 8.47954C6.03384 8.5731 6.03384 8.71345 5.94048 8.80702L4.0732 10.6784C4.0732 10.6784 3.97984 10.7252 3.93315 10.7252ZM1.13224 10.0234C1.08556 10.0234 0.992193 10.0234 0.945511 9.97661C0.852147 9.88304 0.852147 9.74269 0.945511 9.64913L9.58166 0.947373C9.67503 0.853805 9.81507 0.853805 9.90844 0.947373C10.0018 1.04094 10.0018 1.18129 9.90844 1.27486L1.27228 9.92983C1.27228 9.97661 1.17892 10.0234 1.13224 10.0234ZM11.4023 6.51462C11.0288 6.51462 10.702 6.18714 10.702 5.81287C10.702 5.4386 11.0288 5.11112 11.4023 5.11112C11.7757 5.11112 12.1025 5.4386 12.1025 5.81287C12.1025 6.18714 11.7757 6.51462 11.4023 6.51462ZM11.4023 5.57895C11.2622 5.57895 11.1688 5.67252 11.1688 5.81287C11.1688 5.95322 11.2622 6.04679 11.4023 6.04679C11.5423 6.04679 11.6357 5.95322 11.6357 5.81287C11.6357 5.67252 11.5423 5.57895 11.4023 5.57895ZM7.90112 6.28071C7.52766 6.28071 7.20089 5.95322 7.20089 5.57895C7.20089 5.20468 7.52766 4.8772 7.90112 4.8772C8.27457 4.8772 8.60134 5.20468 8.60134 5.57895C8.60134 5.95322 8.27457 6.28071 7.90112 6.28071ZM7.90112 5.34503C7.76107 5.34503 7.66771 5.4386 7.66771 5.57895C7.66771 5.7193 7.76107 5.81287 7.90112 5.81287C8.04116 5.81287 8.13452 5.7193 8.13452 5.57895C8.13452 5.4386 8.04116 5.34503 7.90112 5.34503Z" fill="#172C4E"/>
<path d="M5.33341 12.1286C5.28673 12.1286 5.19336 12.1286 5.14668 12.0818C5.05332 11.9882 5.05332 11.8479 5.14668 11.7543L8.41442 8.47948C8.50778 8.38591 8.64783 8.38591 8.74119 8.47948C8.83455 8.57304 8.83455 8.7134 8.74119 8.80696L5.47346 12.0818C5.47346 12.0818 5.38009 12.1286 5.33341 12.1286Z" fill="#172C4E"/>
</svg>
