<svg width="22" height="22" viewBox="0 0 22 22" fill="none" xmlns="http://www.w3.org/2000/svg">
<path opacity="0.65" d="M2.75 5.50065C2.75 3.47561 4.39162 1.83398 6.41667 1.83398L15.5833 1.83398C17.6084 1.83398 19.25 3.47561 19.25 5.50065L19.25 17.4173C19.25 19.4424 17.6084 21.084 15.5833 21.084L6.41667 21.084C4.39162 21.084 2.75 19.4424 2.75 17.4173L2.75 5.50065Z" fill="white"/>
<path d="M7.33366 9.16732C7.83992 9.16732 8.25033 8.75691 8.25033 8.25065C8.25033 7.74439 7.83992 7.33398 7.33366 7.33398C6.8274 7.33398 6.41699 7.74439 6.41699 8.25065C6.41699 8.75691 6.8274 9.16732 7.33366 9.16732Z" fill="#162C4E"/>
<path d="M11.0003 7.33398C10.4941 7.33398 10.0837 7.74439 10.0837 8.25065C10.0837 8.75691 10.4941 9.16732 11.0003 9.16732L14.667 9.16732C15.1733 9.16732 15.5837 8.75691 15.5837 8.25065C15.5837 7.74439 15.1733 7.33398 14.667 7.33398H11.0003Z" fill="#162C4E"/>
<path d="M11.0003 11.0007C10.4941 11.0007 10.0837 11.4111 10.0837 11.9173C10.0837 12.4236 10.4941 12.834 11.0003 12.834H14.667C15.1733 12.834 15.5837 12.4236 15.5837 11.9173C15.5837 11.4111 15.1733 11.0007 14.667 11.0007L11.0003 11.0007Z" fill="#162C4E"/>
<path d="M10.0837 15.584C10.0837 15.0777 10.4941 14.6673 11.0003 14.6673H12.8337C13.3399 14.6673 13.7503 15.0777 13.7503 15.584C13.7503 16.0902 13.3399 16.5007 12.8337 16.5007H11.0003C10.4941 16.5007 10.0837 16.0902 10.0837 15.584Z" fill="#162C4E"/>
<path d="M8.25033 11.9173C8.25033 12.4236 7.83992 12.834 7.33366 12.834C6.8274 12.834 6.41699 12.4236 6.41699 11.9173C6.41699 11.4111 6.8274 11.0007 7.33366 11.0007C7.83992 11.0007 8.25033 11.4111 8.25033 11.9173Z" fill="#162C4E"/>
<path d="M7.33366 16.5007C7.83992 16.5007 8.25033 16.0902 8.25033 15.584C8.25033 15.0777 7.83992 14.6673 7.33366 14.6673C6.8274 14.6673 6.41699 15.0777 6.41699 15.584C6.41699 16.0902 6.8274 16.5007 7.33366 16.5007Z" fill="#162C4E"/>
<path d="M7.56283 0.916016L14.4378 0.916016C15.0707 0.916016 15.5837 1.32642 15.5837 1.83268C15.5837 2.33894 15.0707 2.74935 14.4378 2.74935L7.56283 2.74935C6.93 2.74935 6.41699 2.33894 6.41699 1.83268C6.41699 1.32642 6.93 0.916016 7.56283 0.916016Z" fill="#162C4E"/>
</svg>
