<svg width="22" height="22" viewBox="0 0 22 22" fill="none" xmlns="http://www.w3.org/2000/svg">
<path opacity="0.65" d="M2.92774 10.2334C2.83462 9.67464 3.26549 9.16602 3.83193 9.16602L18.1678 9.16602C18.7342 9.16602 19.1651 9.67464 19.0719 10.2334L17.7995 17.8681C17.5785 19.1941 16.4312 20.166 15.0869 20.166H6.91278C5.56847 20.166 4.4212 19.1941 4.20019 17.8681L2.92774 10.2334Z" fill="white"/>
<path d="M1.83301 8.70898C1.83301 7.94959 2.44862 7.33398 3.20801 7.33398L18.7913 7.33398C19.5507 7.33398 20.1663 7.94959 20.1663 8.70898C20.1663 9.46838 19.5507 10.084 18.7913 10.084L3.20801 10.084C2.44862 10.084 1.83301 9.46838 1.83301 8.70898Z" fill="#162C4E"/>
<path d="M9.16667 11.916C8.66041 11.916 8.25 12.3264 8.25 12.8327V16.4993C8.25 17.0056 8.66041 17.416 9.16667 17.416C9.67293 17.416 10.0833 17.0056 10.0833 16.4993V12.8327C10.0833 12.3264 9.67293 11.916 9.16667 11.916Z" fill="#162C4E"/>
<path d="M12.8333 11.916C12.3271 11.916 11.9167 12.3264 11.9167 12.8327V16.4993C11.9167 17.0056 12.3271 17.416 12.8333 17.416C13.3396 17.416 13.75 17.0056 13.75 16.4993V12.8327C13.75 12.3264 13.3396 11.916 12.8333 11.916Z" fill="#162C4E"/>
<g opacity="0.65">
<path d="M9.81517 3.39883C10.1732 3.04085 10.1732 2.46045 9.81517 2.10247C9.45719 1.74449 8.87679 1.74449 8.51881 2.10247L3.93548 6.6858C3.5775 7.04378 3.5775 7.62419 3.93548 7.98217C4.29346 8.34015 4.87386 8.34015 5.23184 7.98217L9.81517 3.39883Z" fill="white"/>
<path d="M12.1855 3.39883C11.8275 3.04085 11.8275 2.46045 12.1855 2.10247C12.5435 1.74449 13.1239 1.74449 13.4818 2.10247L18.0652 6.6858C18.4232 7.04378 18.4232 7.62419 18.0652 7.98217C17.7072 8.34015 17.1268 8.34015 16.7688 7.98217L12.1855 3.39883Z" fill="white"/>
</g>
</svg>
