<svg width="27" height="27" viewBox="0 0 27 27" fill="none" xmlns="http://www.w3.org/2000/svg">
<g id="Badge Discount / Light / Line">
<path id="Shape" fill-rule="evenodd" clip-rule="evenodd" d="M15.2838 6.07638L14.3965 4.90621C13.9463 4.31251 13.0538 4.31251 12.6036 4.90621L11.7163 6.07638C11.2005 6.75666 10.3578 7.10573 9.512 6.98944L8.05716 6.78941C7.31903 6.68792 6.68792 7.31903 6.78941 8.05716L6.98944 9.512C7.10573 10.3578 6.75666 11.2005 6.07638 11.7163L4.90621 12.6036C4.31251 13.0538 4.31251 13.9463 4.90621 14.3965L6.07638 15.2838C6.75666 15.7996 7.10573 16.6423 6.98944 17.4881L6.78941 18.9429C6.68792 19.681 7.31903 20.3122 8.05716 20.2107L9.512 20.0106C10.3578 19.8944 11.2005 20.2434 11.7163 20.9237L12.6036 22.0939C13.0538 22.6876 13.9463 22.6876 14.3965 22.0939L15.2838 20.9237C15.7996 20.2434 16.6423 19.8944 17.4881 20.0106L18.9429 20.2107C19.681 20.3122 20.3122 19.681 20.2107 18.9429L20.0106 17.4881C19.8944 16.6423 20.2434 15.7996 20.9237 15.2838L22.0939 14.3965C22.6876 13.9463 22.6876 13.0538 22.0939 12.6036L20.9237 11.7163C20.2434 11.2005 19.8944 10.3578 20.0106 9.512L20.2107 8.05716C20.3122 7.31903 19.681 6.68792 18.9429 6.78941L17.4881 6.98944C16.6423 7.10573 15.7996 6.75666 15.2838 6.07638ZM16.1893 3.54676C14.8388 1.76566 12.1612 1.76566 10.8107 3.54676L9.92344 4.71693C9.89888 4.74933 9.85875 4.76595 9.81848 4.76041L8.36364 4.56038C6.14925 4.25592 4.25592 6.14925 4.56038 8.36364L4.76041 9.81848C4.76595 9.85875 4.74933 9.89888 4.71693 9.92344L3.54676 10.8107C1.76566 12.1612 1.76566 14.8388 3.54676 16.1893L4.71693 17.0766C4.74933 17.1012 4.76595 17.1413 4.76041 17.1816L4.56038 18.6364C4.25592 20.8508 6.14925 22.7442 8.36364 22.4397L9.81848 22.2397C9.85875 22.2341 9.89888 22.2508 9.92344 22.2831L10.8107 23.4533C12.1613 25.2344 14.8388 25.2344 16.1893 23.4533L17.0766 22.2831C17.1012 22.2508 17.1413 22.2341 17.1816 22.2397L18.6364 22.4397C20.8508 22.7442 22.7442 20.8508 22.4397 18.6364L22.2397 17.1816C22.2341 17.1413 22.2508 17.1012 22.2831 17.0766L23.4533 16.1893C25.2344 14.8388 25.2344 12.1613 23.4533 10.8107L22.2831 9.92344C22.2508 9.89888 22.2341 9.85875 22.2397 9.81848L22.4397 8.36364C22.7442 6.14925 20.8508 4.25592 18.6364 4.56038L17.1816 4.76041C17.1413 4.76595 17.1012 4.74933 17.0766 4.71693L16.1893 3.54676Z" fill="#172C4E"/>
<g id="Shape_2">
<path d="M16.5455 12.0455L12.0455 16.5455C11.6062 16.9848 10.8938 16.9848 10.4545 16.5455C10.0152 16.1062 10.0152 15.3938 10.4545 14.9545L14.9545 10.4545C15.3938 10.0152 16.1062 10.0152 16.5455 10.4545C16.9848 10.8938 16.9848 11.6062 16.5455 12.0455Z" fill="#172C4E"/>
<path d="M12.375 11.25C12.375 11.8713 11.8713 12.375 11.25 12.375C10.6287 12.375 10.125 11.8713 10.125 11.25C10.125 10.6287 10.6287 10.125 11.25 10.125C11.8713 10.125 12.375 10.6287 12.375 11.25Z" fill="#172C4E"/>
<path d="M14.625 15.75C14.625 16.3713 15.1287 16.875 15.75 16.875C16.3713 16.875 16.875 16.3713 16.875 15.75C16.875 15.1287 16.3713 14.625 15.75 14.625C15.1287 14.625 14.625 15.1287 14.625 15.75Z" fill="#172C4E"/>
</g>
</g>
</svg>
