<svg width="24" height="24" viewBox="0 0 16 15" fill="none" xmlns="http://www.w3.org/2000/svg">
<path fill-rule="evenodd" clip-rule="evenodd" d="M3.93164 3.125C3.93164 2.08947 4.77111 1.25 5.80664 1.25H9.55664C10.5922 1.25 11.4316 2.08947 11.4316 3.125V6.25H10.1816V3.125C10.1816 2.77982 9.90182 2.5 9.55664 2.5H5.80664C5.46146 2.5 5.18164 2.77982 5.18164 3.125V6.25H3.93164V3.125Z" fill="#717887"/>
<path d="M3.30664 7.5H12.0566C12.4018 7.5 12.6816 7.77982 12.6816 8.125V10C12.6816 10.3452 12.4018 10.625 12.0566 10.625H11.4316V11.875H12.0566C13.0922 11.875 13.9316 11.0355 13.9316 10V8.125C13.9316 7.08947 13.0922 6.25 12.0566 6.25H3.30664C2.27111 6.25 1.43164 7.08947 1.43164 8.125V10C1.43164 11.0355 2.27111 11.875 3.30664 11.875H3.93164V10.625H3.30664C2.96146 10.625 2.68164 10.3452 2.68164 10V8.125C2.68164 7.77982 2.96146 7.5 3.30664 7.5Z" fill="#717887"/>
<path fill-rule="evenodd" clip-rule="evenodd" d="M10.1816 10.625H5.18164V11.875C5.18164 12.2202 5.46146 12.5 5.80664 12.5H9.55664C9.90182 12.5 10.1816 12.2202 10.1816 11.875V10.625ZM3.93164 9.375V11.875C3.93164 12.9105 4.77111 13.75 5.80664 13.75H9.55664C10.5922 13.75 11.4316 12.9105 11.4316 11.875V9.375H3.93164Z" fill="#717887"/>
</svg>
