<svg width="43" height="43" viewBox="0 0 43 43" fill="none" xmlns="http://www.w3.org/2000/svg">
<rect width="43" height="43" rx="3.61345" fill="#A9E68F"/>
<path fill-rule="evenodd" clip-rule="evenodd" d="M31.6969 22.7747H23.4113C23.0593 22.7747 22.774 23.0601 22.774 23.4121V32.335C22.774 32.687 23.0593 32.9723 23.4113 32.9723H31.6969C32.4009 32.9723 32.9716 32.4016 32.9716 31.6976V24.0494C32.9716 23.3454 32.4009 22.7747 31.6969 22.7747ZM20.2246 20.2253V35.5217H31.6969C33.8089 35.5217 35.521 33.8096 35.521 31.6976V24.0494C35.521 21.9374 33.8089 20.2253 31.6969 20.2253H20.2246Z" fill="white"/>
<path d="M26.5981 20.2253H29.1475V24.0494C29.1475 24.7534 28.5768 25.3241 27.8728 25.3241C27.1688 25.3241 26.5981 24.7534 26.5981 24.0494V20.2253Z" fill="white"/>
<path fill-rule="evenodd" clip-rule="evenodd" d="M20.2246 23.4121C20.2246 23.0601 19.9392 22.7747 19.5872 22.7747H11.3016C10.5977 22.7747 10.0269 23.3454 10.0269 24.0494V31.6976C10.0269 32.4016 10.5977 32.9723 11.3016 32.9723H19.5872C19.9392 32.9723 20.2246 32.687 20.2246 32.335V23.4121ZM11.3016 20.2253C9.18965 20.2253 7.47754 21.9374 7.47754 24.0494V31.6976C7.47754 33.8096 9.18965 35.5217 11.3016 35.5217H22.774V20.2253H11.3016Z" fill="white"/>
<path d="M13.8511 20.2253H16.4005V24.0494C16.4005 24.7534 15.8298 25.3241 15.1258 25.3241C14.4218 25.3241 13.8511 24.7534 13.8511 24.0494V20.2253Z" fill="white"/>
<path fill-rule="evenodd" clip-rule="evenodd" d="M25.3234 10.0277H17.6752C16.9712 10.0277 16.4005 10.5984 16.4005 11.3024V20.2253H26.5981V11.3024C26.5981 10.5984 26.0274 10.0277 25.3234 10.0277ZM17.6752 7.47827C15.5632 7.47827 13.8511 9.19038 13.8511 11.3024V22.7747H29.1475V11.3024C29.1475 9.19038 27.4354 7.47827 25.3234 7.47827H17.6752Z" fill="white"/>
<path d="M20.2246 7.47827H22.774V11.3024C22.774 12.0064 22.2033 12.5771 21.4993 12.5771C20.7953 12.5771 20.2246 12.0064 20.2246 11.3024V7.47827Z" fill="white"/>
</svg>
