<svg width="23" height="23" viewBox="0 0 23 23" fill="none" xmlns="http://www.w3.org/2000/svg">
<rect x="0.644531" y="0.00012207" width="22.3562" height="22.3562" rx="11.1781" fill="#FC275A"/>
<path fill-rule="evenodd" clip-rule="evenodd" d="M9.88003 13.1206C10.0847 13.3252 10.4164 13.3252 10.621 13.1206L11.8225 11.9192L13.0239 13.1206C13.2285 13.3252 13.5603 13.3252 13.7649 13.1206C13.9695 12.916 13.9695 12.5842 13.7649 12.3796L12.5635 11.1782L13.7649 9.97674C13.9695 9.77212 13.9695 9.44036 13.7649 9.23573C13.5603 9.03111 13.2285 9.03111 13.0239 9.23573L11.8225 10.4371L10.621 9.23573C10.4164 9.03111 10.0847 9.03111 9.88003 9.23573C9.67541 9.44036 9.67541 9.77212 9.88003 9.97674L11.0814 11.1782L9.88003 12.3796C9.67541 12.5842 9.67541 12.916 9.88003 13.1206Z" fill="white"/>
</svg>
