<svg width="15" height="15" viewBox="0 0 15 15" fill="none" xmlns="http://www.w3.org/2000/svg">
<g id="Control search bar 2 - 24px" clip-path="url(#clip0_2_8455)">
<path id="Union" fill-rule="evenodd" clip-rule="evenodd" d="M10 5.625C10 3.20875 8.04124 1.25 5.625 1.25C3.20875 1.25 1.25 3.20875 1.25 5.625C1.25 8.04125 3.20875 10 5.625 10C8.04124 10 10 8.04125 10 5.625ZM5.625 0C8.7316 0 11.25 2.5184 11.25 5.625C11.25 7.02702 10.7371 8.30924 9.88861 9.29424L14.8034 13.9199C15.0547 14.1564 15.0667 14.552 14.8301 14.8034C14.5936 15.0547 14.198 15.0667 13.9466 14.8301L8.97093 10.1471C8.03584 10.8401 6.87829 11.25 5.625 11.25C2.5184 11.25 -1.90735e-06 8.7316 -1.90735e-06 5.625C-1.90735e-06 2.5184 2.5184 0 5.625 0Z" fill="#717887"/>
</g>
<defs>
<clipPath id="clip0_2_8455">
<rect width="15" height="15" fill="white"/>
</clipPath>
</defs>
</svg>
