<svg width="19" height="19" viewBox="0 0 19 19" fill="none" xmlns="http://www.w3.org/2000/svg">
<path fill-rule="evenodd" clip-rule="evenodd" d="M17.052 4.83589C17.0619 4.09385 16.7837 3.34869 16.2175 2.78249C15.6513 2.21628 14.9062 1.93812 14.1641 1.948C14.1638 1.948 14.1644 1.94799 14.1641 1.948C13.754 1.95357 13.344 2.04715 12.9665 2.22871C12.8313 2.29378 12.7001 2.37015 12.5744 2.45782C12.526 2.49158 12.4637 2.49928 12.4091 2.47667C12.3547 2.45409 12.316 2.40457 12.3057 2.34651C12.2788 2.19564 12.24 2.04887 12.1904 1.90721C12.0519 1.51194 11.8287 1.15646 11.5426 0.862506C11.5424 0.862306 11.5428 0.862707 11.5426 0.862506C11.0249 0.330821 10.3007 0 9.5 0C8.69927 0 7.97567 0.330219 7.45795 0.861903C7.45776 0.862104 7.45815 0.861703 7.45795 0.861903C7.17189 1.15585 6.94814 1.51193 6.80963 1.90721C6.76 2.04887 6.72123 2.19563 6.69433 2.34651C6.68398 2.40457 6.64533 2.45408 6.59086 2.47667C6.53634 2.49928 6.47403 2.49158 6.42563 2.45781C6.29992 2.37015 6.16873 2.29378 6.03347 2.22871C5.65603 2.04715 5.24686 1.95358 4.83673 1.94801C4.83645 1.948 4.83701 1.94801 4.83673 1.94801C4.09469 1.93813 3.34869 2.21628 2.78249 2.78248C2.21628 3.34869 1.93812 4.09385 1.948 4.83589C1.948 4.83617 1.94799 4.83561 1.948 4.83589C1.95357 5.24602 2.04715 5.65602 2.22871 6.03346C2.29378 6.16873 2.37014 6.29992 2.45781 6.42562C2.49158 6.47403 2.49928 6.53634 2.47667 6.59086C2.45408 6.64533 2.40457 6.68399 2.34651 6.69434C2.19563 6.72123 2.04886 6.76 1.90719 6.80964C1.51193 6.94815 1.15645 7.17131 0.862505 7.45737C0.862305 7.45756 0.862706 7.45717 0.862505 7.45737C0.330821 7.97509 0 8.69927 0 9.5C0 10.3007 0.33022 11.0243 0.861905 11.5421C0.862105 11.5422 0.861704 11.5419 0.861905 11.5421C1.15585 11.8281 1.51193 12.0519 1.90719 12.1904C2.04885 12.24 2.19563 12.2788 2.34651 12.3057C2.40457 12.316 2.45408 12.3547 2.47667 12.4091C2.49928 12.4637 2.49158 12.526 2.45781 12.5744C2.37014 12.7001 2.29377 12.8313 2.22871 12.9665C2.04715 13.344 1.95358 13.7531 1.94801 14.1633C1.948 14.1635 1.94801 14.163 1.94801 14.1633C1.93813 14.9053 2.21628 15.6513 2.78249 16.2175C3.34869 16.7837 4.09385 17.0619 4.83589 17.052C4.83617 17.052 4.83561 17.052 4.83589 17.052C5.24602 17.0464 5.65601 16.9529 6.03345 16.7713C6.16872 16.7062 6.29991 16.6299 6.42562 16.5422C6.47403 16.5084 6.53634 16.5007 6.59086 16.5233C6.64533 16.5459 6.68399 16.5954 6.69434 16.6535C6.72123 16.8044 6.76 16.9512 6.80964 17.0928C6.94815 17.4881 7.17131 17.8435 7.45736 18.1375C7.45756 18.1377 7.45717 18.1373 7.45736 18.1375C7.97509 18.6692 8.69927 19 9.5 19C10.3007 19 11.0243 18.6698 11.5421 18.1381C11.5422 18.1379 11.5419 18.1383 11.5421 18.1381C11.8281 17.8441 12.0518 17.4881 12.1904 17.0928C12.24 16.9512 12.2788 16.8044 12.3057 16.6535C12.316 16.5954 12.3547 16.5459 12.4091 16.5233C12.4637 16.5007 12.526 16.5084 12.5744 16.5422C12.7001 16.6299 12.8313 16.7062 12.9666 16.7713C13.344 16.9529 13.7531 17.0464 14.1633 17.052C14.1635 17.052 14.163 17.052 14.1633 17.052C14.9053 17.0619 15.6513 16.7837 16.2175 16.2175C16.7837 15.6513 17.0619 14.9061 17.052 14.1641C17.052 14.1638 17.052 14.1644 17.052 14.1641C17.0464 13.754 16.9529 13.344 16.7713 12.9665C16.7062 12.8313 16.6299 12.7001 16.5422 12.5744C16.5084 12.526 16.5007 12.4637 16.5233 12.4091C16.5459 12.3547 16.5954 12.316 16.6535 12.3057C16.8044 12.2788 16.9511 12.24 17.0928 12.1904C17.4881 12.0519 17.8435 11.8287 18.1375 11.5426C18.1377 11.5424 18.1373 11.5428 18.1375 11.5426C18.6692 11.0249 19 10.3007 19 9.5C19 8.69927 18.6698 7.97567 18.1381 7.45795C18.1379 7.45775 18.1383 7.45814 18.1381 7.45795C17.8441 7.17189 17.4881 6.94815 17.0928 6.80964C16.9511 6.76 16.8044 6.72123 16.6535 6.69434C16.5954 6.68399 16.5459 6.64533 16.5233 6.59086C16.5007 6.53634 16.5084 6.47403 16.5422 6.42562C16.6299 6.29991 16.7062 6.16872 16.7713 6.03345C16.9529 5.65601 17.0464 5.24602 17.052 4.83589C17.052 4.83561 17.052 4.83617 17.052 4.83589ZM14.874 4.12599C14.5449 3.79689 14.0306 3.75862 13.6613 4.01624C13.1008 4.40709 12.3566 4.51176 11.6814 4.23176C11.0079 3.95248 10.5552 3.35335 10.4352 2.67994C10.3561 2.23658 9.96541 1.9 9.5 1.9C9.03459 1.9 8.64388 2.23658 8.56485 2.67994C8.44481 3.35335 7.99213 3.95248 7.31865 4.23176C6.64342 4.51176 5.89916 4.40709 5.33874 4.01623C4.96936 3.75862 4.45509 3.79689 4.12599 4.12599C3.79689 4.45508 3.75862 4.96935 4.01623 5.33874C4.40709 5.89916 4.51176 6.64343 4.23176 7.31865C3.95248 7.99213 3.35335 8.44481 2.67993 8.56485C2.23658 8.64388 1.9 9.03459 1.9 9.5C1.9 9.96541 2.23658 10.3561 2.67993 10.4351C3.35335 10.5552 3.95248 11.0079 4.23176 11.6814C4.51176 12.3566 4.40709 13.1008 4.01623 13.6613C3.75862 14.0306 3.79689 14.5449 4.12599 14.874C4.45509 15.2031 4.96935 15.2414 5.33873 14.9838C5.89915 14.5929 6.64341 14.4882 7.31865 14.7682C7.99212 15.0475 8.44481 15.6466 8.56485 16.3201C8.64388 16.7634 9.03459 17.1 9.5 17.1C9.96541 17.1 10.3561 16.7634 10.4351 16.3201C10.5552 15.6466 11.0079 15.0475 11.6813 14.7682C12.3566 14.4882 13.1009 14.5929 13.6613 14.9838C14.0306 15.2414 14.5449 15.2031 14.874 14.874C15.2031 14.5449 15.2414 14.0306 14.9838 13.6613C14.5929 13.1008 14.4882 12.3566 14.7682 11.6813C15.0475 11.0079 15.6466 10.5552 16.3201 10.4351C16.7634 10.3561 17.1 9.96542 17.1 9.5C17.1 9.03459 16.7634 8.64388 16.3201 8.56485C15.6467 8.44481 15.0475 7.99213 14.7682 7.31865C14.4882 6.64342 14.5929 5.89915 14.9838 5.33873C15.2414 4.96935 15.2031 4.45509 14.874 4.12599Z" fill="#717887"/>
<path fill-rule="evenodd" clip-rule="evenodd" d="M9.49922 11.4001C10.5486 11.4001 11.3992 10.5494 11.3992 9.50007C11.3992 8.45073 10.5486 7.60007 9.49922 7.60007C8.44988 7.60007 7.59922 8.45073 7.59922 9.50007C7.59922 10.5494 8.44988 11.4001 9.49922 11.4001ZM9.49922 13.3001C11.5979 13.3001 13.2992 11.5988 13.2992 9.50007C13.2992 7.40139 11.5979 5.70007 9.49922 5.70007C7.40054 5.70007 5.69922 7.40139 5.69922 9.50007C5.69922 11.5988 7.40054 13.3001 9.49922 13.3001Z" fill="#717887"/>
</svg>
