<svg width="20" height="20" viewBox="0 0 14 13" fill="none" xmlns="http://www.w3.org/2000/svg">
<g clip-path="url(#clip0_2_4919)">
<path fill-rule="evenodd" clip-rule="evenodd" d="M11.5741 12.8191C12.4242 12.8191 13.1133 12.13 13.1133 11.2799V7.52108C13.1133 7.23771 12.8836 7.00801 12.6002 7.00801C12.3168 7.00801 12.0871 7.23771 12.0871 7.52108V11.2799C12.0871 11.5632 11.8574 11.7929 11.5741 11.7929H10.7189H2.33879C2.05543 11.7929 1.82572 11.5632 1.82572 11.2799V2.0446C1.82572 1.76124 2.05543 1.53153 2.33879 1.53153H7.30697C7.59034 1.53153 7.82005 1.30182 7.82005 1.01846C7.82005 0.735098 7.59034 0.505388 7.30697 0.505388H2.33879C1.48871 0.505388 0.799578 1.19452 0.799578 2.0446V11.2799C0.799578 12.13 1.48871 12.8191 2.33879 12.8191H10.7189H11.5741ZM7.10642 5.78641C6.90607 5.98679 6.9061 6.31165 7.10649 6.512C7.30688 6.71235 7.63173 6.71232 7.83208 6.51193L12.0866 2.25661V3.0707C12.0866 3.35406 12.3163 3.58377 12.5997 3.58377C12.883 3.58377 13.1127 3.35406 13.1127 3.0707L13.1127 1.01779C13.1127 0.734424 12.883 0.504715 12.5997 0.504715L10.5474 0.504716C10.264 0.504715 10.0343 0.734425 10.0343 1.01779C10.0343 1.30115 10.264 1.53086 10.5474 1.53086H11.3612L7.10642 5.78641Z" fill="white"/>
</g>
<defs>
<clipPath id="clip0_2_4919">
<rect width="12.3137" height="12.3137" fill="white" transform="translate(0.799805 0.504639)"/>
</clipPath>
</defs>
</svg>
