<svg width="33" height="20" viewBox="0 0 33 20" fill="none" xmlns="http://www.w3.org/2000/svg">
    <path
        d="M29.544 16.4141H31.3317C32.0457 16.4141 32.6295 15.8302 32.6295 15.1163C32.6295 14.3428 32.0477 13.7568 31.3317 13.7568H28.866C28.783 13.7568 28.7068 13.7977 28.6464 13.8495C28.5853 13.9018 28.534 13.9706 28.4996 14.0393C28.4636 14.1113 28.4454 14.2008 28.4546 14.2836C28.4634 14.3625 28.4988 14.444 28.5778 14.4896C28.9315 14.907 29.1092 15.4425 29.1092 15.9793C29.1092 16.0856 29.1445 16.194 29.2181 16.2767C29.2926 16.3606 29.4031 16.4141 29.544 16.4141ZM31.3317 15.5444H29.916C29.9044 15.2374 29.8126 14.968 29.7137 14.6781C29.7079 14.661 29.7021 14.6438 29.6962 14.6265H31.3317C31.4669 14.6265 31.572 14.6799 31.6442 14.7653C31.7174 14.8517 31.7598 14.9747 31.7598 15.1163C31.7598 15.3324 31.5988 15.5444 31.3317 15.5444ZM14.2566 16.4141H24.1811C24.2947 16.4141 24.4029 16.358 24.4813 16.2795C24.5598 16.201 24.616 16.0929 24.616 15.9793C24.616 15.4434 24.7931 14.9069 25.0885 14.488C25.1655 14.4421 25.2002 14.3616 25.2089 14.2836C25.2181 14.2008 25.1999 14.1113 25.1639 14.0393C25.1295 13.9706 25.0782 13.9018 25.0171 13.8495C24.9567 13.7977 24.8805 13.7568 24.7975 13.7568H13.5785C13.4955 13.7568 13.4194 13.7977 13.359 13.8495C13.2979 13.9018 13.2465 13.9706 13.2122 14.0393C13.1762 14.1113 13.158 14.2008 13.1672 14.2836C13.176 14.3625 13.2114 14.4441 13.2904 14.4896C13.6441 14.907 13.8217 15.4425 13.8217 15.9793C13.8217 16.0856 13.8571 16.194 13.9306 16.2767C14.0052 16.3606 14.1157 16.4141 14.2566 16.4141ZM24.0163 14.6265C23.8697 14.9465 23.8103 15.2269 23.7563 15.5444H14.6286C14.6162 15.2197 14.5118 14.9386 14.361 14.6265H24.0163ZM7.04438 16.4141H8.83203C8.97295 16.4141 9.08342 16.3606 9.158 16.2767C9.23152 16.194 9.26688 16.0856 9.26688 15.9793C9.26688 15.4477 9.50159 14.9111 9.80102 14.488C9.87808 14.4421 9.91277 14.3616 9.92144 14.2836C9.93063 14.2008 9.91244 14.1113 9.87645 14.0393C9.84211 13.9706 9.79072 13.9018 9.72962 13.8495C9.66927 13.7977 9.5931 13.7568 9.5101 13.7568H7.04438C6.32835 13.7568 5.74652 14.3428 5.74652 15.1163C5.74652 15.8302 6.33041 16.4141 7.04438 16.4141ZM6.61624 15.1163C6.61624 14.9747 6.6587 14.8517 6.73185 14.7653C6.80408 14.6799 6.90912 14.6265 7.04438 14.6265H8.7276C8.57684 14.9386 8.47241 15.2197 8.46004 15.5444H7.04438C6.77727 15.5444 6.61624 15.3324 6.61624 15.1163Z"
        fill="#172C4E" stroke="#172C4E" stroke-width="0.13" />
    <path
        d="M9.99994 15.9799C9.99994 16.8172 10.7071 17.5243 11.5444 17.5243C12.3816 17.5243 13.0888 16.8172 13.0888 15.9799C13.0888 15.0793 12.3798 14.4355 11.5444 14.4355C10.7089 14.4355 9.99994 15.0793 9.99994 15.9799ZM10.8697 15.9799C10.8697 15.5843 11.1488 15.3052 11.5444 15.3052C11.94 15.3052 12.2191 15.5843 12.2191 15.9799C12.2191 16.3174 11.9365 16.6546 11.5444 16.6546C11.1522 16.6546 10.8697 16.3174 10.8697 15.9799Z"
        fill="#172C4E" stroke="#172C4E" stroke-width="0.13" />
    <path
        d="M8.39691 15.9791C8.39691 17.6811 9.84552 19.0646 11.5441 19.0646C13.2426 19.0646 14.6912 17.6811 14.6912 15.9791C14.6912 14.2164 13.2435 12.832 11.5441 12.832C9.84465 12.832 8.39691 14.2164 8.39691 15.9791ZM9.26663 15.9791C9.26663 14.7205 10.2855 13.7017 11.5441 13.7017C12.8027 13.7017 13.8215 14.7205 13.8215 15.9791C13.8215 17.175 12.8038 18.1949 11.5441 18.1949C10.2843 18.1949 9.26663 17.175 9.26663 15.9791Z"
        fill="#172C4E" stroke="#172C4E" stroke-width="0.13" />
    <path
        d="M23.746 15.9791C23.746 17.6794 25.1313 19.0646 26.8315 19.0646C28.5926 19.0646 29.9787 17.6802 29.9787 15.9791C29.9787 14.2172 28.5934 12.832 26.8315 12.832C25.1304 12.832 23.746 14.2181 23.746 15.9791ZM24.6157 15.9791C24.6157 14.7182 25.5752 13.7017 26.8315 13.7017C28.0901 13.7017 29.109 14.7205 29.109 15.9791C29.109 17.175 28.0913 18.1949 26.8315 18.1949C25.5741 18.1949 24.6157 17.1772 24.6157 15.9791Z"
        fill="#172C4E" stroke="#172C4E" stroke-width="0.13" />
    <path
        d="M25.288 15.9799C25.288 16.8172 25.9952 17.5243 26.8325 17.5243C27.6697 17.5243 28.3769 16.8172 28.3769 15.9799C28.3769 15.0793 27.6679 14.4355 26.8325 14.4355C25.997 14.4355 25.288 15.0793 25.288 15.9799ZM26.1577 15.9799C26.1577 15.5843 26.4369 15.3052 26.8325 15.3052C27.2281 15.3052 27.5072 15.5843 27.5072 15.9799C27.5072 16.3174 27.2246 16.6546 26.8325 16.6546C26.4403 16.6546 26.1577 16.3174 26.1577 15.9799Z"
        fill="#172C4E" stroke="#172C4E" stroke-width="0.13" />
    <path
        d="M1.49681 3.03762H6.12003C6.23363 3.03762 6.3418 2.98148 6.42027 2.90301C6.49874 2.82454 6.55488 2.71637 6.55488 2.60277C6.55488 2.48916 6.49874 2.381 6.42027 2.30253C6.3418 2.22406 6.23363 2.16791 6.12003 2.16791H1.49681C1.35589 2.16791 1.24542 2.2214 1.17084 2.30531C1.09732 2.38801 1.06195 2.49645 1.06195 2.60277C1.06195 2.70908 1.09732 2.81752 1.17084 2.90023C1.24542 2.98413 1.35589 3.03762 1.49681 3.03762Z"
        fill="#172C4E" stroke="#172C4E" stroke-width="0.13" />
    <path
        d="M2.72923 4.94876H6.11959C6.22591 4.94876 6.33434 4.91339 6.41705 4.83987C6.50096 4.76529 6.55445 4.65482 6.55445 4.5139C6.55445 4.4003 6.4983 4.29213 6.41983 4.21366C6.34136 4.13519 6.2332 4.07904 6.11959 4.07904H2.72923C2.61563 4.07904 2.50746 4.13519 2.42899 4.21366C2.35052 4.29213 2.29438 4.4003 2.29438 4.5139C2.29438 4.65482 2.34787 4.76529 2.43177 4.83987C2.51448 4.91339 2.62292 4.94876 2.72923 4.94876Z"
        fill="#172C4E" stroke="#172C4E" stroke-width="0.13" />
    <path
        d="M1.49681 6.92141H6.12003C6.23363 6.92141 6.3418 6.86527 6.42027 6.7868C6.49874 6.70832 6.55488 6.60016 6.55488 6.48656C6.55488 6.34563 6.50139 6.23516 6.41749 6.16058C6.33478 6.08706 6.22634 6.0517 6.12003 6.0517H1.49681C1.36351 6.0517 1.25159 6.08507 1.17346 6.1632C1.09532 6.24133 1.06195 6.35325 1.06195 6.48656C1.06195 6.59287 1.09732 6.70131 1.17084 6.78402C1.24542 6.86792 1.35589 6.92141 1.49681 6.92141Z"
        fill="#172C4E" stroke="#172C4E" stroke-width="0.13" />
    <path
        d="M2.72923 8.83157H6.11959C6.2332 8.83157 6.34136 8.77542 6.41983 8.69695C6.4983 8.61848 6.55445 8.51032 6.55445 8.39671C6.55445 8.28311 6.4983 8.17494 6.41983 8.09647C6.34136 8.018 6.2332 7.96186 6.11959 7.96186H2.72923C2.61563 7.96186 2.50746 8.018 2.42899 8.09647C2.35052 8.17494 2.29438 8.28311 2.29438 8.39671C2.29438 8.51032 2.35052 8.61848 2.42899 8.69695C2.50746 8.77542 2.61563 8.83157 2.72923 8.83157Z"
        fill="#172C4E" stroke="#172C4E" stroke-width="0.13" />
    <path
        d="M1.49681 10.7432H6.12003C6.23363 10.7432 6.3418 10.687 6.42027 10.6086C6.49874 10.5301 6.55488 10.4219 6.55488 10.3083C6.55488 10.1947 6.49874 10.0866 6.42027 10.0081C6.3418 9.92962 6.23363 9.87348 6.12003 9.87348H1.49681C1.35589 9.87348 1.24542 9.92697 1.17084 10.0109C1.09732 10.0936 1.06195 10.202 1.06195 10.3083C1.06195 10.4146 1.09732 10.5231 1.17084 10.6058C1.24542 10.6897 1.35589 10.7432 1.49681 10.7432Z"
        fill="#172C4E" stroke="#172C4E" stroke-width="0.13" />
    <path
        d="M10.0036 5.62649H11.4831C11.5967 5.62649 11.7048 5.57034 11.7833 5.49187C11.8618 5.4134 11.9179 5.30524 11.9179 5.19163C11.9179 5.07803 11.8618 4.96987 11.7833 4.8914C11.7048 4.81293 11.5967 4.75678 11.4831 4.75678H10.0036C9.89004 4.75678 9.78188 4.81293 9.70341 4.8914C9.62494 4.96987 9.56879 5.07803 9.56879 5.19163C9.56879 5.30524 9.62494 5.4134 9.70341 5.49187C9.78188 5.57034 9.89004 5.62649 10.0036 5.62649Z"
        fill="#172C4E" stroke="#172C4E" stroke-width="0.13" />
    <path
        d="M9.56879 6.8558C9.56879 6.9694 9.62494 7.07757 9.70341 7.15604C9.78188 7.23451 9.89004 7.29066 10.0036 7.29066C10.1173 7.29066 10.2254 7.23451 10.3039 7.15604C10.3824 7.07757 10.4385 6.9694 10.4385 6.8558V3.96194H11.7913C11.9246 3.96194 12.0365 3.92857 12.1146 3.85044C12.1928 3.77231 12.2261 3.66039 12.2261 3.52708C12.2261 3.42077 12.1908 3.31233 12.1173 3.22962C12.0427 3.14572 11.9322 3.09223 11.7913 3.09223H10.0036C9.89004 3.09223 9.78188 3.14837 9.70341 3.22685C9.62494 3.30532 9.56879 3.41348 9.56879 3.52708V6.8558Z"
        fill="#172C4E" stroke="#172C4E" stroke-width="0.13" />
    <path
        d="M13.6436 6.38895L14.4581 7.14917C14.4953 7.1861 14.5476 7.22032 14.5974 7.24527C14.6457 7.26938 14.7032 7.29066 14.7498 7.29066C14.8981 7.29066 14.9763 7.21432 15.038 7.15269C15.2538 7.00388 15.2541 6.70883 15.0389 6.55958L14.2827 5.74933C14.9823 5.73536 15.6162 5.16092 15.6162 4.45173C15.6162 3.67412 14.9686 3.09223 14.2567 3.09223H13.2087C13.0951 3.09223 12.987 3.14837 12.9085 3.22685C12.83 3.30532 12.7739 3.41348 12.7739 3.52708V5.31473V6.8558C12.7739 6.9694 12.83 7.07757 12.9085 7.15604C12.987 7.23451 13.0951 7.29066 13.2087 7.29066C13.3496 7.29066 13.4601 7.23716 13.5347 7.15326C13.6082 7.07055 13.6436 6.96211 13.6436 6.8558V6.38895ZM14.2567 4.87987H13.6436V3.96194H14.2567C14.529 3.96194 14.7464 4.17941 14.7464 4.45173C14.7464 4.6576 14.534 4.87987 14.2567 4.87987Z"
        fill="#172C4E" stroke="#172C4E" stroke-width="0.13" />
    <path
        d="M16.4148 7.29066H18.0175C18.1238 7.29066 18.2322 7.25529 18.315 7.18178C18.3989 7.10719 18.4524 6.99672 18.4524 6.8558C18.4524 6.7422 18.3962 6.63403 18.3177 6.55556C18.2393 6.47709 18.1311 6.42094 18.0175 6.42094H16.8496V5.6263H18.0175C18.1311 5.6263 18.2393 5.57015 18.3177 5.49168C18.3962 5.41321 18.4524 5.30505 18.4524 5.19144C18.4524 5.07784 18.3962 4.96967 18.3177 4.8912C18.2393 4.81273 18.1311 4.75658 18.0175 4.75658H16.8496V3.96194H18.0175C18.1311 3.96194 18.2393 3.90579 18.3177 3.82732C18.3962 3.74885 18.4524 3.64069 18.4524 3.52708C18.4524 3.41348 18.3962 3.30532 18.3177 3.22685C18.2393 3.14837 18.1311 3.09223 18.0175 3.09223H16.4148C16.3012 3.09223 16.193 3.14837 16.1145 3.22685C16.0361 3.30532 15.9799 3.41348 15.9799 3.52708V6.8558C15.9799 6.99672 16.0334 7.10719 16.1173 7.18178C16.2 7.25529 16.3085 7.29066 16.4148 7.29066Z"
        fill="#172C4E" stroke="#172C4E" stroke-width="0.13" />
    <path
        d="M19.0032 7.29066H20.6059C20.7122 7.29066 20.8206 7.25529 20.9033 7.18178C20.9872 7.10719 21.0407 6.99672 21.0407 6.8558C21.0407 6.7422 20.9846 6.63403 20.9061 6.55556C20.8276 6.47709 20.7195 6.42094 20.6059 6.42094H19.438V5.6263H20.6059C20.7195 5.6263 20.8276 5.57015 20.9061 5.49168C20.9846 5.41321 21.0407 5.30505 21.0407 5.19144C21.0407 5.07784 20.9846 4.96967 20.9061 4.8912C20.8276 4.81273 20.7195 4.75658 20.6059 4.75658H19.438V3.96194H20.6059C20.7195 3.96194 20.8276 3.90579 20.9061 3.82732C20.9846 3.74885 21.0407 3.64069 21.0407 3.52708C21.0407 3.41348 20.9846 3.30532 20.9061 3.22685C20.8276 3.14837 20.7195 3.09223 20.6059 3.09223H19.0032C18.8896 3.09223 18.7814 3.14837 18.7029 3.22685C18.6244 3.30532 18.5683 3.41348 18.5683 3.52708V6.8558C18.5683 6.99672 18.6218 7.10719 18.7057 7.18178C18.7884 7.25529 18.8968 7.29066 19.0032 7.29066Z"
        fill="#172C4E" stroke="#172C4E" stroke-width="0.13" />
    <path
        d="M7.35277 13.0238H9.20205C9.30837 13.0238 9.41681 12.9884 9.49952 12.9149C9.58342 12.8403 9.63691 12.7298 9.63691 12.5889V11.1711C9.63691 11.0575 9.58076 10.9494 9.50229 10.8709C9.42382 10.7924 9.31566 10.7363 9.20205 10.7363H7.35277C7.23916 10.7363 7.131 10.7924 7.05253 10.8709C6.97406 10.9494 6.91791 11.0575 6.91791 11.1711V12.5889C6.91791 12.7298 6.9714 12.8403 7.05531 12.9149C7.13801 12.9884 7.24645 13.0238 7.35277 13.0238ZM8.7672 11.606V12.1541H7.78762V11.606H8.7672Z"
        fill="#172C4E" stroke="#172C4E" stroke-width="0.13" />
    <path
        d="M13.5787 14.6264H23.2566C23.3629 14.6264 23.4714 14.5911 23.5541 14.5176C23.638 14.443 23.6915 14.3325 23.6915 14.1916V1.73971C23.6915 1.27232 23.3542 0.935 22.8868 0.935H7.72262C7.25523 0.935 6.91791 1.27232 6.91791 1.73971V14.1916C6.91791 14.3325 6.9714 14.443 7.05531 14.5176C7.13801 14.5911 7.24645 14.6264 7.35277 14.6264H9.51027L9.51348 14.6264C9.57352 14.6265 9.72992 14.6266 9.81091 14.4751C10.2301 13.9997 10.8876 13.7018 11.5445 13.7018C12.2014 13.7018 12.8588 13.9997 13.2781 14.4751C13.359 14.6266 13.5154 14.6265 13.5755 14.6264L13.5787 14.6264ZM22.8218 1.80471V13.7567H13.7904C13.225 13.2012 12.4159 12.8321 11.5445 12.8321C10.673 12.8321 9.86394 13.2012 9.29858 13.7567H7.78762V1.80471H22.8218Z"
        fill="#172C4E" stroke="#172C4E" stroke-width="0.13" />
    <path
        d="M28.8661 14.6261H31.0236C31.1299 14.6261 31.2383 14.5908 31.321 14.5173C31.4049 14.4427 31.4584 14.3322 31.4584 14.1913V9.93793C31.4584 7.5596 29.5184 5.61957 27.1401 5.61957H23.2566C23.1503 5.61957 23.0418 5.65494 22.9591 5.72845C22.8752 5.80303 22.8217 5.9135 22.8217 6.05443V14.1913C22.8217 14.3322 22.8752 14.4427 22.9591 14.5173C23.0418 14.5908 23.1503 14.6261 23.2566 14.6261H24.7976C24.8001 14.6261 24.8026 14.6261 24.8051 14.6262C24.8603 14.6262 24.9178 14.6262 24.9682 14.6061C25.0242 14.5837 25.0637 14.5408 25.0974 14.4766C25.5798 13.9972 26.1778 13.7015 26.8319 13.7015C27.4888 13.7015 28.1462 13.9994 28.5654 14.4748C28.6464 14.6263 28.8028 14.6262 28.8629 14.6261L28.8661 14.6261ZM24.5879 13.7564H23.6914V6.48928H27.1401C29.0768 6.48928 30.5887 8.00126 30.5887 9.93793V13.7564H29.0778C28.5124 13.2009 27.7033 12.8318 26.8319 12.8318C25.9576 12.8318 25.2092 13.2031 24.5879 13.7564Z"
        fill="#172C4E" stroke="#172C4E" stroke-width="0.13" />
    <path
        d="M25.4143 10.8659H31.0238C31.1374 10.8659 31.2456 10.8097 31.324 10.7312C31.4025 10.6528 31.4587 10.5446 31.4587 10.431V9.93786C31.4587 8.87769 31.0855 7.87814 30.3995 7.12646C30.363 7.05748 30.3106 7.00589 30.2585 6.97115C30.2061 6.93621 30.1473 6.914 30.0992 6.914H25.4143C25.2734 6.914 25.1629 6.9675 25.0883 7.0514C25.0148 7.13411 24.9794 7.24255 24.9794 7.34886V10.431C24.9794 10.5373 25.0148 10.6458 25.0883 10.7285C25.1629 10.8124 25.2734 10.8659 25.4143 10.8659ZM30.5889 9.93786V9.99615H25.8491V7.78372H29.8828C30.3527 8.38383 30.5889 9.15979 30.5889 9.93786Z"
        fill="#172C4E" stroke="#172C4E" stroke-width="0.13" />
    <path
        d="M8.52367 19.065H29.8521C29.9854 19.065 30.0973 19.0316 30.1755 18.9535C30.2536 18.8753 30.287 18.7634 30.287 18.6301C30.287 18.5238 30.2516 18.4154 30.1781 18.3327C30.1035 18.2487 29.993 18.1953 29.8521 18.1953H8.52367C8.41006 18.1953 8.3019 18.2514 8.22343 18.3299C8.14496 18.4083 8.08881 18.5165 8.08881 18.6301C8.08881 18.771 8.1423 18.8815 8.22621 18.9561C8.30891 19.0296 8.41735 19.065 8.52367 19.065Z"
        fill="#172C4E" stroke="#172C4E" stroke-width="0.13" />
</svg>
