<svg width="8" height="12" viewBox="0 0 8 12" fill="none" xmlns="http://www.w3.org/2000/svg">
<g id="Group 64">
<g id="Vector">
<path fill-rule="evenodd" clip-rule="evenodd" d="M3 9V10.5C3 10.7761 3.22386 11 3.5 11H4.5C4.77614 11 5 10.7761 5 10.5V9H6V10.5C6 11.3284 5.32843 12 4.5 12H3.5C2.67157 12 2 11.3284 2 10.5V9H3Z" fill="#162C4E"/>
<path fill-rule="evenodd" clip-rule="evenodd" d="M5.5 6.64267L5.87453 6.34244C6.56242 5.79101 7 4.94694 7 4C7 2.34315 5.65685 1 4 1C2.34315 1 1 2.34315 1 4C1 4.94694 1.43758 5.79101 2.12547 6.34244L2.5 6.64267V8C2.5 8.27614 2.72386 8.5 3 8.5H5C5.27614 8.5 5.5 8.27614 5.5 8V6.64267ZM6.5 7.12269V8C6.5 8.82843 5.82843 9.5 5 9.5H3C2.17157 9.5 1.5 8.82843 1.5 8V7.12269C0.585537 6.38963 0 5.26319 0 4C0 1.79086 1.79086 0 4 0C6.20914 0 8 1.79086 8 4C8 5.26319 7.41446 6.38963 6.5 7.12269Z" fill="#162C4E"/>
<path d="M3.35355 4.14645C3.15829 3.95118 2.84171 3.95118 2.64645 4.14645C2.45118 4.34171 2.45118 4.65829 2.64645 4.85355L3.5 5.70711V8.5H4.5V5.70711L5.35355 4.85355C5.54882 4.65829 5.54882 4.34171 5.35355 4.14645C5.15829 3.95118 4.84171 3.95118 4.64645 4.14645L4 4.79289L3.35355 4.14645Z" fill="#162C4E"/>
</g>
</g>
</svg>
