<svg width="105" height="105" viewBox="0 0 105 105" fill="none" xmlns="http://www.w3.org/2000/svg">
    <rect width="105" height="105" rx="17" fill="white"/>
    <path d="M34.2292 50.092C34.4375 50.0941 34.6406 50.0291 34.808 49.9068C34.9755 49.7845 35.0981 49.6115 35.1572 49.4141C35.492 48.2456 36.1789 47.2057 37.1267 46.4328C38.0745 45.6598 39.2381 45.1907 40.4625 45.0877C41.0666 45.0877 45.8147 45.0704 46.2349 45.0704C46.9137 45.0704 47.5646 44.8039 48.0446 44.3295C48.5245 43.8552 48.7941 43.2118 48.7941 42.5409C48.7941 41.87 48.5245 41.2267 48.0446 40.7523C47.5646 40.2779 46.9137 40.0114 46.2349 40.0114C46.1794 40.0114 40.5035 40.0114 40.1387 40.0402C37.6975 40.2267 35.3853 41.1994 33.5572 42.8093C31.7291 44.4192 30.4858 46.5773 30.018 48.9527C29.9904 49.093 29.9946 49.2376 30.0302 49.3762C30.0659 49.5147 30.1323 49.6437 30.2243 49.754C30.3163 49.8642 30.4317 49.953 30.5626 50.0139C30.6934 50.0749 30.8363 50.1065 30.9809 50.1064L34.2292 50.092Z" fill="#6FD943"/>
    <path d="M45.8065 48.5373C45.2191 48.6696 44.6953 48.9973 44.3234 49.4658C43.9515 49.9342 43.754 50.5148 43.7637 51.1101V56.9709C42.3308 56.9709 40.7636 56.971 40.4251 56.9537C39.3433 56.8532 38.309 56.4667 37.4304 55.8349C36.5519 55.2031 35.8613 54.3491 35.4318 53.3627C35.3551 53.1975 35.2318 53.0578 35.0764 52.9606C34.9211 52.8633 34.7402 52.8126 34.5563 52.8147H31.2092C31.0582 52.8149 30.9093 52.8493 30.774 52.9155C30.6387 52.9817 30.5206 53.0778 30.4289 53.1963C30.3372 53.3148 30.2742 53.4526 30.245 53.599C30.2159 53.7454 30.2213 53.8965 30.2607 54.0405C30.7384 55.7061 31.6085 57.2362 32.7997 58.5054C34.6942 60.5322 37.2917 61.7794 40.0748 61.9983C40.4746 62.03 46.2032 62.0329 46.2528 62.0329C46.7214 62.033 47.181 61.9058 47.5814 61.6652C47.9818 61.4246 48.3077 61.0798 48.5233 60.6686C48.7633 60.2772 48.8904 59.8284 48.8909 59.3707V51.0063C48.8894 50.6308 48.8035 50.2603 48.6392 49.9217C48.475 49.5831 48.2366 49.2849 47.9413 49.0485C47.6461 48.8122 47.3014 48.6438 46.9322 48.5553C46.5629 48.4669 46.1784 48.4608 45.8065 48.5373Z" fill="#6FD943"/>
    <path d="M62.5959 40C59.6379 40.0031 56.8021 41.1658 54.7105 43.233C52.6189 45.3002 51.4425 48.1031 51.4395 51.0266C51.4425 53.9501 52.6189 56.7529 54.7105 58.8202C56.8021 60.8874 59.6379 62.0501 62.5959 62.0532C65.5538 62.0501 68.3899 60.8874 70.4815 58.8202C72.5731 56.7529 73.7495 53.9501 73.7526 51.0266C73.7495 48.1031 72.5731 45.3002 70.4815 43.233C68.3899 41.1658 65.5538 40.0031 62.5959 40ZM62.5959 56.9912C60.996 56.9889 59.4623 56.3598 58.331 55.2417C57.1997 54.1236 56.5633 52.6078 56.561 51.0266C56.5633 49.4453 57.1997 47.9295 58.331 46.8114C59.4623 45.6933 60.996 45.0641 62.5959 45.0618C64.1957 45.0641 65.7294 45.6933 66.8607 46.8114C67.992 47.9295 68.6287 49.4453 68.631 51.0266C68.6287 52.6078 67.992 54.1236 66.8607 55.2417C65.7294 56.3598 64.1957 56.9889 62.5959 56.9912Z" fill="#6FD943"/>
    <path d="M71.3848 66.5944L32.6715 66.5945C31.9405 66.6142 31.2492 66.8572 30.7489 67.2704C30.2485 67.6836 29.9798 68.2334 30.0012 68.7996C29.9798 69.3653 30.249 69.9146 30.7495 70.327C31.25 70.7395 31.941 70.9815 32.6715 71L71.3848 70.9999C72.1153 70.9814 72.8064 70.7394 73.3068 70.3269C73.8073 69.9145 74.0759 69.3653 74.0545 68.7995C74.076 68.2333 73.8072 67.6835 73.3068 67.2703C72.8065 66.8572 72.1158 66.6141 71.3848 66.5944Z" fill="#6FD943"/>
    <path d="M13 87.819V83.6457H14.5461C14.7977 83.6353 15.0482 83.6834 15.2778 83.7858C15.4628 83.8779 15.6103 84.0295 15.6963 84.2158C15.7932 84.4491 15.8393 84.7 15.8314 84.9521C15.8373 85.2072 15.7913 85.4609 15.6963 85.6981C15.6125 85.8956 15.4656 86.0604 15.2778 86.1673C15.0525 86.284 14.8003 86.3402 14.5461 86.3301H13.3032V87.819H13ZM13.3032 86.0598H14.5461C14.6849 86.0727 14.8247 86.0529 14.9543 86.0019C15.0838 85.9509 15.1992 85.8702 15.291 85.7665C15.4562 85.5276 15.536 85.241 15.5182 84.9521C15.5407 84.6728 15.4601 84.395 15.291 84.1702C15.1927 84.077 15.0754 84.0058 14.9469 83.9613C14.8183 83.9169 14.6817 83.9004 14.5461 83.9128H13.3032V86.0598Z" fill="#172C4E"/>
    <path d="M18.7479 87.884C18.4814 87.8984 18.2158 87.8446 17.9766 87.7277C17.7882 87.6141 17.6529 87.4313 17.6006 87.2194C17.5239 86.9138 17.4896 86.5992 17.4986 86.2844C17.4884 85.9876 17.5297 85.6912 17.6206 85.4081C17.687 85.2051 17.8279 85.034 18.0159 84.9291C18.2438 84.8209 18.4952 84.7694 18.7479 84.7793C19.0016 84.769 19.2538 84.8205 19.4828 84.9291C19.6708 85.034 19.812 85.2051 19.8784 85.4081C19.9693 85.6912 20.0106 85.9876 20.0004 86.2844C20.0093 86.5992 19.9748 86.9138 19.898 87.2194C19.8459 87.4304 19.7122 87.6129 19.5256 87.7277C19.2843 87.8452 19.0165 87.8991 18.7479 87.884ZM18.7479 87.6266C18.9631 87.6407 19.1778 87.5945 19.3675 87.4931C19.4388 87.4437 19.4989 87.3803 19.5443 87.3069C19.5896 87.2335 19.6193 87.1515 19.6312 87.0663C19.6756 86.8081 19.6953 86.5463 19.6904 86.2844C19.6986 86.0332 19.6709 85.782 19.608 85.5384C19.565 85.3772 19.4613 85.2385 19.318 85.1507C19.1405 85.0662 18.9446 85.027 18.7479 85.0366C18.5511 85.027 18.3549 85.0662 18.1775 85.1507C18.1057 85.1933 18.0431 85.2495 17.9933 85.316C17.9436 85.3825 17.9076 85.4581 17.8874 85.5384C17.8216 85.7815 17.7927 86.0329 17.8018 86.2844C17.7961 86.5465 17.8169 86.8084 17.8643 87.0663C17.8776 87.1511 17.9079 87.2325 17.9531 87.3057C17.9984 87.3789 18.058 87.4426 18.1282 87.4931C18.3178 87.5948 18.5327 87.6411 18.7479 87.6266Z" fill="#172C4E"/>
    <path d="M22.456 87.8194L21.668 84.8255H21.9712L22.6865 87.5621H22.7657L23.5997 84.8841H23.9293L24.7666 87.5621H24.8458L25.561 84.8255H25.8643L25.0698 87.8194H24.5425L23.7645 85.2523L22.99 87.8194H22.456Z" fill="#172C4E"/>
    <path d="M28.6757 87.8848C28.4275 87.8989 28.1807 87.8363 27.9701 87.7056C27.7954 87.5737 27.6701 87.388 27.6141 87.1778C27.5402 86.9049 27.5059 86.623 27.512 86.3405C27.4975 86.0232 27.5527 85.7065 27.6736 85.4121C27.7648 85.2089 27.9181 85.0392 28.1121 84.9267C28.3096 84.826 28.5292 84.7755 28.7514 84.78C28.9117 84.768 29.0729 84.791 29.2233 84.8473C29.3736 84.9036 29.5094 84.9918 29.6215 85.1058C29.8509 85.4234 29.9574 85.8119 29.9215 86.2005V86.4448H27.8153C27.8022 86.7476 27.8692 87.0485 28.0097 87.3179C28.0864 87.4242 28.1905 87.5083 28.311 87.5615C28.4315 87.6148 28.5641 87.6353 28.6954 87.6209H29.0578L29.4602 87.6014L29.8062 87.5753V87.8229L29.4566 87.8522C29.3215 87.8522 29.1864 87.8717 29.0446 87.8783L28.6757 87.8848ZM27.8121 86.2005H29.6182C29.6476 85.8845 29.5749 85.5674 29.4106 85.2948C29.3292 85.2032 29.2271 85.1318 29.1125 85.0866C28.998 85.0413 28.8742 85.0233 28.7514 85.0341C28.6247 85.0277 28.4981 85.0479 28.3799 85.0934C28.2617 85.1389 28.1546 85.2086 28.0657 85.298C27.8732 85.5548 27.7831 85.8725 27.8121 86.1907V86.2005Z" fill="#172C4E"/>
    <path d="M31.8447 87.8193V84.8254H32.1348V85.2749C32.2297 85.2035 32.3301 85.1393 32.4348 85.0827C32.5683 85.011 32.7059 84.9468 32.8468 84.8905C32.9945 84.8327 33.1483 84.7911 33.3052 84.7667V85.0599C33.1567 85.0884 33.011 85.1298 32.87 85.1837C32.7216 85.2391 32.5833 85.301 32.4547 85.3629C32.3262 85.4248 32.2207 85.4834 32.1251 85.5323V87.8128L31.8447 87.8193Z" fill="#172C4E"/>
    <path d="M35.9472 87.8845C35.6989 87.8986 35.4525 87.836 35.2419 87.7053C35.0672 87.5734 34.9419 87.3877 34.8859 87.1775C34.812 86.9046 34.7774 86.6227 34.7835 86.3402C34.769 86.0229 34.8242 85.7062 34.9451 85.4118C35.0364 85.2077 35.1911 85.0376 35.3868 84.9264C35.584 84.825 35.8041 84.7745 36.0264 84.7797C36.1867 84.7684 36.3474 84.7917 36.4977 84.848C36.6479 84.9042 36.784 84.992 36.8965 85.1055C37.1259 85.4231 37.2324 85.8116 37.1965 86.2002V86.4445H35.0935C35.0779 86.7472 35.1439 87.0484 35.2847 87.3176C35.3614 87.4239 35.4652 87.508 35.5857 87.5612C35.7062 87.6145 35.8392 87.635 35.9704 87.6206H36.3361L36.7349 87.6011L37.0645 87.575V87.8226L36.7349 87.8519C36.5997 87.8519 36.4613 87.8714 36.3229 87.878L35.9472 87.8845ZM35.0868 86.2002H36.8933C36.9218 85.8838 36.8481 85.5667 36.6824 85.2945C36.6012 85.2027 36.4989 85.1312 36.3843 85.0858C36.2698 85.0405 36.1461 85.0227 36.0232 85.0338C35.896 85.0271 35.7685 85.0472 35.6498 85.0927C35.531 85.1382 35.4234 85.2081 35.334 85.2977C35.1485 85.5572 35.0653 85.8746 35.1 86.1904L35.0868 86.2002Z" fill="#172C4E"/>
    <path d="M40.0508 87.8845C39.9548 87.8831 39.859 87.8754 39.764 87.8616C39.6646 87.8437 39.5696 87.8072 39.4839 87.7542C39.3847 87.6937 39.3011 87.6111 39.2399 87.5131C39.1544 87.3782 39.0941 87.2292 39.0619 87.0732C39.0143 86.8439 38.9921 86.6102 38.9959 86.3761C38.9887 86.0786 39.0289 85.7818 39.1147 85.4965C39.1797 85.2783 39.3193 85.0893 39.51 84.9621C39.7418 84.8297 40.0075 84.7663 40.2749 84.7797C40.4182 84.7804 40.5612 84.7902 40.7033 84.809L41.0329 84.8514V83.4798H41.3297V87.8193H41.0397V87.588C40.9524 87.6359 40.862 87.6783 40.7693 87.715C40.654 87.7627 40.5349 87.8009 40.4133 87.8291C40.2948 87.8606 40.1734 87.8792 40.0508 87.8845ZM40.0508 87.6205C40.1752 87.6196 40.2992 87.6044 40.42 87.575C40.5326 87.5466 40.6429 87.5095 40.7497 87.4642C40.8415 87.4292 40.9306 87.3879 41.0165 87.3404V85.112L40.8057 85.0795L40.5156 85.0501C40.4134 85.0501 40.3243 85.0501 40.2485 85.0501C40.0356 85.0366 39.824 85.0914 39.6452 85.2065C39.499 85.3202 39.3967 85.4801 39.3552 85.6594C39.2948 85.8979 39.2671 86.1433 39.2728 86.3891C39.2663 86.6149 39.2896 86.8404 39.342 87.0602C39.3724 87.1963 39.4344 87.3235 39.5232 87.4316C39.5881 87.5082 39.6739 87.5648 39.7704 87.5945C39.8672 87.6195 39.9676 87.6283 40.0672 87.6205H40.0508Z" fill="#172C4E"/>
    <path d="M45.9316 87.8192V83.6458H47.4082C47.6419 83.6381 47.8749 83.6757 48.0939 83.7566C48.2667 83.8207 48.4122 83.9415 48.5059 84.0987C48.6051 84.2793 48.6529 84.483 48.6443 84.6883C48.6488 84.8499 48.6244 85.011 48.5719 85.1641C48.5337 85.2869 48.4659 85.3987 48.3742 85.4898C48.2879 85.5726 48.1859 85.6379 48.0742 85.682C48.1993 85.7161 48.3173 85.7712 48.4235 85.8449C48.5409 85.9282 48.6343 86.0405 48.6939 86.1707C48.7679 86.3333 48.803 86.5106 48.7963 86.6887C48.8019 86.8793 48.7715 87.0693 48.7071 87.2491C48.6537 87.389 48.5626 87.5119 48.4435 87.6042C48.3219 87.6918 48.184 87.7548 48.0379 87.7898C47.865 87.8295 47.688 87.8481 47.5106 87.8453L45.9316 87.8192ZM46.2349 85.5387H47.4645C47.5834 85.5487 47.7031 85.5348 47.8164 85.4979C47.9297 85.4609 48.0343 85.4017 48.1238 85.3237C48.2771 85.142 48.3516 84.9078 48.3314 84.6721C48.341 84.5615 48.325 84.4501 48.2851 84.3463C48.2451 84.2426 48.1821 84.149 48.1006 84.0726C47.8928 83.9351 47.6448 83.8698 47.3953 83.8869H46.2284L46.2349 85.5387ZM46.2349 87.5357H47.5074C47.6811 87.5378 47.8539 87.5103 48.0182 87.4543C48.1548 87.4002 48.2704 87.3043 48.3478 87.1807C48.4401 87.0168 48.4835 86.8303 48.4731 86.6431C48.4815 86.481 48.4415 86.3201 48.3578 86.1805C48.2869 86.0748 48.189 85.9894 48.0742 85.9329C47.9706 85.8812 47.8593 85.846 47.7446 85.8286C47.6484 85.8167 47.5516 85.8102 47.4546 85.8091H46.2249L46.2349 87.5357Z" fill="#172C4E"/>
    <path d="M51.3189 89.1909L51.7441 87.8291H51.3485L50.4355 84.8352H50.7388L51.5793 87.5718H51.8165L52.6638 84.8352H52.967L51.6221 89.1909H51.3189Z" fill="#172C4E"/>
    <path d="M81.7654 86.1545C81.924 86.1545 82.076 86.0926 82.1884 85.9821C82.3008 85.8716 82.3646 85.7216 82.3655 85.5649V85.1153C82.3646 84.9583 82.3011 84.808 82.1888 84.697C82.0764 84.586 81.9243 84.5232 81.7654 84.5223C81.6069 84.5232 81.4552 84.5861 81.3434 84.6972C81.2316 84.8083 81.1689 84.9586 81.1689 85.1153V85.5649C81.1689 85.7213 81.2315 85.8713 81.3434 85.9819C81.4553 86.0924 81.6072 86.1545 81.7654 86.1545Z" fill="#6FD943"/>
    <path d="M84.9362 83.5839C84.495 83.1099 83.8882 82.8188 83.2385 82.7695C83.1429 82.7695 81.8079 82.7695 81.7947 82.7695C81.6365 82.7695 81.4849 82.8316 81.373 82.9421C81.2612 83.0527 81.1983 83.2028 81.1983 83.3592C81.1978 83.4369 81.2129 83.5138 81.2427 83.5858C81.2725 83.6577 81.3163 83.7231 81.3718 83.7782C81.4272 83.8334 81.4933 83.877 81.5659 83.9069C81.6385 83.9367 81.7161 83.952 81.7947 83.952H83.1528C83.5026 83.9851 83.8275 84.1455 84.0645 84.402C84.3014 84.6584 84.4333 84.9926 84.435 85.3399C84.4338 85.6889 84.3007 86.0249 84.0616 86.2817C83.8224 86.5385 83.4947 86.6977 83.1429 86.7278H81.7947C81.6362 86.7286 81.4845 86.7915 81.3727 86.9026C81.2609 87.0137 81.1982 87.164 81.1983 87.3207C81.1983 87.4771 81.2612 87.6271 81.373 87.7376C81.4849 87.8482 81.6365 87.9104 81.7947 87.9104C81.7947 87.9104 83.1331 87.9104 83.2188 87.9104C83.8738 87.8605 84.4858 87.5685 84.9329 87.0928C85.3801 86.6171 85.6296 85.9925 85.6318 85.3432C85.6352 84.6906 85.3864 84.0613 84.9362 83.5839Z" fill="#6FD943"/>
    <path d="M79.8702 86.7801L78.4957 85.8028C78.3628 85.7182 78.2015 85.6892 78.047 85.7222C77.8925 85.7552 77.7574 85.8475 77.6716 85.9787C77.6288 86.0439 77.5993 86.1168 77.585 86.1932C77.5708 86.2697 77.572 86.3481 77.5886 86.4241C77.6051 86.5001 77.6368 86.5721 77.6816 86.636C77.7264 86.6999 77.7835 86.7544 77.8496 86.7964L79.2242 87.7738C79.3218 87.8376 79.4368 87.8705 79.5538 87.8682C79.6536 87.8687 79.752 87.8442 79.8396 87.7969C79.9273 87.7496 80.0011 87.6811 80.0547 87.5978C80.0977 87.5324 80.1273 87.4592 80.1413 87.3824C80.1553 87.3056 80.1536 87.2268 80.1364 87.1506C80.1192 87.0744 80.0869 87.0025 80.0412 86.9389C79.9954 86.8752 79.9373 86.8213 79.8702 86.7801Z" fill="#172C4E"/>
    <path d="M79.8714 83.8578C79.9376 83.8159 79.9946 83.7613 80.0394 83.6974C80.0842 83.6335 80.1159 83.5615 80.1324 83.4855C80.149 83.4095 80.1502 83.3311 80.136 83.2546C80.1217 83.1782 80.0922 83.1053 80.0494 83.0401C80.0072 82.9748 79.9525 82.9184 79.8881 82.8741C79.8237 82.8299 79.751 82.7987 79.6744 82.7823C79.5977 82.766 79.5187 82.7648 79.4416 82.7788C79.3645 82.7929 79.291 82.8219 79.2253 82.8642L77.0959 84.2194V83.3333C77.0951 83.1766 77.0313 83.0266 76.9189 82.9161C76.8065 82.8056 76.6544 82.7436 76.4959 82.7436C76.3377 82.7436 76.1861 82.8058 76.0742 82.9163C75.9623 83.0269 75.8994 83.1769 75.8994 83.3333V87.3014C75.8994 87.4578 75.9623 87.6078 76.0742 87.7184C76.1861 87.829 76.3377 87.8911 76.4959 87.8911C76.6544 87.8911 76.8065 87.829 76.9189 87.7185C77.0313 87.608 77.0951 87.458 77.0959 87.3014V85.6268L79.8714 83.8578Z" fill="#172C4E"/>
    <path d="M62.8091 82.8056C62.7273 82.7647 62.637 82.7435 62.5454 82.7436C62.4341 82.7433 62.3248 82.7736 62.23 82.8312C62.1351 82.8887 62.058 82.9712 62.0078 83.0694L61.2366 84.6495C61.2017 84.7192 61.1812 84.795 61.1761 84.8726C61.1709 84.9502 61.1815 85.028 61.207 85.1016C61.2324 85.1752 61.2721 85.243 61.3241 85.3013C61.3762 85.3596 61.4395 85.4071 61.5102 85.4411C61.6523 85.5097 61.8161 85.5198 61.9657 85.4691C62.1153 85.4184 62.2383 85.3111 62.3079 85.1708L63.0827 83.5907C63.1511 83.4506 63.1606 83.2895 63.1094 83.1424C63.0581 82.9953 62.9502 82.8743 62.8091 82.8056Z" fill="#172C4E"/>
    <path d="M59.1204 83.0726C59.0706 82.9742 58.9939 82.8915 58.899 82.8339C58.804 82.7764 58.6946 82.7461 58.5832 82.7468C58.4916 82.7467 58.4013 82.768 58.3196 82.8088C58.1776 82.8776 58.0689 82.9992 58.0176 83.147C57.9663 83.2948 57.9765 83.4568 58.0459 83.5972L60.0237 87.5652C60.0933 87.7056 60.2163 87.8129 60.3659 87.8636C60.5155 87.9143 60.6793 87.9043 60.8214 87.8357C60.9636 87.7663 61.0724 87.644 61.1237 87.4956C61.1749 87.3473 61.1646 87.1849 61.095 87.044L59.1204 83.0726Z" fill="#172C4E"/>
    <path d="M56.4141 83.0726C56.3642 82.9742 56.2876 82.8915 56.1926 82.8339C56.0977 82.7764 55.9882 82.7461 55.8768 82.7468C55.7863 82.7467 55.697 82.768 55.6164 82.8088C55.4744 82.8776 55.3658 82.9992 55.3145 83.147C55.2632 83.2948 55.2734 83.4568 55.3428 83.5972L57.3206 87.5652C57.3901 87.7056 57.5132 87.8129 57.6628 87.8636C57.8123 87.9143 57.9762 87.9043 58.1182 87.8357C58.2605 87.7663 58.3692 87.644 58.4205 87.4956C58.4718 87.3473 58.4614 87.1849 58.3919 87.044L56.4141 83.0726Z" fill="#172C4E"/>
    <path d="M66.7809 82.7436C66.0906 82.7445 65.4288 83.0159 64.9406 83.4984C64.4525 83.9809 64.1776 84.635 64.1768 85.3174C64.1776 85.9997 64.4525 86.6538 64.9406 87.1363C65.4288 87.6188 66.0906 87.8902 66.7809 87.8911C67.4716 87.8911 68.1339 87.6199 68.6222 87.1373C69.1106 86.6546 69.3851 86 69.3851 85.3174C69.3851 84.6348 69.1106 83.9801 68.6222 83.4975C68.1339 83.0148 67.4716 82.7436 66.7809 82.7436ZM66.7809 86.7085C66.4077 86.7085 66.0496 86.5619 65.7856 86.301C65.5217 86.0401 65.3733 85.6863 65.3733 85.3174C65.3733 84.9484 65.5217 84.5945 65.7856 84.3336C66.0496 84.0728 66.4077 83.9262 66.7809 83.9262C67.1545 83.9262 67.5128 84.0727 67.7772 84.3335C68.0417 84.5943 68.191 84.9481 68.1918 85.3174C68.191 85.6866 68.0417 86.0404 67.7772 86.3012C67.5128 86.562 67.1545 86.7085 66.7809 86.7085Z" fill="#172C4E"/>
    <path d="M89.2709 82.7436C88.5802 82.7436 87.9179 83.0148 87.4296 83.4975C86.9412 83.9801 86.667 84.6348 86.667 85.3174C86.667 86 86.9412 86.6546 87.4296 87.1373C87.9179 87.6199 88.5802 87.8911 89.2709 87.8911C89.9612 87.8902 90.6233 87.6188 91.1115 87.1363C91.5997 86.6538 91.8742 85.9997 91.875 85.3174C91.8742 84.635 91.5997 83.9809 91.1115 83.4984C90.6233 83.0159 89.9612 82.7445 89.2709 82.7436ZM89.2709 86.7085C88.8973 86.7085 88.5391 86.562 88.2746 86.3012C88.0101 86.0404 87.8612 85.6866 87.8603 85.3174C87.8612 84.9481 88.0101 84.5943 88.2746 84.3335C88.5391 84.0727 88.8973 83.9262 89.2709 83.9262C89.6442 83.9262 90.0022 84.0728 90.2662 84.3336C90.5301 84.5945 90.6785 84.9484 90.6785 85.3174C90.6785 85.6863 90.5301 86.0401 90.2662 86.301C90.0022 86.5619 89.6442 86.7085 89.2709 86.7085Z" fill="#6FD943"/>
    <path d="M74.132 86.7896L73.6244 86.5029C73.4874 86.4245 73.3246 86.4027 73.1714 86.4424C73.0183 86.482 72.8875 86.58 72.807 86.7147C72.7669 86.7815 72.7404 86.8555 72.7295 86.9325C72.7185 87.0094 72.723 87.0878 72.743 87.163C72.7629 87.2382 72.7979 87.3087 72.8457 87.3704C72.8934 87.4322 72.9529 87.4839 73.0211 87.5227L73.5287 87.8093C73.6493 87.8815 73.7923 87.9081 73.9311 87.8842C74.0173 87.8691 74.0989 87.8356 74.1706 87.7861C74.2424 87.7366 74.3023 87.6723 74.3464 87.5976C74.4258 87.4622 74.4477 87.3013 74.4076 87.1499C74.3674 86.9986 74.2683 86.8691 74.132 86.7896Z" fill="#172C4E"/>
    <path d="M73.2722 86.1318C73.7048 86.0998 74.1091 85.9074 74.4044 85.5933C74.6996 85.2792 74.8636 84.8665 74.864 84.4378C74.8623 84.0115 74.6994 83.6014 74.4073 83.2879C74.1151 82.9744 73.7148 82.7802 73.2851 82.7436H71.0241C70.9454 82.7432 70.8673 82.7581 70.7946 82.7876C70.7218 82.817 70.6559 82.8604 70.6001 82.9152C70.5444 82.97 70.4999 83.0351 70.4698 83.1069C70.4396 83.1786 70.424 83.2556 70.424 83.3333C70.424 83.4897 70.4869 83.6396 70.5988 83.7502C70.7107 83.8608 70.8626 83.923 71.0208 83.923H73.1963C73.3245 83.9373 73.4429 83.9976 73.5291 84.0925C73.6154 84.1873 73.6635 84.3102 73.6643 84.4378C73.6642 84.566 73.6159 84.6896 73.5288 84.7847C73.4417 84.8798 73.3221 84.9395 73.193 84.9524H71.0141C70.8848 84.9535 70.7594 84.9955 70.6561 85.0723C70.5529 85.1491 70.4772 85.2568 70.4405 85.3792C70.4233 85.4375 70.4144 85.4978 70.4141 85.5584V87.2981C70.4141 87.4545 70.477 87.6045 70.5889 87.7151C70.7007 87.8257 70.8526 87.8878 71.0109 87.8878C71.0895 87.8882 71.1673 87.8733 71.2401 87.8439C71.3128 87.8145 71.3791 87.771 71.4348 87.7162C71.4906 87.6614 71.535 87.5963 71.5652 87.5245C71.5954 87.4528 71.6109 87.3758 71.6109 87.2981V86.1351L73.2722 86.1318Z" fill="#172C4E"/>
    <path d="M89.5492 80.3556C89.5451 80.1768 89.5775 79.999 89.6448 79.833C89.712 79.667 89.8128 79.5161 89.9406 79.3895C90.0684 79.2629 90.2206 79.1632 90.3884 79.0963C90.5562 79.0294 90.736 78.9967 90.9169 79.0003C91.098 78.9967 91.2778 79.0294 91.4458 79.0963C91.6138 79.1631 91.7665 79.2628 91.8945 79.3894C92.0226 79.5159 92.1237 79.6668 92.1913 79.8328C92.259 79.9988 92.2918 80.1766 92.2882 80.3556C92.2923 80.5347 92.2595 80.7126 92.192 80.8789C92.1245 81.0451 92.0237 81.1961 91.8955 81.3228C91.7674 81.4494 91.6147 81.5492 91.4465 81.6159C91.2783 81.6826 91.0981 81.7148 90.9169 81.7108C90.7361 81.7139 90.5566 81.681 90.389 81.614C90.2214 81.5469 90.0693 81.4471 89.9416 81.3206C89.8139 81.1941 89.7132 81.0434 89.6457 80.8776C89.5783 80.7118 89.5456 80.5343 89.5492 80.3556ZM92.0806 80.3556C92.0832 80.2031 92.0549 80.0516 91.9976 79.9099C91.9402 79.7683 91.8551 79.6395 91.7468 79.5309C91.6384 79.4223 91.5091 79.3361 91.3666 79.2775C91.2242 79.2188 91.0713 79.1888 90.9169 79.1892C90.7625 79.1883 90.6096 79.218 90.4669 79.2765C90.3242 79.335 90.1949 79.4211 90.0864 79.5298C89.978 79.6385 89.8925 79.7676 89.8353 79.9095C89.7782 80.0513 89.7505 80.203 89.7536 80.3556C89.7509 80.5078 89.7789 80.659 89.8363 80.8002C89.8937 80.9415 89.9793 81.0699 90.0877 81.178C90.1962 81.2861 90.3254 81.3717 90.4679 81.4296C90.6103 81.4875 90.7629 81.5167 90.9169 81.5153C91.0711 81.5171 91.224 81.4882 91.3666 81.4305C91.5093 81.3727 91.6389 81.2872 91.7474 81.179C91.856 81.0709 91.9413 80.9422 91.9985 80.8008C92.0558 80.6593 92.0837 80.5079 92.0806 80.3556ZM90.3533 79.6063H90.9005C91.2862 79.6063 91.497 79.7235 91.497 80.0689C91.497 80.3165 91.4247 80.4501 91.2137 80.525L91.5234 81.1081H91.2533L90.9597 80.5575H90.6073V81.1081H90.3533V79.6063ZM90.9597 80.3491C91.1608 80.3491 91.2498 80.2806 91.2498 80.0786C91.2498 79.8767 91.1345 79.8115 90.8873 79.8115H90.6005V80.3491H90.9597Z" fill="#172C4E"/>
    <path d="M93.4595 25.3028C92.9171 25.3028 92.4775 25.7423 92.4775 26.2841C92.4775 26.826 92.9171 27.2655 93.4595 27.2655H94.5131C95.0549 27.2655 95.4945 26.826 95.4945 26.2841C95.4945 25.7423 95.0549 25.3028 94.5131 25.3028H93.4595Z" fill="#172C4E"/>
    <path d="M95.0184 28.5775H91.8374V23.9756H95.0184C95.5608 23.9756 95.9998 23.536 95.9998 22.9942C95.9998 22.4524 95.5602 22.0128 95.0184 22.0128H90.9325C90.9068 22.011 90.8817 22.0092 90.8554 22.0092C90.313 22.0092 89.874 22.4487 89.874 22.9905V29.5809C89.874 30.1234 90.3136 30.5623 90.8554 30.5623C90.9246 30.5623 90.9919 30.555 91.0574 30.5415H95.0184C95.5608 30.5415 95.9998 30.1019 95.9998 29.5601C95.9998 29.0183 95.5602 28.5788 95.0184 28.5788V28.5775Z" fill="#172C4E"/>
    <path d="M11.5855 25.3028C11.0431 25.3028 10.6035 25.7423 10.6035 26.2841C10.6035 26.826 11.0431 27.2655 11.5855 27.2655H12.6391C13.1809 27.2655 13.6205 26.826 13.6205 26.2841C13.6205 25.7423 13.1809 25.3028 12.6391 25.3028H11.5855Z" fill="#172C4E"/>
    <path d="M13.1444 28.5775H9.96335V23.9756H13.1444C13.6868 23.9756 14.1257 23.536 14.1257 22.9942C14.1257 22.4524 13.6862 22.0128 13.1444 22.0128H9.05851C9.03279 22.011 9.00769 22.0092 8.98137 22.0092C8.43895 22.0092 8 22.4487 8 22.9905V29.5809C8 30.1234 8.43956 30.5623 8.98137 30.5623C9.05055 30.5623 9.11789 30.555 9.1834 30.5415H13.1444C13.6868 30.5415 14.1257 30.1019 14.1257 29.5601C14.1257 29.0183 13.6862 28.5788 13.1444 28.5788V28.5775Z" fill="#172C4E"/>
    <path d="M67.7359 25.3028C67.1935 25.3028 66.7539 25.7423 66.7539 26.2841C66.7539 26.826 67.1935 27.2655 67.7359 27.2655H68.7895C69.3313 27.2655 69.7709 26.826 69.7709 26.2841C69.7709 25.7423 69.3313 25.3028 68.7895 25.3028H67.7359Z" fill="#172C4E"/>
    <path d="M69.2938 28.5775H66.1128V23.9756H69.2938C69.8362 23.9756 70.2752 23.536 70.2752 22.9942C70.2752 22.4524 69.8356 22.0128 69.2938 22.0128H65.2079C65.1822 22.011 65.1571 22.0092 65.1308 22.0092C64.5884 22.0092 64.1494 22.4487 64.1494 22.9905V29.5809C64.1494 30.1234 64.589 30.5623 65.1308 30.5623C65.2 30.5623 65.2673 30.555 65.3328 30.5415H69.2938C69.8362 30.5415 70.2752 30.1019 70.2752 29.5601C70.2752 29.0183 69.8356 28.5788 69.2938 28.5788V28.5775Z" fill="#172C4E"/>
    <path d="M87.2203 28.5983C86.9901 28.5983 85.2214 28.5947 84.9869 28.5892C83.8042 28.4845 82.881 27.4762 82.881 26.2848C82.881 25.0935 83.8127 24.0747 85.0053 23.9786C85.2361 23.9743 87.0587 23.9713 87.2197 23.9713C87.7621 23.9713 88.2016 23.5317 88.2016 22.9899C88.2016 22.4481 87.7621 22.0085 87.2197 22.0085C87.1976 22.0085 85.0206 22.0098 84.8804 22.0202C82.6581 22.1818 80.917 24.0552 80.917 26.2854C80.917 27.3672 81.3223 28.4 82.0575 29.1928C82.7885 29.9813 83.7803 30.4625 84.8486 30.5482C85.0023 30.5605 87.1976 30.5617 87.2197 30.5617C87.7621 30.5617 88.2016 30.1221 88.2016 29.5803C88.2016 29.0385 87.7621 28.599 87.2197 28.599L87.2203 28.5983Z" fill="#172C4E"/>
    <path d="M22.1002 28.5983C21.87 28.5983 20.1013 28.5947 19.8668 28.5892C18.684 28.4845 17.7608 27.4762 17.7608 26.2848C17.7608 25.0935 18.6926 24.0747 19.8852 23.9786C20.116 23.9743 21.9385 23.9713 22.0996 23.9713C22.642 23.9713 23.0815 23.5317 23.0815 22.9899C23.0815 22.4481 22.642 22.0085 22.0996 22.0085C22.0775 22.0085 19.9005 22.0098 19.7603 22.0202C17.538 22.1818 15.7969 24.0552 15.7969 26.2854C15.7969 27.3672 16.2022 28.4 16.9374 29.1928C17.6684 29.9813 18.6602 30.4625 19.7285 30.5482C19.8821 30.5605 22.0775 30.5617 22.0996 30.5617C22.642 30.5617 23.0815 30.1221 23.0815 29.5803C23.0815 29.0385 22.642 28.599 22.0996 28.599L22.1002 28.5983Z" fill="#172C4E"/>
    <path d="M37.6638 26.0741C37.1771 25.8354 36.5888 26.0362 36.35 26.5235L35.0791 29.148C34.8403 29.6347 35.0411 30.2231 35.5284 30.4618C35.6674 30.5298 35.815 30.5622 35.9601 30.5622C36.3231 30.5622 36.6714 30.3602 36.8422 30.0125L38.1132 27.3879C38.3519 26.9012 38.1505 26.3129 37.6638 26.0741Z" fill="#172C4E"/>
    <path d="M40.117 22.5571C39.8783 22.0704 39.2899 21.8689 38.8032 22.1077C38.3165 22.3465 38.1157 22.9342 38.3545 23.4215L41.5863 30.0119C41.7571 30.3596 42.1055 30.5617 42.4685 30.5617C42.6136 30.5617 42.7612 30.5292 42.9001 30.4613C43.3868 30.2225 43.5883 29.6348 43.3495 29.1475L40.1177 22.5571H40.117Z" fill="#172C4E"/>
    <path d="M47.7932 29.1475L44.5614 22.5571C44.3226 22.0704 43.7349 21.8689 43.2476 22.1077C42.7609 22.3465 42.5601 22.9342 42.7988 23.4215L46.0307 30.0119C46.2015 30.3596 46.5498 30.5617 46.9129 30.5617C47.058 30.5617 47.2055 30.5292 47.3445 30.4613C47.8312 30.2225 48.0326 29.6348 47.7938 29.1475H47.7932Z" fill="#172C4E"/>
    <path d="M52.2498 26.0741C51.7631 25.8354 51.1747 26.0362 50.936 26.5235L49.665 29.148C49.4263 29.6347 49.6271 30.2231 50.1144 30.4618C50.2534 30.5298 50.4009 30.5622 50.546 30.5622C50.909 30.5622 51.2574 30.3602 51.4282 30.0125L52.6991 27.3879C52.9379 26.9012 52.7365 26.3129 52.2498 26.0741Z" fill="#172C4E"/>
    <path d="M54.702 22.5571C54.4632 22.0704 53.8749 21.8689 53.3882 22.1077C52.9015 22.3465 52.7007 22.9342 52.9395 23.4215L56.1713 30.0119C56.3421 30.3596 56.6904 30.5617 57.0535 30.5617C57.1986 30.5617 57.3461 30.5292 57.4851 30.4613C57.9718 30.2225 58.1732 29.6348 57.9345 29.1475L54.7026 22.5571H54.702Z" fill="#172C4E"/>
    <path d="M62.3782 29.1475L59.1463 22.5571C58.9076 22.0704 58.3199 21.8689 57.8325 22.1077C57.3458 22.3465 57.145 22.9342 57.3838 23.4215L60.6156 30.0119C60.7864 30.3596 61.1348 30.5617 61.4978 30.5617C61.6429 30.5617 61.7905 30.5292 61.9294 30.4613C62.4161 30.2225 62.6176 29.6348 62.3788 29.1475H62.3782Z" fill="#172C4E"/>
    <path d="M29.0308 22.0078C26.6726 22.0078 24.7539 23.9265 24.7539 26.2847C24.7539 28.6429 26.6726 30.5616 29.0308 30.5616C31.389 30.5616 33.3077 28.6429 33.3077 26.2847C33.3077 23.9265 31.389 22.0078 29.0308 22.0078ZM29.0308 28.5982C27.7549 28.5982 26.7173 27.5605 26.7173 26.2847C26.7173 25.0089 27.7549 23.9712 29.0308 23.9712C30.3066 23.9712 31.3443 25.0089 31.3443 26.2847C31.3443 27.5605 30.3066 28.5982 29.0308 28.5982Z" fill="#172C4E"/>
    <path d="M78.0407 28.7318L77.2069 28.2543C76.7386 27.9813 76.1374 28.1392 75.8643 28.6075C75.5913 29.0759 75.7492 29.6771 76.2176 29.9501L77.0514 30.4276C77.2589 30.5489 77.4928 30.585 77.712 30.547C77.9881 30.4993 78.2415 30.3346 78.394 30.0744C78.667 29.6061 78.5091 29.0049 78.0407 28.7318Z" fill="#172C4E"/>
    <path d="M76.6292 27.6397C78.0966 27.5331 79.2464 26.2959 79.2464 24.8235C79.2464 23.3512 78.1058 22.1255 76.65 22.0092C76.601 22.0055 75.4837 22.0025 72.937 22H72.9363C72.3945 22 71.955 22.439 71.955 22.9808C71.955 23.5232 72.3939 23.9628 72.9357 23.9634C73.8075 23.964 76.2882 23.9658 76.5171 23.9683C76.9488 24.0148 77.283 24.3864 77.283 24.8235C77.283 25.2606 76.9445 25.6365 76.5092 25.6794C76.2894 25.6812 73.8094 25.6831 72.9357 25.6837C72.4882 25.6837 72.1117 25.9843 71.9935 26.3938C71.9642 26.4869 71.9482 26.5861 71.9482 26.6895V29.5798C71.9482 30.1222 72.3878 30.5611 72.9296 30.5611C73.4714 30.5611 73.911 30.1216 73.911 29.5798V27.6464C75.7568 27.6446 76.59 27.6427 76.6286 27.6397H76.6292Z" fill="#172C4E"/>
</svg>
