<svg width="30" height="30" viewBox="0 0 30 30" fill="none" xmlns="http://www.w3.org/2000/svg">
<g id="Line 01 Up / Light / Line">
<g id="Shape">
<path d="M23.1773 10.9009L21.0381 13.8957C21.8716 14.1355 22.586 14.6565 23.072 15.3495L25.2113 12.3545C24.3777 12.1148 23.6633 11.5938 23.1773 10.9009Z" fill="#172C4E"/>
<path d="M17.3962 14.8009C16.7939 15.382 16.3855 16.1629 16.2779 17.0368L12.6028 15.1993C13.2051 14.6182 13.6135 13.8373 13.7212 12.9634L17.3962 14.8009Z" fill="#172C4E"/>
<path d="M6.92726 14.6509L4.78809 17.6457C5.6216 17.8855 6.33602 18.4065 6.82196 19.0995L8.96125 16.1045C8.12771 15.8648 7.41326 15.3438 6.92726 14.6509Z" fill="#172C4E"/>
</g>
<g id="Shape_2">
<path fill-rule="evenodd" clip-rule="evenodd" d="M30 8.75C30 10.8211 28.3211 12.5 26.25 12.5C24.1789 12.5 22.5 10.8211 22.5 8.75C22.5 6.67893 24.1789 5 26.25 5C28.3211 5 30 6.67893 30 8.75ZM27.5 8.75C27.5 9.44036 26.9404 10 26.25 10C25.5596 10 25 9.44036 25 8.75C25 8.05964 25.5596 7.5 26.25 7.5C26.9404 7.5 27.5 8.05964 27.5 8.75Z" fill="#172C4E"/>
<path fill-rule="evenodd" clip-rule="evenodd" d="M13.75 12.5C13.75 14.5711 12.0711 16.25 10 16.25C7.92893 16.25 6.25 14.5711 6.25 12.5C6.25 10.4289 7.92893 8.75 10 8.75C12.0711 8.75 13.75 10.4289 13.75 12.5ZM11.25 12.5C11.25 13.1904 10.6904 13.75 10 13.75C9.30964 13.75 8.75 13.1904 8.75 12.5C8.75 11.8096 9.30964 11.25 10 11.25C10.6904 11.25 11.25 11.8096 11.25 12.5Z" fill="#172C4E"/>
<path fill-rule="evenodd" clip-rule="evenodd" d="M7.5 21.25C7.5 23.3211 5.82107 25 3.75 25C1.67893 25 0 23.3211 0 21.25C0 19.1789 1.67893 17.5 3.75 17.5C5.82107 17.5 7.5 19.1789 7.5 21.25ZM5 21.25C5 21.9404 4.44036 22.5 3.75 22.5C3.05964 22.5 2.5 21.9404 2.5 21.25C2.5 20.5596 3.05964 20 3.75 20C4.44036 20 5 20.5596 5 21.25Z" fill="#172C4E"/>
<path fill-rule="evenodd" clip-rule="evenodd" d="M20 21.25C22.0711 21.25 23.75 19.5711 23.75 17.5C23.75 15.4289 22.0711 13.75 20 13.75C17.9289 13.75 16.25 15.4289 16.25 17.5C16.25 19.5711 17.9289 21.25 20 21.25ZM20 18.75C20.6904 18.75 21.25 18.1904 21.25 17.5C21.25 16.8096 20.6904 16.25 20 16.25C19.3096 16.25 18.75 16.8096 18.75 17.5C18.75 18.1904 19.3096 18.75 20 18.75Z" fill="#172C4E"/>
</g>
</g>
</svg>
