<svg width="294" height="44" viewBox="0 0 294 44" fill="none" xmlns="http://www.w3.org/2000/svg">
    <path d="M215.404 38.4932H216.919C217.811 38.4932 218.211 38.9235 218.211 39.8111C218.211 40.6986 217.81 41.1995 216.919 41.1995H215.764V42.6535H215.404V38.4932ZM216.919 40.8751C217.571 40.8751 217.835 40.4801 217.835 39.8094C217.835 39.1387 217.571 38.8159 216.919 38.8159H215.764V40.8751H216.919Z" fill="#6FD943"/>
    <path d="M219.864 41.1155C219.864 40.0498 220.194 39.601 221.122 39.601C222.049 39.601 222.372 40.0498 222.372 41.1155C222.372 42.2535 222.12 42.7141 221.122 42.7141C220.123 42.7141 219.864 42.2535 219.864 41.1155ZM222.007 41.1155C222.007 40.2112 221.809 39.912 221.122 39.912C220.434 39.912 220.229 40.2112 220.229 41.1155C220.229 42.0198 220.343 42.4031 221.122 42.4031C221.9 42.4031 222.007 42.0383 222.007 41.1155Z" fill="#6FD943"/>
    <path d="M223.989 39.6598H224.349L225.013 42.3426H225.097L225.882 39.7203H226.253L227.038 42.3426H227.123L227.786 39.6598H228.146L227.391 42.6535H226.781L226.069 40.1759L225.356 42.6535H224.739L223.991 39.6598H223.989Z" fill="#6FD943"/>
    <path d="M229.753 41.1693C229.753 40.0145 230.262 39.601 230.992 39.601C231.758 39.601 232.165 40.0145 232.165 41.0197L232.153 41.3004H230.118C230.118 42.0182 230.321 42.3964 230.95 42.3964C231.267 42.3964 231.763 42.3661 232.046 42.3426L232.057 42.63C231.77 42.6653 231.256 42.7141 230.914 42.7141C230.022 42.7073 229.753 42.1694 229.753 41.1693ZM231.807 41.0079C231.807 40.1994 231.555 39.9069 230.993 39.9069C230.432 39.9069 230.119 40.2129 230.113 41.0079H231.807Z" fill="#6FD943"/>
    <path d="M234.039 39.6597H234.392V40.09C234.614 39.9287 235.075 39.6833 235.518 39.5992V39.9589C235.1 40.043 234.632 40.2581 234.392 40.4027V42.6535H234.039V39.6597Z" fill="#6FD943"/>
    <path d="M236.995 41.1693C236.995 40.0145 237.504 39.601 238.234 39.601C239 39.601 239.407 40.0145 239.407 41.0197L239.395 41.3004H237.36C237.36 42.0182 237.563 42.3964 238.192 42.3964C238.51 42.3964 239.006 42.3661 239.288 42.3426L239.3 42.63C239.012 42.6653 238.498 42.7141 238.157 42.7141C237.264 42.7073 236.995 42.1694 236.995 41.1693ZM239.049 41.0079C239.049 40.1994 238.797 39.9069 238.236 39.9069C237.674 39.9069 237.362 40.2129 237.355 41.0079H239.049Z" fill="#6FD943"/>
    <path d="M241.15 41.193C241.15 40.1458 241.468 39.6012 242.408 39.6012C242.66 39.6012 243.006 39.6499 243.162 39.6785V38.3253H243.515V42.6537H243.168V42.4318C242.964 42.5512 242.557 42.7126 242.204 42.7126C241.707 42.7126 241.15 42.5445 241.15 41.1913V41.193ZM243.162 42.1326V39.9827C243.013 39.9592 242.648 39.9172 242.426 39.9172C241.708 39.9172 241.517 40.366 241.517 41.193C241.517 42.252 241.893 42.3898 242.241 42.3898C242.589 42.3898 242.966 42.2402 243.162 42.1326Z" fill="#6FD943"/>
    <path d="M247.914 38.4932H249.387C250.195 38.4932 250.614 38.8159 250.614 39.5404C250.614 40.0968 250.398 40.3675 250.062 40.5103C250.427 40.6246 250.751 40.8751 250.751 41.4987C250.751 42.3846 250.249 42.6535 249.482 42.6535H247.914V38.4932ZM249.429 40.3725C250.003 40.3725 250.242 40.1035 250.242 39.564C250.242 39.0244 249.961 38.8159 249.375 38.8159H248.274V40.3725H249.429ZM249.471 42.3308C250.015 42.3308 250.38 42.1459 250.38 41.487C250.38 40.7625 249.745 40.6969 249.434 40.6969H248.272V42.3308H249.469H249.471Z" fill="#6FD943"/>
    <path d="M253.649 42.6535H253.235L252.35 39.6598H252.709L253.511 42.3426H253.726L254.535 39.6598H254.895L253.602 44H253.242L253.649 42.6535Z" fill="#6FD943"/>
    <path d="M203.873 39.6833H1.42207C0.637073 39.6833 0 40.3607 0 41.1978C0 42.0349 0.637073 42.7123 1.42207 42.7123H203.873C204.658 42.7123 205.295 42.0349 205.295 41.1978C205.295 40.3607 204.658 39.6833 203.873 39.6833Z" fill="white"/>
    <path d="M283.333 40.9979C283.659 40.9979 283.923 40.734 283.923 40.4079V39.9574C283.923 39.6313 283.659 39.3674 283.333 39.3674C283.007 39.3674 282.743 39.6313 282.743 39.9574V40.4079C282.743 40.734 283.007 40.9979 283.333 40.9979Z" fill="white"/>
    <path d="M286.457 38.4125C286.017 37.9385 285.422 37.6494 284.778 37.5973C284.686 37.5906 283.366 37.5889 283.353 37.5889C283.027 37.5889 282.763 37.8528 282.763 38.1789C282.763 38.505 283.027 38.7689 283.353 38.7689C283.491 38.7689 284.555 38.7706 284.696 38.7739C285.407 38.8361 285.963 39.4429 285.963 40.159C285.963 40.8751 285.403 41.4886 284.686 41.5458C284.546 41.5492 283.45 41.5508 283.354 41.5508C283.028 41.5508 282.764 41.8147 282.764 42.1408C282.764 42.4669 283.028 42.7309 283.354 42.7309C283.368 42.7309 284.677 42.7309 284.761 42.7241C286.098 42.6266 287.145 41.5004 287.145 40.159C287.145 39.5085 286.901 38.8866 286.459 38.4109L286.457 38.4125Z" fill="white"/>
    <path d="M281.451 41.6216L280.095 40.6416C279.821 40.4651 279.456 40.5441 279.278 40.8181C279.101 41.0921 279.18 41.4569 279.454 41.6334L280.811 42.6134C280.91 42.6772 281.021 42.7075 281.13 42.7075C281.323 42.7075 281.513 42.6117 281.626 42.4369C281.802 42.1629 281.723 41.7981 281.449 41.6216H281.451Z" fill="#6FD943"/>
    <path d="M281.452 38.7C281.726 38.5235 281.805 38.1587 281.628 37.8847C281.452 37.6107 281.085 37.5317 280.811 37.7082L278.708 39.0647V38.1789C278.708 37.8528 278.444 37.5889 278.118 37.5889C277.792 37.5889 277.528 37.8528 277.528 38.1789V42.1425C277.528 42.4686 277.792 42.7325 278.118 42.7325C278.444 42.7325 278.708 42.4686 278.708 42.1425V40.47L281.452 38.7Z" fill="#6FD943"/>
    <path d="M264.603 37.6494C264.519 37.6091 264.432 37.5889 264.344 37.5889C264.126 37.5889 263.916 37.7099 263.813 37.92L263.048 39.4984C262.905 39.7909 263.026 40.1456 263.319 40.2885C263.611 40.4313 263.966 40.3103 264.109 40.0178L264.874 38.4394C265.017 38.147 264.896 37.7923 264.603 37.6494Z" fill="#6FD943"/>
    <path d="M260.96 37.9184C260.858 37.71 260.648 37.5873 260.429 37.5873C260.342 37.5873 260.253 37.6075 260.17 37.6478C259.878 37.7907 259.757 38.1454 259.9 38.4378L261.843 42.4015C261.986 42.694 262.341 42.815 262.633 42.6721C262.926 42.5292 263.047 42.1745 262.904 41.8821L260.96 37.9184Z" fill="#6FD943"/>
    <path d="M258.287 37.9184C258.184 37.71 257.974 37.5873 257.756 37.5873C257.668 37.5873 257.579 37.6075 257.497 37.6478C257.204 37.7907 257.083 38.1454 257.226 38.4378L259.169 42.4015C259.312 42.694 259.667 42.815 259.959 42.6721C260.252 42.5292 260.373 42.1745 260.23 41.8821L258.287 37.9184Z" fill="#6FD943"/>
    <path d="M268.525 37.5889C267.106 37.5889 265.953 38.742 265.953 40.1607C265.953 41.5794 267.106 42.7325 268.525 42.7325C269.944 42.7325 271.097 41.5794 271.097 40.1607C271.097 38.742 269.944 37.5889 268.525 37.5889ZM268.525 41.5525C267.758 41.5525 267.133 40.9289 267.133 40.1607C267.133 39.3925 267.757 38.7689 268.525 38.7689C269.293 38.7689 269.917 39.3925 269.917 40.1607C269.917 40.9289 269.293 41.5525 268.525 41.5525Z" fill="#6FD943"/>
    <path d="M290.736 37.5889C289.317 37.5889 288.164 38.742 288.164 40.1607C288.164 41.5794 289.317 42.7325 290.736 42.7325C292.155 42.7325 293.308 41.5794 293.308 40.1607C293.308 38.742 292.155 37.5889 290.736 37.5889ZM290.736 41.5525C289.969 41.5525 289.344 40.9289 289.344 40.1607C289.344 39.3925 289.968 38.7689 290.736 38.7689C291.504 38.7689 292.128 39.3925 292.128 40.1607C292.128 40.9289 291.504 41.5525 290.736 41.5525Z" fill="white"/>
    <path d="M275.784 41.6313L275.283 41.3438C275.001 41.1791 274.639 41.2749 274.476 41.5556C274.313 41.8363 274.408 42.1994 274.688 42.3625L275.189 42.6499C275.314 42.7222 275.455 42.744 275.586 42.7222C275.752 42.6936 275.904 42.5944 275.996 42.4381C276.161 42.1557 276.065 41.7943 275.784 41.6313Z" fill="#6FD943"/>
    <path d="M274.934 40.976C275.816 40.9121 276.507 40.1674 276.507 39.2833C276.507 38.3991 275.822 37.6612 274.946 37.5906C274.916 37.5889 274.245 37.5855 272.713 37.5855C272.387 37.5855 272.123 37.8494 272.123 38.1755C272.123 38.5016 272.387 38.7655 272.713 38.7655C273.238 38.7655 274.729 38.7655 274.867 38.7689C275.126 38.7975 275.327 39.021 275.327 39.2833C275.327 39.5455 275.124 39.7724 274.862 39.7976C274.729 39.7976 273.238 39.7993 272.713 39.7993C272.445 39.7993 272.218 39.9792 272.147 40.2263C272.129 40.2817 272.12 40.3422 272.12 40.4044V42.1425C272.12 42.4686 272.384 42.7325 272.71 42.7325C273.036 42.7325 273.3 42.4686 273.3 42.1425V40.9793C274.41 40.9793 274.91 40.9776 274.934 40.976Z" fill="#6FD943"/>
    <path d="M291.008 35.2018C291.008 34.4437 291.579 33.847 292.361 33.847C293.143 33.847 293.714 34.4538 293.714 35.2018C293.714 35.9498 293.153 36.5566 292.361 36.5566C291.569 36.5566 291.008 35.9549 291.008 35.2018ZM293.511 35.2018C293.511 34.5647 293.022 34.0369 292.361 34.0369C291.7 34.0369 291.211 34.5647 291.211 35.2018C291.211 35.8389 291.7 36.3617 292.361 36.3617C293.022 36.3617 293.511 35.8439 293.511 35.2018ZM291.805 34.4538H292.346C292.726 34.4538 292.934 34.5698 292.934 34.9161C292.934 35.1615 292.86 35.2976 292.653 35.3733L292.961 35.9566H292.695L292.405 35.4035H292.057V35.9566H291.806V34.4555L291.805 34.4538ZM292.403 35.1968C292.601 35.1968 292.689 35.1262 292.689 34.9261C292.689 34.7261 292.574 34.6606 292.329 34.6606H292.048V35.1985H292.401L292.403 35.1968Z" fill="#6FD943"/>
    <path d="M252.115 10.7694C252.564 10.7694 252.969 10.4786 253.09 10.0466C253.793 7.55041 255.99 5.64422 258.676 5.42738C259.309 5.41394 264.309 5.40721 264.751 5.40721C266.238 5.40721 267.443 4.20199 267.443 2.71437C267.443 1.22675 266.238 0.0215149 264.751 0.0215149C264.692 0.0215149 258.718 0.0248755 258.334 0.0517704C252.989 0.440065 248.666 4.439 247.679 9.54231C247.556 10.1777 248.047 10.7694 248.694 10.7694H252.115Z" fill="white"/>
    <path d="M264.299 9.11227C263.02 9.35768 262.139 10.5511 262.139 11.8539V18.0952C260.631 18.0901 258.98 18.0834 258.624 18.0767C256.256 17.8665 254.27 16.3335 253.37 14.2509C253.211 13.8878 252.833 13.6693 252.437 13.6693H248.913C248.234 13.6693 247.732 14.3198 247.917 14.9737C248.416 16.7319 249.318 18.3624 250.588 19.7307C252.593 21.8941 255.313 23.2136 258.244 23.4489C258.666 23.4825 264.689 23.4876 264.748 23.4876C265.787 23.4876 266.688 22.8976 267.136 22.0353C267.38 21.6302 267.523 21.1578 267.523 20.6502V11.7547C267.523 10.0922 266.019 8.7828 264.297 9.11227H264.299Z" fill="white"/>
    <path d="M281.971 0.0215149C275.496 0.0215149 270.228 5.28955 270.228 11.7645C270.228 18.2394 275.496 23.5075 281.971 23.5075C288.445 23.5075 293.713 18.2394 293.713 11.7645C293.713 5.28955 288.445 0.0215149 281.971 0.0215149ZM281.971 18.1167C278.467 18.1167 275.618 15.2676 275.618 11.7645C275.618 8.26143 278.467 5.41226 281.971 5.41226C285.474 5.41226 288.323 8.26143 288.323 11.7645C288.323 15.2676 285.474 18.1167 281.971 18.1167Z" fill="white"/>
    <path d="M235.357 9.06844C233.868 9.06844 232.661 10.2753 232.661 11.763C232.661 13.2506 233.868 14.4575 235.357 14.4575H238.25C239.738 14.4575 240.945 13.2506 240.945 11.763C240.945 10.2753 239.738 9.06844 238.25 9.06844H235.357Z" fill="#6FD943"/>
    <path d="M239.638 18.0599H230.903V5.42439H239.638C241.127 5.42439 242.332 4.21748 242.332 2.72986C242.332 1.24223 241.125 0.0353289 239.638 0.0353289H228.419C228.348 0.0302861 228.28 0.0252438 228.207 0.0252438C226.718 0.0252438 225.513 1.23215 225.513 2.71977V20.815C225.513 22.3043 226.72 23.5095 228.207 23.5095C228.397 23.5095 228.582 23.4894 228.762 23.4524H239.638C241.127 23.4524 242.332 22.2455 242.332 20.7578C242.332 19.2702 241.125 18.0633 239.638 18.0633V18.0599Z" fill="#6FD943"/>
    <path d="M10.5556 9.06844C9.06628 9.06844 7.85938 10.2753 7.85938 11.763C7.85938 13.2506 9.06628 14.4575 10.5556 14.4575H13.4485C14.9361 14.4575 16.143 13.2506 16.143 11.763C16.143 10.2753 14.9361 9.06844 13.4485 9.06844H10.5556Z" fill="#6FD943"/>
    <path d="M14.8348 18.0599H6.1007V5.42439H14.8348C16.3241 5.42439 17.5294 4.21748 17.5294 2.72986C17.5294 1.24223 16.3224 0.0353289 14.8348 0.0353289H3.61629C3.54569 0.0302861 3.47677 0.0252438 3.40449 0.0252438C1.91519 0.0252438 0.709961 1.23215 0.709961 2.71977V20.815C0.709961 22.3043 1.91687 23.5095 3.40449 23.5095C3.59444 23.5095 3.77934 23.4894 3.9592 23.4524H14.8348C16.3241 23.4524 17.5294 22.2455 17.5294 20.7578C17.5294 19.2702 16.3224 18.0633 14.8348 18.0633V18.0599Z" fill="#6FD943"/>
    <path d="M164.728 9.06844C163.239 9.06844 162.032 10.2753 162.032 11.763C162.032 13.2506 163.239 14.4575 164.728 14.4575H167.621C169.109 14.4575 170.316 13.2506 170.316 11.763C170.316 10.2753 169.109 9.06844 167.621 9.06844H164.728Z" fill="#6FD943"/>
    <path d="M169.006 18.0599H160.272V5.42439H169.006C170.495 5.42439 171.7 4.21748 171.7 2.72986C171.7 1.24223 170.493 0.0353289 169.006 0.0353289H157.787C157.717 0.0302861 157.648 0.0252438 157.575 0.0252438C156.086 0.0252438 154.881 1.23215 154.881 2.71977V20.815C154.881 22.3043 156.088 23.5095 157.575 23.5095C157.765 23.5095 157.95 23.4894 158.13 23.4524H169.006C170.495 23.4524 171.7 22.2455 171.7 20.7578C171.7 19.2702 170.493 18.0633 169.006 18.0633V18.0599Z" fill="#6FD943"/>
    <path d="M218.226 18.117C217.594 18.117 212.738 18.1069 212.094 18.0918C208.846 17.8044 206.311 15.0359 206.311 11.7648C206.311 8.49368 208.87 5.69661 212.144 5.4327C212.778 5.42094 217.782 5.41253 218.224 5.41253C219.713 5.41253 220.92 4.20562 220.92 2.718C220.92 1.23037 219.713 0.0234699 218.224 0.0234699C218.164 0.0234699 212.186 0.0268322 211.801 0.055408C205.7 0.499174 200.919 5.64282 200.919 11.7664C200.919 14.7367 202.032 17.5724 204.051 19.7492C206.058 21.9142 208.781 23.2354 211.714 23.4708C212.136 23.5044 218.164 23.5077 218.224 23.5077C219.713 23.5077 220.92 22.3008 220.92 20.8132C220.92 19.3256 219.713 18.1187 218.224 18.1187L218.226 18.117Z" fill="#6FD943"/>
    <path d="M39.426 18.117C38.794 18.117 33.9378 18.1069 33.294 18.0918C30.0464 17.8044 27.5116 15.0359 27.5116 11.7648C27.5116 8.49368 30.0699 5.69661 33.3444 5.4327C33.9781 5.42094 38.9822 5.41253 39.4243 5.41253C40.9136 5.41253 42.1205 4.20562 42.1205 2.718C42.1205 1.23037 40.9136 0.0234699 39.4243 0.0234699C39.3638 0.0234699 33.3864 0.0268322 33.0015 0.055408C26.8997 0.499174 22.1191 5.64282 22.1191 11.7664C22.1191 14.7367 23.2319 17.5724 25.2507 19.7492C27.2577 21.9142 29.9809 23.2354 32.9141 23.4708C33.336 23.5044 39.3638 23.5077 39.4243 23.5077C40.9136 23.5077 42.1205 22.3008 42.1205 20.8132C42.1205 19.3256 40.9136 18.1187 39.4243 18.1187L39.426 18.117Z" fill="#6FD943"/>
    <path d="M82.1601 11.1863C80.8238 10.5308 79.2084 11.0821 78.5529 12.4202L75.0633 19.6263C74.4077 20.9626 74.959 22.578 76.2971 23.2336C76.6786 23.4202 77.0837 23.5092 77.4821 23.5092C78.4789 23.5092 79.4354 22.9545 79.9043 21.9998L83.3939 14.7936C84.0495 13.4573 83.4965 11.8419 82.1601 11.1863Z" fill="#6FD943"/>
    <path d="M88.8949 1.52957C88.2393 0.19323 86.6239 -0.35979 85.2876 0.295772C83.9513 0.951335 83.3999 2.56502 84.0555 3.90304L92.9291 21.9983C93.3981 22.953 94.3545 23.5077 95.3513 23.5077C95.7497 23.5077 96.1548 23.4187 96.5364 23.2321C97.8727 22.5765 98.4258 20.9628 97.7702 19.6248L88.8966 1.52957H88.8949Z" fill="#6FD943"/>
    <path d="M109.969 19.6248L101.095 1.52957C100.44 0.19323 98.8258 -0.35979 97.4878 0.295772C96.1515 0.951335 95.6001 2.56502 96.2557 3.90304L105.129 21.9983C105.598 22.953 106.555 23.5077 107.552 23.5077C107.95 23.5077 108.355 23.4187 108.737 23.2321C110.073 22.5765 110.626 20.9628 109.97 19.6248H109.969Z" fill="#6FD943"/>
    <path d="M122.207 11.1863C120.871 10.5308 119.255 11.0821 118.6 12.4202L115.11 19.6263C114.455 20.9626 115.006 22.578 116.344 23.2336C116.726 23.4202 117.131 23.5092 117.529 23.5092C118.526 23.5092 119.482 22.9545 119.951 21.9998L123.441 14.7936C124.096 13.4573 123.543 11.8419 122.207 11.1863Z" fill="#6FD943"/>
    <path d="M128.941 1.52957C128.285 0.19323 126.67 -0.35979 125.334 0.295772C123.997 0.951335 123.446 2.56502 124.101 3.90304L132.975 21.9983C133.444 22.953 134.4 23.5077 135.397 23.5077C135.796 23.5077 136.201 23.4187 136.582 23.2321C137.919 22.5765 138.472 20.9628 137.816 19.6248L128.942 1.52957H128.941Z" fill="#6FD943"/>
    <path d="M150.015 19.6248L141.141 1.52957C140.485 0.19323 138.872 -0.35979 137.534 0.295772C136.197 0.951335 135.646 2.56502 136.302 3.90304L145.175 21.9983C145.644 22.953 146.601 23.5077 147.597 23.5077C147.996 23.5077 148.401 23.4187 148.782 23.2321C150.119 22.5765 150.672 20.9628 150.016 19.6248H150.015Z" fill="#6FD943"/>
    <path d="M58.4549 0.0215149C51.9799 0.0215149 46.7119 5.28955 46.7119 11.7645C46.7119 18.2394 51.9799 23.5075 58.4549 23.5075C64.9298 23.5075 70.1979 18.2394 70.1979 11.7645C70.1979 5.28955 64.9298 0.0215149 58.4549 0.0215149ZM58.4549 18.1167C54.9518 18.1167 52.1027 15.2676 52.1027 11.7645C52.1027 8.26143 54.9518 5.41226 58.4549 5.41226C61.958 5.41226 64.8071 8.26143 64.8071 11.7645C64.8071 15.2676 61.958 18.1167 58.4549 18.1167Z" fill="#6FD943"/>
    <path d="M193.021 18.4836L190.732 17.1724C189.446 16.4227 187.795 16.8564 187.045 18.1423C186.296 19.4283 186.729 21.0789 188.015 21.8286L190.305 23.1397C190.874 23.4726 191.517 23.5717 192.118 23.4675C192.876 23.3364 193.572 22.8843 193.991 22.1699C194.741 20.8839 194.307 19.2333 193.021 18.4836Z" fill="#6FD943"/>
    <path d="M189.145 15.4847C193.175 15.1922 196.331 11.7951 196.331 7.75245C196.331 3.70981 193.2 0.344595 189.203 0.0252181C189.068 0.0151325 186 0.00672372 179.008 0H179.006C177.518 0 176.311 1.20523 176.311 2.69285C176.311 4.18216 177.517 5.38906 179.004 5.39075C181.398 5.39243 188.209 5.39747 188.838 5.4042C190.023 5.53195 190.941 6.55227 190.941 7.75245C190.941 8.95264 190.011 9.98472 188.816 10.1024C188.212 10.1074 181.403 10.1125 179.004 10.1142C177.776 10.1142 176.742 10.9395 176.417 12.064C176.337 12.3195 176.293 12.5918 176.293 12.8759V20.8116C176.293 22.3009 177.5 23.5061 178.988 23.5061C180.475 23.5061 181.682 22.2992 181.682 20.8116V15.5032C186.75 15.4982 189.038 15.4931 189.144 15.4847H189.145Z" fill="#6FD943"/>
</svg>
