<!--?xml version="1.0" encoding="utf-8"?-->
<!-- Svg Vector Icons : http://www.onlinewebfonts.com/icon -->

<svg version="1.1" xmlns="http://www.w3.org/2000/svg" xmlns:xlink="http://www.w3.org/1999/xlink" x="0px" y="0px" viewBox="0 0 256 256" enable-background="new 0 0 256 256" xml:space="preserve">
<metadata> Svg Vector Icons : http://www.onlinewebfonts.com/icon </metadata>
<g><g><path fill="#162C4E" data-title="Layer 0" xs="0" d="M196.6,177.4c-10.2,0-18.5,7.9-18.5,17.6s8.3,17.6,18.5,17.6s18.5-7.9,18.5-17.6C215.1,185.3,206.8,177.4,196.6,177.4L196.6,177.4z M196.6,203.8c-5.1,0-9.3-4-9.3-8.8s4.2-8.8,9.3-8.8c5.1,0,9.3,4,9.3,8.8S201.7,203.8,196.6,203.8L196.6,203.8z M232.9,185.4c-0.8-2.9-2-5.6-3.6-8.1c1.7-2.2,7.7-10.5,3.4-14.6l-2.2-2.2c-3.7-3.5-13.1,2-15.3,3.4c-2.7-1.4-5.6-2.6-8.7-3.4c-0.5-2.8-2.6-12.5-8.7-12.5h-2.4c-5.2,0-8.2,10-8.8,12.5c-3,0.8-5.9,2-8.5,3.4c-2.1-1.5-11.1-7.4-15.5-3.2l-2.3,1.9c-3.8,3.6,2.5,13.2,3.7,14.9c-1.5,2.5-2.6,5.2-3.5,8c-2.5,0.4-13.4,2.4-13.4,8.3v2.3c0,5.1,11.4,8,13.4,8.5c0.8,2.8,2,5.4,3.5,7.9c-1.2,1.8-7.3,11.4-3.5,15l2.2,1.7c5,4.7,15.4-3,15.4-3l-0.5-0.5c2.8,1.5,5.8,2.8,8.9,3.6c0.5,2,3.5,12.7,8.9,12.7h2.4c7.1,0,8.8-12.5,8.8-12.5l-0.7,0c3.2-0.8,6.2-2,9.1-3.4c2.2,1.4,11.4,6.9,15.1,3.4l2.5-2.3c4.9-4.7-3.1-14.2-3.3-14.5c1.5-2.5,2.7-5.2,3.6-8.1c2.7-0.7,13.1-3.5,13.1-8.4v-2.2C246,187.3,233.7,185.5,232.9,185.4L232.9,185.4z M196.6,221.4c-15.4,0-27.8-11.8-27.8-26.4s12.4-26.4,27.8-26.4s27.8,11.8,27.8,26.4C224.4,209.6,211.9,221.4,196.6,221.4L196.6,221.4z M41.4,210.3c-2.6,0-4.6-2-4.6-4.6v-45.8c0-4.4-3.5-8-7.8-8.2c-4.4,0.2-7.8,3.8-7.8,8.2v47.2c0,11.6,9.4,21,21,21h107.5c0.1-5,4.5-11.8,5.5-13.4c-0.9-1.4-1.6-2.9-2.3-4.5L41.4,210.3L41.4,210.3z M33.9,136.6c6.1,3.3,13.2,4.9,21.2,4.9c13.5,0,25.9-6,34.4-16.1c8.5,10.1,20.8,15.9,34.2,16c13.3-0.1,25.6-6,34.1-16.1c8.5,10.1,21,16,34.5,16c8.2,0,15.5-1.8,21.6-5.1c14.5-7.9,23.5-23.2,23.5-39.7c0-4.8-0.7-9.5-2.2-13.9l-0.1-0.3c-0.1-0.5-0.2-0.9-0.4-1.4l-19.2-46.6c-3.3-9.9-12.9-20.3-24.1-20.3H56.5c-11.3,0-20.1,10.3-23.3,19.8L12.6,81.4c-0.1,0.3-0.2,0.7-0.3,1.2c-1.5,4.6-2.3,9.4-2.3,14.1C10,113.4,19.2,128.7,33.9,136.6L33.9,136.6z M63.9,67.6h120.2c4.6,0,7.8,3.3,7.8,7.9c0,4.6-3.2,10-7.8,10H63.9c-4.6,0-9.1-4.5-9.1-9C54.9,71.9,59.4,67.6,63.9,67.6L63.9,67.6z M214,148.2c0.1,0,0.3,0,0.4,0h-0.8C213.8,148.2,213.9,148.2,214,148.2L214,148.2z M28.5,151.7c0.1,0,0.3,0,0.4,0c0.1,0,0.2,0,0.4,0H28.5L28.5,151.7z"/></g></g>
</svg>