<svg width="213" height="92" viewBox="0 0 213 92" fill="none" xmlns="http://www.w3.org/2000/svg">
<rect width="99.9142" height="63.3545" transform="matrix(-1 0 0 1 132.332 23.2289)" fill="#E2ECF9"/>
<rect width="99.9142" height="63.3545" transform="matrix(-1 0 0 1 128.861 26.0527)" stroke="#A8B7E2" stroke-width="0.882375"/>
<path d="M32.4471 38.5231C82.7424 32.3465 114.949 50.6999 132.361 65.8179V86.5537H32.4471V38.5231Z" fill="#C7D8EA"/>
<rect width="42.854" height="34.9715" transform="matrix(-1 0 0 1 162.921 56.2298)" fill="#6FD943"/>
<rect width="39.0892" height="30.5596" transform="matrix(-1 0 0 1 161.009 58.4357)" stroke="#172C4E" stroke-width="0.294125"/>
<path d="M161.009 58.4357L121.949 87.907" stroke="#172C4E" stroke-width="0.294125"/>
<path d="M121.949 58.4357L161.009 88.9953" stroke="#172C4E" stroke-width="0.294125"/>
<path d="M101.685 86.5541H32.4181L38.683 54.4356C40.6536 44.3471 50.8009 38.0529 60.713 40.7588L83.6253 47.0237C90.0372 48.7884 94.9197 53.9944 96.2727 60.524L101.685 86.5541Z" fill="#6FD943"/>
<path d="M101.685 86.554L109.979 64.5829L119.421 69.3183L116.833 86.554H101.685Z" fill="#6FD943"/>
<path d="M109.979 64.583L112.126 57.8181C112.862 55.5534 114.685 53.818 117.009 53.2886L122.627 51.9356C124.156 51.5533 125.774 52.0533 126.862 53.1709L130.333 56.7887C130.774 57.2593 130.656 58.024 130.068 58.2887C127.891 59.377 125.274 59.0829 123.391 57.5534L121.538 56.0534L121.832 57.1416C122.715 60.377 122.303 63.8477 120.744 66.8183L119.421 69.289L109.979 64.583Z" fill="#FFA79B"/>
<path d="M78.8308 51.7589C79.2425 54.053 78.2425 56.4649 76.1542 57.612C73.9777 58.7885 71.4776 58.2884 69.6541 56.7002C67.5952 54.8766 66.1246 52.2295 65.3598 49.6118C65.0657 48.6117 63.7422 44.3175 65.6834 44.1704C65.9775 44.141 65.9775 44.5822 65.6834 44.6116C64.2128 44.7293 65.9481 50.0824 66.2422 50.8765C66.9775 52.7589 68.0952 54.6119 69.5658 56.0237C71.1247 57.5531 73.2424 58.2884 75.3601 57.4649C77.5954 56.5825 78.8014 54.2001 78.3896 51.8765C78.3602 51.6118 78.7719 51.4942 78.8308 51.7589Z" fill="#172C4E"/>
<path d="M64.0368 46.2589C60.8897 45.0235 57.5661 44.3765 54.1837 44.347C53.8895 44.347 53.8895 43.9059 54.1837 43.9059C57.5955 43.9353 60.9485 44.5823 64.1545 45.8471C64.4192 45.9353 64.3016 46.3471 64.0368 46.2589Z" fill="#172C4E"/>
<path d="M51.6538 41.6412C55.801 43.906 57.301 48.7002 57.4481 53.1709C57.5363 56.0533 57.1833 58.9357 56.948 61.7887C56.6833 64.8771 56.448 67.9654 56.1833 71.0243C56.1539 71.3184 55.7127 71.3184 55.7421 71.0243C56.1833 65.6418 56.8598 60.2299 56.9775 54.818C57.0951 49.9943 56.0068 44.4942 51.4185 41.9941C51.1832 41.8765 51.3891 41.4941 51.6538 41.6412Z" fill="#172C4E"/>
<path d="M89.8317 50.5824C91.5082 53.0531 91.567 56.0826 90.9494 58.9062C90.2435 62.1709 88.9493 65.3475 87.5375 68.3476C87.4199 68.6123 87.0375 68.377 87.1552 68.1123C88.4493 65.3769 89.5964 62.4945 90.3317 59.5826C91.0964 56.612 91.2141 53.4354 89.4493 50.7883C89.3023 50.5824 89.6846 50.3471 89.8317 50.5824Z" fill="#172C4E"/>
<path d="M87.2725 68.5243C87.6548 74.2598 88.2725 79.9658 89.1255 85.613C89.1549 85.8777 88.7431 86.0247 88.7137 85.7306C87.8607 80.0246 87.2136 74.2892 86.8313 68.5243C86.8019 68.2302 87.2431 68.2596 87.2725 68.5243Z" fill="#172C4E"/>
<path d="M89.0964 52.3473C86.3316 51.2296 83.4492 50.5825 80.4786 50.406C80.1844 50.3766 80.1844 49.9354 80.4786 49.9648C83.4786 50.1413 86.4199 50.7884 89.2141 51.9355C89.4788 52.0237 89.3611 52.4355 89.0964 52.3473Z" fill="#172C4E"/>
<path d="M116.832 71.789C114.773 70.6125 112.744 69.436 110.685 68.2889C110.45 68.1418 110.656 67.7594 110.92 67.9065C112.979 69.083 115.009 70.2595 117.068 71.4066C117.303 71.5537 117.068 71.936 116.832 71.789Z" fill="#172C4E"/>
<path d="M96.6548 32.4353C96.6548 32.4353 100.92 36.4648 104.684 31.4941C108.479 26.5234 102.567 24.1704 102.567 24.1704C102.567 24.1704 105.626 20.1409 103.273 17.082C100.92 14.0231 97.1254 16.3761 97.1254 16.3761C97.1254 16.3761 95.9489 12.3466 91.2135 11.4054C86.4781 10.4642 84.831 13.5231 84.831 13.5231C84.831 13.5231 81.7721 9.02299 77.5073 10.6995C73.2425 12.3466 73.9484 16.6114 73.9484 16.6114C73.9484 16.6114 70.1541 14.729 68.0364 18.2585C65.9187 21.8174 68.9776 25.5822 68.9776 25.5822C68.9776 25.5822 64.7128 29.3764 67.5658 33.1412C70.3894 36.9354 75.3601 34.3177 75.3601 34.3177L96.6548 32.4353Z" fill="#1F3B6A"/>
<path d="M99.5957 31.1411L92.1249 43.2297C90.0955 46.4945 85.0365 46.7592 81.6541 44.8768L80.0952 43.9944L77.5069 53.6711C77.5069 53.6711 75.3892 57.23 72.0656 56.0241C68.742 54.8182 66.6243 46.0827 66.6243 46.0827L75.5951 31.2L74.7127 30.3764C73.1833 28.9646 72.9774 26.6116 74.2421 24.9645C75.7422 22.9645 78.6246 22.6115 80.5658 24.1998C81.7423 25.1704 82.4482 26.641 82.4482 28.1705C82.4482 28.494 82.86 28.6117 83.0365 28.347L86.4483 22.9056C86.4483 22.9056 85.9777 26.6999 88.566 26.9352C90.3308 27.0822 91.9779 25.9645 92.8602 25.1998C93.0073 25.0822 93.2426 25.2292 93.1544 25.4057C92.7132 26.5528 92.2132 28.6117 93.5367 29.7588C95.478 31.4941 99.5957 31.1411 99.5957 31.1411Z" fill="#FFA79B"/>
<path d="M94.5071 32.7002C93.8601 34.0532 93.4777 35.5533 93.1836 37.0239C93.0071 37.9357 93.1248 39.171 92.7424 40.024C91.9188 41.8769 89.2423 40.3769 88.0952 39.7298C87.8599 39.5828 88.0658 39.2004 88.3305 39.3475C89.0658 39.7592 89.86 40.1416 90.6541 40.3769C91.6247 40.671 92.2718 40.2004 92.4483 39.2004C92.5071 38.8769 92.5071 38.5533 92.5365 38.2298C92.8012 36.2886 93.2424 34.2885 94.0954 32.4944C94.2424 32.2296 94.6248 32.4649 94.5071 32.7002Z" fill="#1F3B6A"/>
<path d="M86.5364 41.7002C84.6834 40.5531 82.9775 39.259 81.3598 37.8178C81.4774 37.7884 81.5951 37.759 81.7421 37.7295C81.3598 39.4061 80.8892 41.7002 82.6245 42.8473C82.8598 42.9944 82.6539 43.3767 82.3892 43.2297C80.4774 41.9944 80.8598 39.5531 81.301 37.6119C81.3304 37.4354 81.5657 37.406 81.6833 37.5237C83.2716 38.9649 84.9481 40.2296 86.7717 41.3473C87.007 41.4649 86.7717 41.8473 86.5364 41.7002Z" fill="#1F3B6A"/>
<path d="M75.566 25.7292C76.7425 24.1998 79.0955 24.4056 80.0367 26.1116C81.0368 27.9646 79.8014 29.994 77.919 30.494C77.7131 30.5529 77.5955 30.347 77.6837 30.1705C77.8602 29.8764 77.9779 29.5528 78.0367 29.1999C78.272 28.5528 77.919 28.0822 76.9778 27.8175C76.7131 27.8763 76.5955 27.4645 76.8602 27.4057C77.4484 27.2587 78.0073 27.494 78.3308 28.0234C78.8014 28.7881 78.419 29.6705 78.0661 30.4058C77.9779 30.2881 77.8896 30.1999 77.8308 30.0823C79.4191 29.6411 80.4779 28.0234 79.7132 26.4645C78.9779 24.9057 76.9484 24.7292 75.919 26.0822C75.7131 26.288 75.3896 25.9645 75.566 25.7292Z" fill="#1F3B6A"/>
<path d="M79.8891 43.8767C77.7714 42.6414 76.3596 40.5825 76.0066 38.1707C75.9772 37.906 76.389 37.7589 76.4184 38.053C76.7714 40.3766 78.0655 42.3178 80.095 43.4943C80.3597 43.6414 80.1244 44.0238 79.8891 43.8767Z" fill="#1F3B6A"/>
<ellipse cx="3.67663" cy="4.91198" rx="3.67663" ry="4.91198" transform="matrix(-0.925482 -0.378792 -0.378792 0.925482 94.7656 29.7452)" stroke="#1F3B6A" stroke-width="0.882392"/>
<ellipse cx="2.14716" cy="4.88259" rx="2.14716" ry="4.88259" transform="matrix(-0.903878 -0.42779 -0.42779 0.903878 100.325 33.1573)" stroke="#1F3B6A" stroke-width="0.882396"/>
<path d="M87.6846 29.1414L83.008 26.759" stroke="#1F3B6A" stroke-width="0.882375"/>
<path d="M34.5945 31.3464H18.6823C18.0941 31.3464 17.6235 30.8758 17.6235 30.2875V30.1993C17.6235 29.611 18.0941 29.1404 18.6823 29.1404H34.5945C35.1827 29.1404 35.6533 29.611 35.6533 30.1993V30.2875C35.6239 30.8464 35.1533 31.3464 34.5945 31.3464Z" fill="#687CCD"/>
<path d="M41.7417 35.4347H18.7411C18.1235 35.4347 17.6235 34.9347 17.6235 34.317C17.6235 33.6994 18.1235 33.1994 18.7411 33.1994H41.7417C42.3594 33.1994 42.8594 33.6994 42.8594 34.317C42.83 34.9347 42.33 35.4347 41.7417 35.4347Z" fill="#687CCD"/>
<path d="M41.7417 39.5229H18.7411C18.1235 39.5229 17.6235 39.0228 17.6235 38.4052C17.6235 37.7875 18.1235 37.2875 18.7411 37.2875H41.7417C42.3594 37.2875 42.8594 37.7875 42.8594 38.4052C42.83 39.0228 42.33 39.5229 41.7417 39.5229Z" fill="#687CCD"/>
<path d="M194.275 28.9938V50.2002V57.0533L187.775 50.2002H144.657V28.9938H194.275Z" fill="#B1C3F2"/>
<path d="M150.128 35.141H189.335C189.776 35.141 190.158 34.7586 190.158 34.3174V34.2586C190.158 33.8174 189.776 33.4351 189.335 33.4351H150.128C149.687 33.4351 149.304 33.8174 149.304 34.2586V34.3468C149.304 34.788 149.687 35.141 150.128 35.141Z" fill="#F8FAFF"/>
<path d="M150.128 38.8174H189.335C189.776 38.8174 190.158 38.435 190.158 37.9938V37.9056C190.158 37.4644 189.776 37.082 189.335 37.082H150.128C149.687 37.082 149.304 37.4644 149.304 37.9056V37.9938C149.304 38.435 149.687 38.8174 150.128 38.8174Z" fill="#F8FAFF"/>
<path d="M150.128 42.4647H189.335C189.776 42.4647 190.158 42.0823 190.158 41.6412V41.5529C190.158 41.1117 189.776 40.7294 189.335 40.7294H150.128C149.687 40.7294 149.304 41.1117 149.304 41.5529V41.6412C149.304 42.0823 149.687 42.4647 150.128 42.4647Z" fill="#F8FAFF"/>
<path d="M159.599 46.1117H189.335C189.776 46.1117 190.158 45.7293 190.158 45.2881V45.1999C190.158 44.7587 189.776 44.3763 189.335 44.3763H159.599C159.157 44.3763 158.775 44.7587 158.775 45.1999V45.2881C158.775 45.7293 159.157 46.1117 159.599 46.1117Z" fill="#F8FAFF"/>
<path d="M169.157 15.5819H179.775C180.393 15.5819 180.893 15.0819 180.893 14.4642C180.893 13.8465 180.393 13.3465 179.775 13.3465H169.157C168.539 13.3465 168.039 13.8465 168.039 14.4642C168.039 15.0819 168.539 15.5819 169.157 15.5819Z" fill="#687CCD"/>
<path d="M164.01 19.67H179.775C180.393 19.67 180.893 19.17 180.893 18.5523C180.893 17.9347 180.393 17.4347 179.775 17.4347H164.01C163.392 17.4347 162.892 17.9347 162.892 18.5523C162.922 19.17 163.392 19.67 164.01 19.67Z" fill="#687CCD"/>
<path d="M164.01 23.7585H179.775C180.393 23.7585 180.893 23.2585 180.893 22.6408C180.893 22.0232 180.393 21.5232 179.775 21.5232H164.01C163.392 21.5232 162.892 22.0232 162.892 22.6408C162.922 23.2879 163.392 23.7585 164.01 23.7585Z" fill="#687CCD"/>
<path d="M198.246 1.34608C196.658 2.14022 195.099 2.93436 193.51 3.69908C192.657 4.11086 191.922 2.84612 192.775 2.43434C194.363 1.64021 195.922 0.846069 197.511 0.0813443C198.334 -0.330431 199.099 0.934307 198.246 1.34608Z" fill="#DCE4F7"/>
<path d="M198.099 9.5228C196.834 9.84634 195.57 10.1405 194.305 10.464C193.393 10.6993 192.981 9.2875 193.923 9.0522C195.187 8.72867 196.452 8.43454 197.717 8.111C198.629 7.8757 199.011 9.2875 198.099 9.5228Z" fill="#DCE4F7"/>
<path d="M197.658 20.4936C196.246 20.1406 194.834 19.7877 193.422 19.4641C192.51 19.2288 192.893 17.817 193.805 18.0523C195.216 18.4053 196.628 18.7582 198.04 19.0818C198.981 19.2877 198.599 20.6995 197.658 20.4936Z" fill="#DCE4F7"/>
<path d="M33.5948 3.19917C35.036 5.08157 36.4772 6.93456 37.9184 8.81696C38.5066 9.55227 37.2125 10.2876 36.6537 9.55227C35.2124 7.66987 33.7712 5.81688 32.33 3.93448C31.7418 3.19917 33.0065 2.46386 33.5948 3.19917Z" fill="#DCE4F7"/>
<path d="M27.6245 7.66967C28.4186 8.14027 29.2128 8.61087 30.0069 9.08147C30.8304 9.55207 30.0951 10.8462 29.2716 10.3462C28.4774 9.8756 27.6833 9.405 26.8892 8.9344C26.0656 8.4638 26.8009 7.16965 27.6245 7.66967Z" fill="#DCE4F7"/>
<path d="M22.6831 12.8466C24.742 13.6407 26.7714 14.4054 28.8303 15.1996C29.7127 15.5231 29.3303 16.9643 28.4479 16.6114C26.3891 15.8172 24.3596 15.0525 22.3007 14.2584C21.4183 13.9348 21.8007 12.523 22.6831 12.8466Z" fill="#DCE4F7"/>
<circle cx="3.47078" cy="3.47078" r="3.47078" transform="matrix(-0.228393 -0.973569 -0.973569 0.228393 15.7988 50.1306)" stroke="#DCE4F7" stroke-width="1.17654" stroke-linecap="round" stroke-linejoin="round"/>
<circle cx="3.47064" cy="3.47064" r="3.47064" transform="matrix(-0.707107 -0.707107 -0.707107 0.707107 209.138 55.3459)" stroke="#DCE4F7" stroke-width="1.17649" stroke-linecap="round" stroke-linejoin="round"/>
<circle cx="4.55889" cy="4.55889" r="4.55889" transform="matrix(-0.707107 -0.707107 -0.707107 0.707107 12.8945 27.8841)" stroke="#DCE4F7" stroke-width="1.17649" stroke-linecap="round" stroke-linejoin="round"/>
<circle cx="4.55901" cy="4.55901" r="4.55901" transform="matrix(-0.227897 -0.973685 -0.973685 0.227897 213 45.1338)" stroke="#DCE4F7" stroke-width="1.17652" stroke-linecap="round" stroke-linejoin="round"/>
<path d="M33.9775 50.759C23.9185 50.759 15.7712 58.9062 15.7712 68.9653" stroke="#6FD943" stroke-width="1.1765"/>
</svg>
