<svg width="22" height="22" viewBox="0 0 22 22" fill="none" xmlns="http://www.w3.org/2000/svg">
<g clip-path="url(#clip0_331_1004)">
<path d="M19.1761 21.3125H6.53125C5.98441 21.312 5.46012 21.0945 5.07345 20.7078C4.68677 20.3211 4.4693 19.7968 4.46875 19.25V17.875C4.46875 17.7838 4.50497 17.6964 4.56943 17.6319C4.6339 17.5675 4.72133 17.5312 4.8125 17.5312C4.90367 17.5312 4.9911 17.5675 5.05557 17.6319C5.12003 17.6964 5.15625 17.7838 5.15625 17.875V19.25C5.15625 19.6147 5.30112 19.9644 5.55898 20.2223C5.81684 20.4801 6.16658 20.625 6.53125 20.625C6.89592 20.625 7.24566 20.4801 7.50352 20.2223C7.76138 19.9644 7.90625 19.6147 7.90625 19.25C7.90681 19.039 7.85833 18.8307 7.76462 18.6416C7.69054 18.4909 7.65637 18.3238 7.6654 18.1562C7.67443 17.9885 7.72635 17.826 7.81619 17.6842M19.1761 21.3125L19.1747 21.4375C19.1749 21.4375 19.1751 21.4375 19.1754 21.4375M19.1761 21.3125C19.6975 21.3184 20.2027 21.1318 20.5951 20.7884C20.9876 20.445 21.2395 19.969 21.3029 19.4514L7.71011 17.6181M19.1761 21.3125V21.4375H19.1754M19.1754 21.4375H6.53125H6.53113C5.95117 21.4369 5.39514 21.2063 4.98506 20.7962C4.57497 20.3861 4.34433 19.8301 4.34375 19.2501L4.34375 19.25L4.34375 17.875C4.34375 17.7507 4.39314 17.6315 4.48104 17.5435C4.56895 17.4556 4.68818 17.4062 4.8125 17.4062C4.93682 17.4062 5.05605 17.4556 5.14396 17.5435C5.23186 17.6315 5.28125 17.7507 5.28125 17.875V19.25C5.28125 19.5815 5.41295 19.8995 5.64737 20.1339C5.88179 20.3683 6.19973 20.5 6.53125 20.5C6.86277 20.5 7.18071 20.3683 7.41513 20.1339C7.64955 19.8995 7.78125 19.5815 7.78125 19.25V19.2497C7.78176 19.058 7.73772 18.8688 7.65262 18.6971L7.65246 18.6967C7.56892 18.5269 7.5304 18.3384 7.54058 18.1494C7.55074 17.9607 7.60911 17.7778 7.71011 17.6181M19.1754 21.4375C19.7273 21.4436 20.2621 21.246 20.6775 20.8825C21.093 20.5188 21.3599 20.0147 21.4269 19.4666L21.427 19.4666L21.4273 19.4636C21.4571 19.1598 21.423 18.8531 21.3271 18.5632C21.2313 18.2733 21.0758 18.0068 20.8707 17.7806C20.6656 17.5544 20.4155 17.3737 20.1364 17.25C19.8572 17.1263 19.5553 17.0625 19.25 17.0625H8.70491H8.70478V17.1875C8.52654 17.1873 8.35123 17.2329 8.19564 17.3199C8.04005 17.4068 7.9094 17.5323 7.81619 17.6842M7.71011 17.6181C7.70996 17.6183 7.7098 17.6186 7.70964 17.6189L7.81619 17.6842M7.71011 17.6181C7.71027 17.6178 7.71043 17.6176 7.71059 17.6173L7.81619 17.6842M19.1787 20.5L19.1787 20.5H19.1761H8.31661C8.51692 20.2192 8.64797 19.8933 8.69708 19.5492C8.75895 19.1157 8.68781 18.6736 8.49306 18.2813C8.48036 18.2553 8.47469 18.2264 8.47661 18.1975C8.47854 18.1685 8.48805 18.1405 8.50419 18.1163L8.50425 18.1163L8.50653 18.1126C8.5276 18.0786 8.55695 18.0504 8.59185 18.0307C8.62658 18.0111 8.66568 18.0005 8.70555 18H19.25H19.2502C19.425 17.9998 19.5979 18.0362 19.7578 18.107C19.9176 18.1778 20.0609 18.2813 20.1782 18.4109C20.2956 18.5405 20.3845 18.6932 20.4391 18.8593C20.4935 19.0247 20.5128 19.1997 20.4957 19.373C20.453 19.6895 20.2954 19.9792 20.0529 20.1871C19.8099 20.3953 19.4987 20.5068 19.1787 20.5ZM4.48104 7.89396C4.56895 7.98186 4.68818 8.03125 4.8125 8.03125C4.93682 8.03125 5.05605 7.98186 5.14396 7.89396C5.23186 7.80605 5.28125 7.68682 5.28125 7.5625V2.75C5.28125 2.62568 5.23186 2.50645 5.14396 2.41854C5.05605 2.33064 4.93682 2.28125 4.8125 2.28125C4.68818 2.28125 4.56895 2.33064 4.48104 2.41854C4.39314 2.50645 4.34375 2.62568 4.34375 2.75V7.5625C4.34375 7.68682 4.39314 7.80605 4.48104 7.89396ZM10.3125 11.125H13.8531C13.9774 11.125 14.0967 11.0756 14.1846 10.9877C14.2725 10.8998 14.3219 10.7806 14.3219 10.6562C14.3219 10.5319 14.2725 10.4127 14.1846 10.3248C14.0967 10.2369 13.9774 10.1875 13.8531 10.1875H10.3125C10.1882 10.1875 10.069 10.2369 9.98104 10.3248C9.89314 10.4127 9.84375 10.5319 9.84375 10.6562C9.84375 10.7806 9.89314 10.8998 9.98104 10.9877C10.069 11.0756 10.1882 11.125 10.3125 11.125ZM10.6562 13.1875H16.5C16.6243 13.1875 16.7435 13.1381 16.8315 13.0502C16.9194 12.9623 16.9688 12.8431 16.9688 12.7188C16.9688 12.5944 16.9194 12.4752 16.8315 12.3873C16.7435 12.2994 16.6243 12.25 16.5 12.25H10.6562C10.5319 12.25 10.4127 12.2994 10.3248 12.3873C10.2369 12.4752 10.1875 12.5944 10.1875 12.7188C10.1875 12.8431 10.2369 12.9623 10.3248 13.0502C10.4127 13.1381 10.5319 13.1875 10.6562 13.1875ZM10.6562 15.25H16.5C16.6243 15.25 16.7435 15.2006 16.8315 15.1127C16.9194 15.0248 16.9688 14.9056 16.9688 14.7812C16.9688 14.6569 16.9194 14.5377 16.8315 14.4498C16.7435 14.3619 16.6243 14.3125 16.5 14.3125H10.6562C10.5319 14.3125 10.4127 14.3619 10.3248 14.4498C10.2369 14.5377 10.1875 14.6569 10.1875 14.7812C10.1875 14.9056 10.2369 15.0248 10.3248 15.1127C10.4127 15.2006 10.5319 15.25 10.6562 15.25Z" fill="#172C4E" stroke="#172C4E" stroke-width="0.25"/>
<path d="M17.5314 0.5625H17.5312H3.09375C2.96943 0.5625 2.8502 0.611886 2.76229 0.699794C2.67439 0.787701 2.625 0.90693 2.625 1.03125C2.625 1.15557 2.67439 1.2748 2.76229 1.36271C2.8502 1.45061 2.96943 1.5 3.09375 1.5H17.5312C17.8628 1.5 18.1807 1.6317 18.4151 1.86612C18.6496 2.10054 18.7812 2.41848 18.7812 2.75V17.5312C18.7812 17.6556 18.8306 17.7748 18.9185 17.8627C19.0065 17.9506 19.1257 18 19.25 18C19.3743 18 19.4935 17.9506 19.5815 17.8627C19.6694 17.7748 19.7188 17.6556 19.7188 17.5312V2.75V2.74988C19.7182 2.16992 19.4875 1.61389 19.0774 1.20381C18.6674 0.79372 18.1113 0.563079 17.5314 0.5625Z" fill="#172C4E" stroke="#172C4E" stroke-width="0.25"/>
<path d="M3.09375 4.9375H4.8125C4.93682 4.9375 5.05605 4.88811 5.14396 4.80021C5.23186 4.7123 5.28125 4.59307 5.28125 4.46875C5.28125 4.34443 5.23186 4.2252 5.14396 4.13729C5.05605 4.04939 4.93682 4 4.8125 4H3.09375C2.84652 4 2.60485 3.92669 2.39929 3.78934C2.19373 3.65199 2.03351 3.45676 1.9389 3.22836C1.84429 2.99995 1.81954 2.74861 1.86777 2.50614C1.916 2.26366 2.03505 2.04093 2.20987 1.86612C2.38468 1.6913 2.60741 1.57225 2.84989 1.52402C3.09236 1.47579 3.3437 1.50054 3.57211 1.59515C3.80051 1.68976 3.99574 1.84998 4.13309 2.05554C4.27044 2.2611 4.34375 2.50277 4.34375 2.75C4.34375 2.87432 4.39314 2.99355 4.48104 3.08146C4.56895 3.16936 4.68818 3.21875 4.8125 3.21875C4.93682 3.21875 5.05605 3.16936 5.14396 3.08146C5.23186 2.99355 5.28125 2.87432 5.28125 2.75C5.28125 2.31735 5.15296 1.89442 4.91259 1.53469C4.67222 1.17496 4.33058 0.894581 3.93087 0.729014C3.53116 0.563448 3.09132 0.520128 2.66699 0.604533C2.24266 0.688938 1.85288 0.897277 1.54695 1.2032C1.24103 1.50913 1.03269 1.89891 0.948283 2.32324C0.863878 2.74757 0.907198 3.18741 1.07276 3.58712C1.23833 3.98683 1.51871 4.32847 1.87844 4.56884C2.23817 4.80921 2.6611 4.9375 3.09375 4.9375ZM8.94979 7.89396C9.0377 7.98186 9.15693 8.03125 9.28125 8.03125C9.40557 8.03125 9.5248 7.98186 9.61271 7.89396C9.70061 7.80605 9.75 7.68682 9.75 7.5625V4.8125C9.75 4.68818 9.70061 4.56895 9.61271 4.48104C9.5248 4.39314 9.40557 4.34375 9.28125 4.34375C9.15693 4.34375 9.0377 4.39314 8.94979 4.48104C8.86189 4.56895 8.8125 4.68818 8.8125 4.8125V7.5625C8.8125 7.68682 8.86189 7.80605 8.94979 7.89396Z" fill="#172C4E" stroke="#172C4E" stroke-width="0.25"/>
<path d="M10.6563 8.03104L10.6558 8.03104C10.6001 8.03085 10.5448 8.02093 10.4925 8.00173L10.4919 8.00148C10.4341 7.97991 10.3812 7.94715 10.3361 7.90509C10.291 7.86303 10.2547 7.81249 10.2292 7.75636C10.2036 7.70024 10.1894 7.63963 10.1874 7.57801C10.1853 7.51641 10.1954 7.45502 10.2171 7.39734L10.2171 7.3974L10.3342 7.44129L10.2172 7.39726L11.2483 4.64755L10.6563 8.03104ZM10.6563 8.03104C10.752 8.03099 10.8453 8.00169 10.9238 7.94706C11.0023 7.89247 11.0622 7.8152 11.0955 7.72561C11.0955 7.72555 11.0955 7.72548 11.0955 7.72542L12.1266 4.97581L12.1267 4.97566M10.6563 8.03104L12.1267 4.97566M12.1267 4.97566C12.1702 4.85918 12.1657 4.73018 12.1141 4.61705C12.0625 4.50392 11.968 4.41592 11.8516 4.37241C11.7351 4.3289 11.6061 4.33345 11.4929 4.38505C11.3799 4.43662 11.2919 4.53099 11.2484 4.6474L12.1267 4.97566ZM8.25 5.28104H10.3125C10.4368 5.28104 10.556 5.23166 10.644 5.14375C10.7319 5.05584 10.7812 4.93661 10.7812 4.81229C10.7812 4.68797 10.7319 4.56874 10.644 4.48084C10.556 4.39293 10.4368 4.34354 10.3125 4.34354H8.25C8.12568 4.34354 8.00645 4.39293 7.91854 4.48084C7.83064 4.56874 7.78125 4.68797 7.78125 4.81229C7.78125 4.93661 7.83064 5.05584 7.91854 5.14375C8.00645 5.23166 8.12568 5.28104 8.25 5.28104Z" fill="#172C4E" stroke="#172C4E" stroke-width="0.25"/>
<path d="M12.2797 7.7275L12.2797 7.72739L11.2484 4.97739L11.2484 4.97724C11.2049 4.86076 11.2094 4.73177 11.261 4.61864C11.3126 4.50551 11.407 4.41751 11.5235 4.374C11.64 4.33049 11.769 4.33503 11.8821 4.38663C11.9952 4.43822 12.0832 4.53261 12.1267 4.64905L12.1267 4.64899L12.0097 4.69288L12.1268 4.64914L13.1579 7.39885C13.1579 7.39887 13.1579 7.3989 13.1579 7.39892L13.158 7.39899L12.2797 7.7275ZM12.2797 7.7275C12.3133 7.81682 12.3734 7.89376 12.4519 7.94804C12.5303 8.00232 12.6235 8.03135 12.719 8.03125M12.2797 7.7275L12.719 8.03125M12.719 8.03125L12.7188 7.90625L12.719 8.03125ZM15.6029 7.98176C15.668 8.01431 15.7398 8.03125 15.8126 8.03125C15.8996 8.03125 15.985 8.00701 16.059 7.96124C16.1331 7.91548 16.1929 7.85 16.2318 7.77213C16.2708 7.69427 16.2873 7.60711 16.2794 7.52041C16.2716 7.4337 16.2398 7.35089 16.1876 7.28125L14.1251 4.53125C14.0505 4.4318 13.9394 4.36604 13.8164 4.34846C13.6933 4.33088 13.5683 4.36291 13.4688 4.4375C13.3694 4.51209 13.3036 4.62314 13.286 4.74621C13.2685 4.86928 13.3005 4.9943 13.3751 5.09375L15.4376 7.84375C15.4812 7.90197 15.5379 7.94922 15.6029 7.98176Z" fill="#172C4E" stroke="#172C4E" stroke-width="0.25"/>
<path d="M5.15625 17.3125H5.1564C6.37427 17.3111 7.54185 16.8267 8.40302 15.9655C9.26418 15.1044 9.7486 13.9368 9.75 12.7189V12.7188C9.75 11.8102 9.48058 10.922 8.97582 10.1666C8.47105 9.41116 7.7536 8.82237 6.9142 8.47468C6.07481 8.12699 5.15116 8.03602 4.26006 8.21327C3.36896 8.39052 2.55043 8.82803 1.90798 9.47048C1.26553 10.1129 0.82802 10.9315 0.65077 11.8226C0.473519 12.7137 0.56449 13.6373 0.91218 14.4767C1.25987 15.3161 1.84866 16.0335 2.6041 16.5383C3.35954 17.0431 4.24769 17.3125 5.15625 17.3125ZM13.5036 7.96124C13.5776 8.00701 13.6629 8.03125 13.75 8.03125C13.8228 8.03125 13.8945 8.01431 13.9596 7.98176C14.0247 7.94922 14.0813 7.90197 14.125 7.84375L16.1875 5.09375C16.2244 5.0445 16.2513 4.98847 16.2666 4.92883C16.2819 4.8692 16.2852 4.80715 16.2765 4.74621C16.2678 4.68527 16.2472 4.62664 16.2158 4.57367C16.1845 4.52071 16.143 4.47443 16.0938 4.4375C16.0445 4.40057 15.9885 4.37369 15.9288 4.35842C15.8692 4.34314 15.8071 4.33976 15.7462 4.34846C15.6853 4.35717 15.6266 4.37779 15.5737 4.40915C15.5207 4.44052 15.4744 4.482 15.4375 4.53125L13.375 7.28125C13.3228 7.35089 13.291 7.4337 13.2831 7.5204C13.2753 7.6071 13.2918 7.69427 13.3307 7.77213C13.3697 7.84999 13.4295 7.91548 13.5036 7.96124ZM11 7.34375H12.375C12.4993 7.34375 12.6186 7.29436 12.7065 7.20646C12.7944 7.11855 12.8438 6.99932 12.8438 6.875C12.8438 6.75068 12.7944 6.63145 12.7065 6.54354C12.6186 6.45564 12.4993 6.40625 12.375 6.40625H11C10.8757 6.40625 10.7565 6.45564 10.6685 6.54354C10.5806 6.63145 10.5313 6.75068 10.5313 6.875C10.5313 6.99932 10.5806 7.11855 10.6685 7.20646C10.7565 7.29436 10.8757 7.34375 11 7.34375ZM3.12495 9.67869C3.72617 9.27696 4.43302 9.06253 5.1561 9.0625C6.12549 9.06364 7.05484 9.44924 7.7403 10.1347C8.42576 10.8202 8.81136 11.7495 8.8125 12.7189C8.81247 13.442 8.59804 14.1488 8.19631 14.7501C7.79456 15.3513 7.22353 15.82 6.55544 16.0967C5.88735 16.3734 5.1522 16.4458 4.44295 16.3047C3.73371 16.1637 3.08223 15.8154 2.57089 15.3041C2.05956 14.7928 1.71133 14.1413 1.57026 13.432C1.42918 12.7228 1.50158 11.9877 1.77832 11.3196C2.05505 10.6515 2.52368 10.0804 3.12495 9.67869Z" fill="#172C4E" stroke="#172C4E" stroke-width="0.25"/>
<path d="M4.09559 14.8107C4.3769 15.092 4.75843 15.25 5.15625 15.25C5.55408 15.25 5.93561 15.092 6.21691 14.8107C6.49822 14.5294 6.65625 14.1478 6.65625 13.75C6.65625 13.3522 6.49822 12.9706 6.21691 12.6893C5.93561 12.408 5.55408 12.25 5.15625 12.25C5.045 12.25 4.93624 12.217 4.84374 12.1552C4.75124 12.0934 4.67914 12.0055 4.63657 11.9028C4.59399 11.8 4.58285 11.6869 4.60456 11.5778C4.62626 11.4686 4.67984 11.3684 4.7585 11.2898C4.83717 11.2111 4.9374 11.1575 5.04651 11.1358C5.15563 11.1141 5.26873 11.1252 5.37151 11.1678C5.47429 11.2104 5.56214 11.2825 5.62395 11.375C5.68576 11.4675 5.71875 11.5762 5.71875 11.6875C5.71875 11.8118 5.76814 11.931 5.85604 12.019C5.94395 12.1069 6.06318 12.1563 6.1875 12.1563C6.31182 12.1563 6.43105 12.1069 6.51896 12.019C6.60687 11.931 6.65625 11.8118 6.65625 11.6875C6.65625 11.3908 6.56828 11.1008 6.40346 10.8541C6.23863 10.6075 6.00436 10.4152 5.73028 10.3017C5.45619 10.1881 5.15459 10.1584 4.86362 10.2163C4.57264 10.2742 4.30537 10.4171 4.09559 10.6268C3.88581 10.8366 3.74295 11.1039 3.68507 11.3949C3.62719 11.6858 3.6569 11.9874 3.77043 12.2615C3.88396 12.5356 4.07622 12.7699 4.3229 12.9347C4.56957 13.0995 4.85958 13.1875 5.15625 13.1875C5.2675 13.1875 5.37626 13.2205 5.46876 13.2823C5.56126 13.3441 5.63336 13.432 5.67593 13.5347C5.71851 13.6375 5.72965 13.7506 5.70794 13.8597C5.68624 13.9689 5.63267 14.0691 5.554 14.1477C5.47533 14.2264 5.3751 14.28 5.26599 14.3017C5.15687 14.3234 5.04377 14.3123 4.94099 14.2697C4.83821 14.2271 4.75036 14.155 4.68855 14.0625C4.62674 13.97 4.59375 13.8613 4.59375 13.75C4.59375 13.6257 4.54436 13.5065 4.45646 13.4185C4.36855 13.3306 4.24932 13.2813 4.125 13.2813C4.00068 13.2813 3.88145 13.3306 3.79354 13.4185C3.70564 13.5065 3.65625 13.6257 3.65625 13.75C3.65625 14.1478 3.81429 14.5294 4.09559 14.8107Z" fill="#172C4E" stroke="#172C4E" stroke-width="0.25"/>
<path d="M4.82479 10.9877C4.9127 11.0756 5.03193 11.125 5.15625 11.125C5.28057 11.125 5.3998 11.0756 5.48771 10.9877C5.57561 10.8998 5.625 10.7806 5.625 10.6562V9.96875C5.625 9.84443 5.57561 9.7252 5.48771 9.63729C5.3998 9.54939 5.28057 9.5 5.15625 9.5C5.03193 9.5 4.9127 9.54939 4.82479 9.63729C4.73689 9.7252 4.6875 9.84443 4.6875 9.96875V10.6562C4.6875 10.7806 4.73689 10.8998 4.82479 10.9877ZM4.82479 15.8002C4.9127 15.8881 5.03193 15.9375 5.15625 15.9375C5.28057 15.9375 5.3998 15.8881 5.48771 15.8002C5.57561 15.7123 5.625 15.5931 5.625 15.4688V14.7812C5.625 14.6569 5.57561 14.5377 5.48771 14.4498C5.3998 14.3619 5.28057 14.3125 5.15625 14.3125C5.03193 14.3125 4.9127 14.3619 4.82479 14.4498C4.73689 14.5377 4.6875 14.6569 4.6875 14.7812V15.4688C4.6875 15.5931 4.73689 15.7123 4.82479 15.8002Z" fill="#172C4E" stroke="#172C4E" stroke-width="0.25"/>
</g>
<defs>
<clipPath id="clip0_331_1004">
<rect width="22" height="22" fill="white"/>
</clipPath>
</defs>
</svg>
