<svg width="13" height="13" viewBox="0 0 13 13" fill="none" xmlns="http://www.w3.org/2000/svg">
<g id="Palette / Light / Line">
<path id="Shape" d="M4.33301 11.9167L10.2915 11.9167C11.189 11.9167 11.9165 11.1892 11.9165 10.2917V8.12504C11.9165 7.22758 11.1889 6.50004 10.2914 6.50004L10.7674 6.02409C11.402 5.38949 11.402 4.36059 10.7674 3.72599L9.27379 2.23242C8.63919 1.59782 7.6103 1.59782 6.97569 2.23242L6.49985 2.70826C6.49985 2.70823 6.49985 2.70829 6.49985 2.70826V4.24032L7.74173 2.99845C7.95326 2.78692 8.29622 2.78692 8.50776 2.99845L10.0013 4.49202C10.2129 4.70356 10.2129 5.04652 10.0013 5.25806L6.49985 8.75953V10.2916L9.20807 7.58337H10.2915C10.5907 7.58337 10.8332 7.82588 10.8332 8.12504V10.2917C10.8332 10.5909 10.5907 10.8334 10.2915 10.8334H6.40738C6.1843 11.4645 5.58238 11.9167 4.87485 11.9167L4.33301 11.9167Z" fill="#162C4E"/>
<path id="Shape_2" fill-rule="evenodd" clip-rule="evenodd" d="M4.87467 2.16671H2.70801C2.40885 2.16671 2.16634 2.40922 2.16634 2.70837V10.2917C2.16634 10.5909 2.40885 10.8334 2.70801 10.8334H4.87467C5.17383 10.8334 5.41634 10.5909 5.41634 10.2917V2.70837C5.41634 2.40922 5.17383 2.16671 4.87467 2.16671ZM2.70801 1.08337C1.81055 1.08337 1.08301 1.81091 1.08301 2.70837V10.2917C1.08301 11.1892 1.81055 11.9167 2.70801 11.9167H4.87467C5.77214 11.9167 6.49967 11.1892 6.49967 10.2917V2.70837C6.49967 1.81091 5.77214 1.08337 4.87467 1.08337H2.70801Z" fill="#162C4E"/>
<path id="Shape_3" d="M4.33333 9.20829C4.33333 9.50745 4.09082 9.74996 3.79167 9.74996C3.49251 9.74996 3.25 9.50745 3.25 9.20829C3.25 8.90914 3.49251 8.66663 3.79167 8.66663C4.09082 8.66663 4.33333 8.90914 4.33333 9.20829Z" fill="#162C4E"/>
</g>
</svg>
