<svg width="16" height="17" viewBox="0 0 16 17" fill="none" xmlns="http://www.w3.org/2000/svg">
<path fill-rule="evenodd" clip-rule="evenodd" d="M12.7152 5.2155H3.28475C2.33743 5.2155 1.58655 6.01478 1.64564 6.96025L2.05621 13.5295C2.11031 14.395 2.82808 15.0693 3.69532 15.0693H12.3046C13.1719 15.0693 13.8896 14.395 13.9437 13.5295L14.3543 6.96025C14.4134 6.01478 13.6625 5.2155 12.7152 5.2155ZM3.28475 3.57319C1.39011 3.57319 -0.111657 5.17175 0.00652746 7.06269L0.417104 13.6319C0.525299 15.363 1.96084 16.7117 3.69532 16.7117H12.3046C14.0391 16.7117 15.4746 15.363 15.5828 13.6319L15.9934 7.06269C16.1116 5.17175 14.6098 3.57319 12.7152 3.57319H3.28475Z" fill="white"/>
<path fill-rule="evenodd" clip-rule="evenodd" d="M3.8942 4.39434C3.8942 2.12679 5.73242 0.288574 7.99997 0.288574C10.2675 0.288574 12.1057 2.12679 12.1057 4.39434V6.03665C12.1057 6.49016 11.7381 6.85781 11.2846 6.85781C10.8311 6.85781 10.4634 6.49016 10.4634 6.03665V4.39434C10.4634 3.03381 9.3605 1.93088 7.99997 1.93088C6.63944 1.93088 5.53651 3.03381 5.53651 4.39434V6.03665C5.53651 6.49016 5.16887 6.85781 4.71536 6.85781C4.26185 6.85781 3.8942 6.49016 3.8942 6.03665V4.39434Z" fill="white"/>
</svg>
