<svg width="14" height="14" viewBox="0 0 14 14" fill="none" xmlns="http://www.w3.org/2000/svg">
<path fill-rule="evenodd" clip-rule="evenodd" d="M7 7.58334C4.74484 7.58334 2.91667 9.41151 2.91667 11.6667V12.8333C2.91667 13.1555 2.6555 13.4167 2.33333 13.4167C2.01117 13.4167 1.75 13.1555 1.75 12.8333V11.6667C1.75 8.76718 4.1005 6.41667 7 6.41667C9.89949 6.41667 12.25 8.76718 12.25 11.6667V12.8333C12.25 13.1555 11.9888 13.4167 11.6667 13.4167C11.3445 13.4167 11.0833 13.1555 11.0833 12.8333V11.6667C11.0833 9.41151 9.25516 7.58334 7 7.58334Z" fill="#172C4E"/>
<path fill-rule="evenodd" clip-rule="evenodd" d="M7 6.41666C8.28866 6.41666 9.33333 5.37199 9.33333 4.08333C9.33333 2.79466 8.28866 1.74999 7 1.74999C5.71134 1.74999 4.66667 2.79466 4.66667 4.08333C4.66667 5.37199 5.71134 6.41666 7 6.41666ZM7 7.58333C8.933 7.58333 10.5 6.01632 10.5 4.08333C10.5 2.15033 8.933 0.583328 7 0.583328C5.067 0.583328 3.5 2.15033 3.5 4.08333C3.5 6.01632 5.067 7.58333 7 7.58333Z" fill="#172C4E"/>
</svg>
