<svg width="190" height="171" viewBox="0 0 190 171" fill="none" xmlns="http://www.w3.org/2000/svg">
<path d="M65.9367 158.55H31.4932V170.761H65.9367V158.55Z" fill="#C4977E"/>
<path d="M48.715 158.55H31.4932V170.761H48.715V158.55Z" fill="#AF8366"/>
<g style="mix-blend-mode:overlay" opacity="0.3">
<path d="M41.4547 158.55H38.752V170.761H41.4547V158.55Z" fill="white"/>
</g>
<g style="mix-blend-mode:overlay" opacity="0.3">
<path d="M58.7545 158.55H56.0518V170.761H58.7545V158.55Z" fill="white"/>
</g>
<g style="mix-blend-mode:overlay" opacity="0.3">
<path d="M65.1759 161.4L63.5997 159.504L62.0234 161.4H62.7345V163.826H64.4648V161.4H65.1759Z" fill="white"/>
</g>
<path d="M82.4863 141.698H55.2246V151.363H82.4863V141.698Z" fill="#C4977E"/>
<path d="M68.8551 141.698H55.2246V151.363H68.8551V141.698Z" fill="#AF8366"/>
<g style="mix-blend-mode:overlay" opacity="0.3">
<path d="M63.1099 141.698H60.9707V151.363H63.1099V141.698Z" fill="white"/>
</g>
<g style="mix-blend-mode:overlay" opacity="0.3">
<path d="M76.8013 141.698H74.6621V151.363H76.8013V141.698Z" fill="white"/>
</g>
<g style="mix-blend-mode:overlay" opacity="0.3">
<path d="M81.8831 143.953L80.6357 142.452L79.3877 143.953H79.9506V145.873H81.3201V143.953H81.8831Z" fill="white"/>
</g>
<path d="M89.1999 151.363H50.1836V170.761H89.1999V151.363Z" fill="#C4977E"/>
<path d="M69.6914 151.363H50.1836V170.761H69.6914V151.363Z" fill="#AF8366"/>
<g style="mix-blend-mode:overlay" opacity="0.3">
<path d="M61.4678 151.363H58.4062V170.761H61.4678V151.363Z" fill="white"/>
</g>
<g style="mix-blend-mode:overlay" opacity="0.3">
<path d="M81.0635 151.363H78.002V170.761H81.0635V151.363Z" fill="white"/>
</g>
<g style="mix-blend-mode:overlay" opacity="0.3">
<path d="M88.4806 155.89L85.9761 152.876L83.4717 155.89H84.6014V159.743H87.3502V155.89H88.4806Z" fill="white"/>
</g>
<path d="M137.82 14.3092C137.682 14.3109 137.548 14.2679 137.438 14.1866C137.327 14.1053 137.246 13.9902 137.207 13.8587L136.283 10.898C136.27 10.8582 136.249 10.822 136.219 10.7925C136.19 10.763 136.154 10.741 136.114 10.7283L133.153 9.80466C133.023 9.76385 132.909 9.68244 132.828 9.5723C132.747 9.46216 132.703 9.32904 132.703 9.19235C132.703 9.05565 132.747 8.92255 132.828 8.81241C132.909 8.70226 133.023 8.62085 133.153 8.58005L136.114 7.6564C136.154 7.6438 136.19 7.62187 136.219 7.59246C136.248 7.56306 136.27 7.52703 136.283 7.48739L137.207 4.52665C137.248 4.39619 137.329 4.28217 137.44 4.20122C137.55 4.12027 137.683 4.0766 137.82 4.0766C137.956 4.0766 138.089 4.12027 138.199 4.20122C138.31 4.28217 138.391 4.39619 138.432 4.52665L139.355 7.48739C139.368 7.52703 139.39 7.56306 139.419 7.59246C139.449 7.62187 139.485 7.6438 139.524 7.6564L142.485 8.58005C142.616 8.62085 142.73 8.70226 142.811 8.81241C142.892 8.92255 142.935 9.05565 142.935 9.19235C142.935 9.32904 142.892 9.46216 142.811 9.5723C142.73 9.68244 142.616 9.76385 142.485 9.80466L139.524 10.7283C139.485 10.741 139.449 10.763 139.419 10.7925C139.39 10.822 139.368 10.8582 139.355 10.898L138.432 13.8587C138.393 13.9901 138.312 14.1052 138.201 14.1865C138.091 14.2677 137.957 14.3108 137.82 14.3092ZM137.82 4.4597C137.764 4.45854 137.71 4.47568 137.666 4.50848C137.621 4.54128 137.589 4.58789 137.573 4.64105L136.65 7.60114C136.619 7.7002 136.564 7.79028 136.491 7.86365C136.417 7.93702 136.327 7.99147 136.228 8.02234L133.268 8.94666C133.216 8.9642 133.172 8.99735 133.14 9.04146C133.109 9.08558 133.092 9.13845 133.092 9.19268C133.092 9.24691 133.109 9.29978 133.14 9.3439C133.172 9.38801 133.216 9.42116 133.268 9.4387L136.228 10.3623C136.327 10.3934 136.417 10.448 136.491 10.5213C136.564 10.5946 136.618 10.6846 136.65 10.7836L137.573 13.7443C137.591 13.7956 137.624 13.8402 137.668 13.8717C137.712 13.9033 137.765 13.9202 137.819 13.9202C137.873 13.9202 137.926 13.9033 137.97 13.8717C138.015 13.8402 138.048 13.7956 138.065 13.7443L138.99 10.7836C139.02 10.6845 139.075 10.5944 139.148 10.5211C139.222 10.4477 139.312 10.3932 139.411 10.3623L142.371 9.4387C142.422 9.42116 142.467 9.38801 142.498 9.3439C142.53 9.29978 142.547 9.24691 142.547 9.19268C142.547 9.13845 142.53 9.08558 142.498 9.04146C142.467 8.99735 142.422 8.9642 142.371 8.94666L139.411 8.02234C139.312 7.99167 139.221 7.93728 139.148 7.86389C139.075 7.79049 139.02 7.70031 138.99 7.60114L138.065 4.64105C138.05 4.58794 138.018 4.54135 137.973 4.50854C137.929 4.47574 137.875 4.45857 137.82 4.4597V4.4597Z" fill="#516277"/>
<path d="M7.98685 76.4681C7.8497 76.4698 7.71576 76.4267 7.60528 76.3454C7.4948 76.2641 7.4138 76.1491 7.37454 76.0177L6.45089 73.0569C6.43832 73.0171 6.41634 72.9809 6.38681 72.9514C6.35728 72.9218 6.32107 72.8998 6.28124 72.8873L3.32114 71.9636C3.19068 71.9228 3.07666 71.8414 2.99571 71.7313C2.91475 71.6211 2.87109 71.488 2.87109 71.3513C2.87109 71.2146 2.91475 71.0815 2.99571 70.9714C3.07666 70.8612 3.19068 70.7798 3.32114 70.739L6.28124 69.8154C6.321 69.8029 6.35716 69.781 6.38669 69.7516C6.41621 69.7222 6.43823 69.6861 6.45089 69.6464L7.37454 66.6856C7.4138 66.5542 7.4948 66.4391 7.60528 66.3579C7.71576 66.2766 7.8497 66.2335 7.98685 66.2352C8.12402 66.2334 8.25802 66.2764 8.36852 66.3577C8.47902 66.439 8.55999 66.5541 8.59915 66.6856L9.5228 69.6464C9.53547 69.6861 9.55749 69.7222 9.58702 69.7516C9.61654 69.781 9.6527 69.8029 9.69245 69.8154L12.6532 70.739C12.7837 70.7798 12.8977 70.8612 12.9786 70.9714C13.0596 71.0815 13.1033 71.2146 13.1033 71.3513C13.1033 71.488 13.0596 71.6211 12.9786 71.7313C12.8977 71.8414 12.7837 71.9228 12.6532 71.9636L9.69245 72.8873C9.65263 72.8998 9.61642 72.9218 9.58689 72.9514C9.55736 72.9809 9.53538 73.0171 9.5228 73.0569L8.59915 76.0203C8.55952 76.1513 8.47835 76.2658 8.36789 76.3466C8.25743 76.4274 8.12369 76.4701 7.98685 76.4681ZM7.98685 66.6187C7.93165 66.6176 7.87762 66.6347 7.8331 66.6673C7.78858 66.7 7.75604 66.7464 7.74049 66.7994L6.81685 69.7601C6.78608 69.8592 6.73165 69.9494 6.65827 70.0228C6.58489 70.0961 6.49476 70.1505 6.39565 70.1813L3.43489 71.1056C3.38357 71.1232 3.33902 71.1563 3.30748 71.2004C3.27594 71.2445 3.25898 71.2974 3.25898 71.3516C3.25898 71.4059 3.27594 71.4588 3.30748 71.5029C3.33902 71.547 3.38357 71.5801 3.43489 71.5977L6.39565 72.5213C6.4947 72.5522 6.58479 72.6066 6.65815 72.68C6.73152 72.7534 6.78598 72.8435 6.81685 72.9425L7.74049 75.9033C7.75789 75.9548 7.79102 75.9996 7.83522 76.0314C7.87941 76.0631 7.93244 76.0801 7.98685 76.0801C8.04125 76.0801 8.09428 76.0631 8.13848 76.0314C8.18267 75.9996 8.21581 75.9548 8.2332 75.9033L9.15685 72.9425C9.18792 72.8436 9.24244 72.7536 9.31578 72.6803C9.38912 72.6069 9.4791 72.5524 9.57805 72.5213L12.5388 71.5977C12.5901 71.5801 12.6347 71.547 12.6662 71.5029C12.6978 71.4588 12.7147 71.4059 12.7147 71.3516C12.7147 71.2974 12.6978 71.2445 12.6662 71.2004C12.6347 71.1563 12.5901 71.1232 12.5388 71.1056L9.57805 70.1813C9.47899 70.1504 9.38891 70.096 9.31554 70.0226C9.24218 69.9493 9.18772 69.8592 9.15685 69.7601L8.2332 66.7994C8.21776 66.7463 8.18524 66.6999 8.1407 66.6672C8.09616 66.6345 8.04208 66.6175 7.98685 66.6187V66.6187Z" fill="#516277"/>
<path d="M72.3267 137.802C72.1895 137.803 72.0556 137.76 71.9451 137.679C71.8346 137.598 71.7536 137.483 71.7144 137.351L70.7907 134.39C70.7781 134.351 70.7562 134.315 70.7268 134.285C70.6974 134.256 70.6614 134.234 70.6217 134.221L67.661 133.298C67.5305 133.257 67.4165 133.175 67.3355 133.065C67.2546 132.955 67.2109 132.822 67.2109 132.685C67.2109 132.549 67.2546 132.416 67.3355 132.305C67.4165 132.195 67.5305 132.114 67.661 132.073L70.6217 131.149C70.6614 131.136 70.6974 131.114 70.7268 131.085C70.7562 131.055 70.7781 131.019 70.7907 130.98L71.7144 128.019C71.7536 127.888 71.8346 127.773 71.9451 127.691C72.0556 127.61 72.1895 127.567 72.3267 127.569C72.4639 127.567 72.5979 127.61 72.7084 127.691C72.8189 127.772 72.8998 127.888 72.939 128.019L73.8633 130.98C73.8758 131.02 73.8977 131.056 73.9271 131.085C73.9565 131.115 73.9926 131.137 74.0323 131.149L76.993 132.073C77.1235 132.114 77.2375 132.195 77.3185 132.305C77.3994 132.416 77.4431 132.549 77.4431 132.685C77.4431 132.822 77.3994 132.955 77.3185 133.065C77.2375 133.175 77.1235 133.257 76.993 133.298L74.0323 134.221C73.9927 134.234 73.9566 134.256 73.9272 134.285C73.8978 134.315 73.8759 134.351 73.8633 134.39L72.939 137.351C72.8998 137.483 72.8189 137.598 72.7084 137.679C72.5979 137.76 72.4639 137.803 72.3267 137.802ZM72.3267 127.952C72.2715 127.951 72.2174 127.968 72.173 128.001C72.1285 128.034 72.0962 128.08 72.081 128.133L71.1573 131.094C71.1263 131.193 71.0716 131.283 70.9982 131.357C70.9247 131.43 70.8346 131.484 70.7355 131.515L67.7754 132.44C67.7241 132.458 67.6795 132.491 67.648 132.535C67.6164 132.579 67.5995 132.632 67.5995 132.686C67.5995 132.741 67.6164 132.793 67.648 132.838C67.6795 132.882 67.7241 132.915 67.7754 132.932L70.7355 133.857C70.8347 133.887 70.9249 133.942 70.9984 134.015C71.0719 134.089 71.1265 134.179 71.1573 134.278L72.081 137.238C72.0985 137.289 72.1317 137.334 72.1758 137.365C72.2199 137.397 72.2728 137.414 72.327 137.414C72.3812 137.414 72.4341 137.397 72.4782 137.365C72.5223 137.334 72.5555 137.289 72.573 137.238L73.4967 134.278C73.5276 134.179 73.582 134.089 73.6554 134.015C73.7287 133.942 73.8188 133.888 73.9179 133.857L76.8786 132.932C76.93 132.915 76.9745 132.882 77.0061 132.838C77.0376 132.793 77.0546 132.741 77.0546 132.686C77.0546 132.632 77.0376 132.579 77.0061 132.535C76.9745 132.491 76.93 132.458 76.8786 132.44L73.9179 131.517C73.8189 131.486 73.729 131.431 73.6556 131.358C73.5823 131.284 73.5278 131.194 73.4967 131.096L72.573 128.135C72.5574 128.082 72.5247 128.036 72.4802 128.003C72.4357 127.971 72.3817 127.954 72.3267 127.955V127.952Z" fill="#516277"/>
<path d="M176.815 23.6795C175.291 23.6797 173.801 23.2278 172.533 22.3812C171.266 21.5345 170.278 20.331 169.695 18.9229C169.112 17.5149 168.959 15.9654 169.256 14.4706C169.554 12.9758 170.288 11.6027 171.365 10.525C172.443 9.44727 173.816 8.71335 175.311 8.41604C176.806 8.11873 178.355 8.27139 179.763 8.8547C181.171 9.43801 182.375 10.4258 183.222 11.6931C184.068 12.9604 184.52 14.4503 184.52 15.9744C184.518 18.0172 183.705 19.9756 182.26 21.4201C180.816 22.8646 178.858 23.6771 176.815 23.6795V23.6795ZM176.815 8.65865C175.368 8.65852 173.953 9.08748 172.75 9.89127C171.547 10.6951 170.609 11.8376 170.055 13.1744C169.502 14.5111 169.357 15.9821 169.639 17.4013C169.921 18.8204 170.618 20.124 171.641 21.1472C172.664 22.1704 173.968 22.8672 175.387 23.1496C176.806 23.4319 178.277 23.2871 179.614 22.7334C180.95 22.1797 182.093 21.242 182.897 20.0389C183.701 18.8358 184.13 17.4214 184.13 15.9744C184.128 14.035 183.356 12.1756 181.985 10.8041C180.614 9.43263 178.754 8.66106 176.815 8.65865V8.65865Z" fill="#516277"/>
<path d="M179.05 19.2661C179.02 19.2662 178.989 19.2589 178.961 19.2449C178.934 19.2309 178.91 19.2105 178.892 19.1855L176.657 16.0902C176.633 16.057 176.62 16.0172 176.62 15.9764V10.6087C176.62 10.557 176.641 10.5074 176.677 10.4708C176.714 10.4342 176.763 10.4137 176.815 10.4137C176.867 10.4137 176.916 10.4342 176.953 10.4708C176.99 10.5074 177.01 10.557 177.01 10.6087V15.9134L179.208 18.9593C179.239 19.0012 179.251 19.0533 179.242 19.1042C179.234 19.1552 179.206 19.2007 179.164 19.231C179.131 19.2542 179.091 19.2665 179.05 19.2661V19.2661Z" fill="#516277"/>
<path d="M176.815 9.60434C176.763 9.60434 176.714 9.5838 176.677 9.54723C176.641 9.51066 176.62 9.46106 176.62 9.40934V8.46359C176.62 8.41187 176.641 8.36227 176.677 8.3257C176.714 8.28913 176.763 8.26859 176.815 8.26859C176.867 8.26859 176.916 8.28913 176.953 8.3257C176.99 8.36227 177.01 8.41187 177.01 8.46359V9.40934C177.01 9.46106 176.99 9.51066 176.953 9.54723C176.916 9.5838 176.867 9.60434 176.815 9.60434Z" fill="#516277"/>
<path d="M176.815 23.6797C176.763 23.6797 176.714 23.6591 176.677 23.6225C176.641 23.586 176.62 23.5364 176.62 23.4847V22.5389C176.62 22.4872 176.641 22.4376 176.677 22.401C176.714 22.3644 176.763 22.3439 176.815 22.3439C176.867 22.3439 176.916 22.3644 176.953 22.401C176.99 22.4376 177.01 22.4872 177.01 22.5389V23.4847C177.01 23.5364 176.99 23.586 176.953 23.6225C176.916 23.6591 176.867 23.6797 176.815 23.6797Z" fill="#516277"/>
<path d="M184.325 16.1695H183.38C183.328 16.1695 183.278 16.149 183.242 16.1124C183.205 16.0759 183.185 16.0263 183.185 15.9745C183.185 15.9228 183.205 15.8732 183.242 15.8367C183.278 15.8001 183.328 15.7795 183.38 15.7795H184.325C184.377 15.7795 184.427 15.8001 184.463 15.8367C184.5 15.8732 184.52 15.9228 184.52 15.9745C184.52 16.0263 184.5 16.0759 184.463 16.1124C184.427 16.149 184.377 16.1695 184.325 16.1695V16.1695Z" fill="#516277"/>
<path d="M170.25 16.1695H169.304C169.253 16.1695 169.203 16.149 169.166 16.1124C169.13 16.0759 169.109 16.0263 169.109 15.9745C169.109 15.9228 169.13 15.8732 169.166 15.8367C169.203 15.8001 169.253 15.7795 169.304 15.7795H170.25C170.302 15.7795 170.351 15.8001 170.388 15.8367C170.425 15.8732 170.445 15.9228 170.445 15.9745C170.445 16.0263 170.425 16.0759 170.388 16.1124C170.351 16.149 170.302 16.1695 170.25 16.1695V16.1695Z" fill="#516277"/>
<path d="M182.126 21.48C182.074 21.48 182.024 21.4594 181.988 21.4228L181.319 20.754C181.284 20.717 181.266 20.6681 181.267 20.6176C181.268 20.5671 181.288 20.5189 181.324 20.4832C181.359 20.4474 181.408 20.427 181.458 20.4261C181.509 20.4252 181.558 20.4439 181.595 20.4784L182.261 21.1472C182.289 21.1745 182.307 21.2092 182.315 21.247C182.322 21.2849 182.318 21.324 182.304 21.3596C182.289 21.3952 182.264 21.4257 182.232 21.4471C182.2 21.4686 182.162 21.48 182.124 21.48H182.126Z" fill="#516277"/>
<path d="M172.174 11.527C172.122 11.5269 172.072 11.5064 172.036 11.4698L171.367 10.8016C171.33 10.765 171.31 10.7154 171.31 10.6637C171.31 10.6119 171.33 10.5623 171.367 10.5257C171.403 10.489 171.453 10.4684 171.504 10.4684C171.556 10.4683 171.606 10.4888 171.642 10.5253L172.311 11.1942C172.348 11.2307 172.368 11.2803 172.368 11.332C172.368 11.3837 172.348 11.4332 172.311 11.4698C172.275 11.5064 172.225 11.5269 172.174 11.527V11.527Z" fill="#516277"/>
<path d="M171.504 21.48C171.466 21.48 171.428 21.4686 171.396 21.4471C171.364 21.4257 171.339 21.3952 171.324 21.3596C171.31 21.324 171.306 21.2849 171.313 21.247C171.321 21.2092 171.339 21.1745 171.367 21.1472L172.035 20.4784C172.072 20.4439 172.121 20.4252 172.172 20.4261C172.222 20.427 172.271 20.4474 172.306 20.4832C172.342 20.5189 172.362 20.5671 172.363 20.6176C172.364 20.6681 172.345 20.717 172.311 20.754L171.642 21.4202C171.624 21.4388 171.603 21.4537 171.579 21.4639C171.556 21.4742 171.53 21.4797 171.504 21.48Z" fill="#516277"/>
<path d="M181.458 11.527C181.419 11.527 181.381 11.5155 181.349 11.4941C181.317 11.4726 181.292 11.4422 181.278 11.4066C181.263 11.371 181.259 11.3318 181.266 11.294C181.274 11.2562 181.292 11.2214 181.32 11.1942L181.989 10.5253C182.025 10.4888 182.075 10.4683 182.127 10.4684C182.178 10.4684 182.228 10.489 182.264 10.5257C182.301 10.5623 182.322 10.6119 182.321 10.6637C182.321 10.7154 182.301 10.765 182.264 10.8016L181.595 11.4698C181.559 11.5064 181.509 11.5269 181.458 11.527V11.527Z" fill="#516277"/>
<path d="M108.758 146.956C107.234 146.956 105.745 146.504 104.477 145.657C103.21 144.81 102.223 143.607 101.639 142.199C101.056 140.791 100.903 139.241 101.201 137.746C101.498 136.252 102.232 134.879 103.31 133.801C104.387 132.723 105.76 131.989 107.255 131.692C108.75 131.395 110.299 131.547 111.707 132.131C113.115 132.714 114.319 133.701 115.166 134.969C116.012 136.236 116.464 137.726 116.464 139.25C116.462 141.293 115.649 143.251 114.205 144.696C112.76 146.141 110.802 146.953 108.758 146.956V146.956ZM108.758 131.935C107.312 131.935 105.897 132.364 104.694 133.168C103.491 133.972 102.553 135.114 102 136.451C101.446 137.788 101.301 139.259 101.583 140.678C101.866 142.097 102.563 143.401 103.586 144.424C104.609 145.447 105.913 146.144 107.332 146.426C108.751 146.708 110.222 146.563 111.559 146.009C112.895 145.455 114.038 144.518 114.842 143.314C115.645 142.111 116.074 140.697 116.074 139.25C116.072 137.31 115.301 135.451 113.929 134.079C112.558 132.708 110.698 131.937 108.758 131.935V131.935Z" fill="#516277"/>
<path d="M108.759 139.445H108.728L105.088 138.866C105.037 138.858 104.991 138.83 104.961 138.788C104.931 138.746 104.918 138.694 104.926 138.643C104.934 138.592 104.962 138.546 105.004 138.516C105.046 138.485 105.098 138.473 105.15 138.481L108.563 139.024V133.885C108.563 133.833 108.583 133.783 108.62 133.747C108.656 133.71 108.706 133.69 108.758 133.69C108.809 133.69 108.859 133.71 108.896 133.747C108.932 133.783 108.953 133.833 108.953 133.885V139.252C108.953 139.303 108.932 139.353 108.896 139.39C108.859 139.426 108.809 139.447 108.758 139.447L108.759 139.445Z" fill="#516277"/>
<path d="M108.758 132.88C108.707 132.88 108.657 132.86 108.621 132.823C108.584 132.787 108.563 132.737 108.563 132.685V131.74C108.563 131.688 108.584 131.638 108.621 131.602C108.657 131.565 108.707 131.545 108.758 131.545C108.81 131.545 108.86 131.565 108.896 131.602C108.933 131.638 108.953 131.688 108.953 131.74V132.685C108.953 132.737 108.933 132.787 108.896 132.823C108.86 132.86 108.81 132.88 108.758 132.88Z" fill="#516277"/>
<path d="M108.758 146.956C108.707 146.956 108.657 146.935 108.621 146.899C108.584 146.862 108.563 146.812 108.563 146.761V145.815C108.563 145.763 108.584 145.714 108.621 145.677C108.657 145.64 108.707 145.62 108.758 145.62C108.81 145.62 108.86 145.64 108.896 145.677C108.933 145.714 108.953 145.763 108.953 145.815V146.761C108.953 146.812 108.933 146.862 108.896 146.899C108.86 146.935 108.81 146.956 108.758 146.956Z" fill="#516277"/>
<path d="M116.27 139.445H115.324C115.272 139.445 115.223 139.424 115.186 139.388C115.149 139.351 115.129 139.301 115.129 139.25C115.129 139.198 115.149 139.148 115.186 139.112C115.223 139.075 115.272 139.055 115.324 139.055H116.27C116.321 139.055 116.371 139.075 116.408 139.112C116.444 139.148 116.465 139.198 116.465 139.25C116.465 139.301 116.444 139.351 116.408 139.388C116.371 139.424 116.321 139.445 116.27 139.445Z" fill="#516277"/>
<path d="M102.194 139.445H101.249C101.197 139.445 101.147 139.424 101.111 139.388C101.074 139.351 101.054 139.301 101.054 139.25C101.054 139.198 101.074 139.148 101.111 139.112C101.147 139.075 101.197 139.055 101.249 139.055H102.194C102.246 139.055 102.296 139.075 102.332 139.112C102.369 139.148 102.389 139.198 102.389 139.25C102.389 139.301 102.369 139.351 102.332 139.388C102.296 139.424 102.246 139.445 102.194 139.445Z" fill="#516277"/>
<path d="M114.07 144.756C114.044 144.756 114.019 144.751 113.995 144.741C113.971 144.731 113.95 144.717 113.931 144.699L113.263 144.03C113.244 144.012 113.229 143.99 113.218 143.967C113.207 143.943 113.202 143.917 113.201 143.891C113.201 143.864 113.206 143.838 113.215 143.814C113.225 143.79 113.24 143.768 113.258 143.749C113.277 143.731 113.299 143.716 113.323 143.706C113.347 143.697 113.373 143.692 113.4 143.692C113.426 143.693 113.452 143.698 113.476 143.709C113.499 143.72 113.521 143.735 113.539 143.754L114.208 144.422C114.235 144.45 114.254 144.484 114.262 144.522C114.269 144.56 114.265 144.6 114.251 144.635C114.236 144.671 114.211 144.702 114.179 144.723C114.146 144.745 114.109 144.756 114.07 144.756V144.756Z" fill="#516277"/>
<path d="M104.117 134.803C104.065 134.803 104.015 134.783 103.979 134.746L103.31 134.077C103.291 134.059 103.276 134.038 103.265 134.014C103.254 133.99 103.249 133.964 103.248 133.938C103.248 133.912 103.252 133.886 103.262 133.862C103.272 133.837 103.287 133.815 103.305 133.797C103.324 133.778 103.346 133.764 103.37 133.754C103.394 133.744 103.42 133.739 103.446 133.74C103.473 133.74 103.499 133.746 103.522 133.757C103.546 133.767 103.568 133.783 103.586 133.802L104.255 134.471C104.282 134.498 104.3 134.533 104.308 134.57C104.315 134.608 104.312 134.647 104.297 134.683C104.282 134.719 104.257 134.749 104.225 134.77C104.193 134.792 104.155 134.803 104.117 134.803Z" fill="#516277"/>
<path d="M103.448 144.756C103.41 144.756 103.372 144.745 103.34 144.723C103.308 144.702 103.282 144.671 103.268 144.636C103.253 144.6 103.249 144.56 103.257 144.523C103.264 144.485 103.283 144.45 103.311 144.423L103.979 143.754C104.016 143.72 104.065 143.701 104.116 143.702C104.166 143.703 104.215 143.723 104.25 143.759C104.286 143.795 104.306 143.843 104.307 143.894C104.308 143.944 104.29 143.993 104.255 144.03L103.586 144.699C103.55 144.735 103.5 144.756 103.448 144.756V144.756Z" fill="#516277"/>
<path d="M113.401 134.803C113.362 134.803 113.325 134.792 113.293 134.77C113.261 134.749 113.236 134.719 113.221 134.683C113.206 134.647 113.202 134.608 113.21 134.57C113.217 134.533 113.236 134.498 113.263 134.471L113.931 133.802C113.968 133.765 114.017 133.744 114.069 133.744C114.121 133.744 114.171 133.765 114.207 133.801C114.244 133.838 114.264 133.887 114.265 133.939C114.265 133.991 114.244 134.041 114.208 134.077L113.539 134.746C113.502 134.783 113.453 134.803 113.401 134.803V134.803Z" fill="#516277"/>
<path d="M14.0976 118.898C8.92621 118.898 4.71875 114.691 4.71875 109.519C4.71875 104.347 8.92621 100.14 14.0976 100.14C19.269 100.14 23.4771 104.347 23.4771 109.519C23.4771 114.69 19.2697 118.898 14.0976 118.898ZM14.0976 100.53C9.14136 100.53 5.10875 104.56 5.10875 109.519C5.10875 114.478 9.13876 118.508 14.0976 118.508C19.0565 118.508 23.0871 114.478 23.0871 109.519C23.0871 104.559 19.0545 100.53 14.0976 100.53Z" fill="#516277"/>
<path d="M11.6843 113.738C11.6498 113.738 11.6159 113.729 11.586 113.711C11.5562 113.694 11.5315 113.669 11.5145 113.639C11.4975 113.609 11.4888 113.575 11.4893 113.54C11.4898 113.506 11.4994 113.472 11.5173 113.442L13.9028 109.465V102.956C13.9028 102.904 13.9233 102.854 13.9599 102.818C13.9965 102.781 14.0461 102.761 14.0978 102.761C14.1495 102.761 14.1991 102.781 14.2357 102.818C14.2723 102.854 14.2928 102.904 14.2928 102.956V109.521C14.2928 109.556 14.2832 109.591 14.2649 109.621L11.852 113.645C11.8345 113.674 11.8098 113.697 11.7804 113.713C11.751 113.73 11.7179 113.738 11.6843 113.738V113.738Z" fill="#516277"/>
<path d="M14.0983 101.686C14.0466 101.686 13.997 101.666 13.9604 101.629C13.9239 101.593 13.9033 101.543 13.9033 101.491V100.335C13.9033 100.283 13.9239 100.234 13.9604 100.197C13.997 100.16 14.0466 100.14 14.0983 100.14C14.15 100.14 14.1996 100.16 14.2362 100.197C14.2728 100.234 14.2933 100.283 14.2933 100.335V101.491C14.2933 101.543 14.2728 101.593 14.2362 101.629C14.1996 101.666 14.15 101.686 14.0983 101.686V101.686Z" fill="#516277"/>
<path d="M14.0983 118.898C14.0466 118.898 13.997 118.878 13.9604 118.841C13.9239 118.805 13.9033 118.755 13.9033 118.703V117.547C13.9033 117.495 13.9239 117.446 13.9604 117.409C13.997 117.372 14.0466 117.352 14.0983 117.352C14.15 117.352 14.1996 117.372 14.2362 117.409C14.2728 117.446 14.2933 117.495 14.2933 117.547V118.703C14.2933 118.755 14.2728 118.805 14.2362 118.841C14.1996 118.878 14.15 118.898 14.0983 118.898Z" fill="#516277"/>
<path d="M23.2827 109.714H22.1257C22.0739 109.714 22.0243 109.693 21.9878 109.657C21.9512 109.62 21.9307 109.571 21.9307 109.519C21.9307 109.467 21.9512 109.418 21.9878 109.381C22.0243 109.344 22.0739 109.324 22.1257 109.324H23.2827C23.3344 109.324 23.384 109.344 23.4205 109.381C23.4571 109.418 23.4777 109.467 23.4777 109.519C23.4777 109.571 23.4571 109.62 23.4205 109.657C23.384 109.693 23.3344 109.714 23.2827 109.714Z" fill="#516277"/>
<path d="M6.07011 109.714H4.91375C4.86203 109.714 4.81244 109.693 4.77587 109.657C4.7393 109.62 4.71875 109.571 4.71875 109.519C4.71875 109.467 4.7393 109.418 4.77587 109.381C4.81244 109.344 4.86203 109.324 4.91375 109.324H6.07011C6.12182 109.324 6.17142 109.344 6.20799 109.381C6.24456 109.418 6.26511 109.467 6.26511 109.519C6.26511 109.571 6.24456 109.62 6.20799 109.657C6.17142 109.693 6.12182 109.714 6.07011 109.714Z" fill="#516277"/>
<path d="M20.5918 116.208C20.5401 116.208 20.4906 116.187 20.454 116.151L19.6363 115.333C19.6019 115.296 19.5831 115.247 19.584 115.197C19.5849 115.146 19.6054 115.098 19.6411 115.062C19.6768 115.026 19.725 115.006 19.7755 115.005C19.8261 115.004 19.875 115.023 19.9119 115.057L20.7296 115.875C20.7661 115.912 20.7867 115.961 20.7867 116.013C20.7867 116.065 20.7661 116.114 20.7296 116.151C20.6931 116.187 20.6435 116.208 20.5918 116.208V116.208Z" fill="#516277"/>
<path d="M8.42101 104.035C8.36931 104.035 8.31975 104.015 8.28321 103.978L7.46551 103.16C7.42887 103.124 7.40826 103.074 7.4082 103.023C7.40814 102.971 7.42863 102.921 7.46518 102.885C7.50173 102.848 7.55133 102.827 7.60308 102.827C7.65482 102.827 7.70447 102.848 7.74111 102.884L8.55881 103.702C8.58627 103.729 8.60501 103.764 8.61265 103.802C8.62029 103.84 8.61648 103.879 8.60171 103.915C8.58694 103.951 8.56187 103.981 8.52969 104.003C8.49752 104.024 8.45969 104.035 8.42101 104.035V104.035Z" fill="#516277"/>
<path d="M7.60596 116.208C7.56742 116.208 7.52975 116.196 7.49772 116.175C7.46568 116.154 7.44071 116.123 7.42596 116.088C7.41122 116.052 7.40736 116.013 7.41487 115.975C7.42238 115.937 7.44092 115.902 7.46816 115.875L8.28586 115.057C8.32282 115.023 8.37172 115.004 8.42224 115.005C8.47276 115.006 8.52095 115.026 8.55668 115.062C8.59241 115.098 8.61288 115.146 8.61377 115.197C8.61466 115.247 8.5959 115.296 8.56146 115.333L7.74376 116.151C7.70723 116.187 7.65766 116.208 7.60596 116.208V116.208Z" fill="#516277"/>
<path d="M19.7746 104.035C19.7359 104.035 19.6981 104.024 19.6659 104.003C19.6337 103.981 19.6087 103.951 19.5939 103.915C19.5791 103.879 19.5753 103.84 19.5829 103.802C19.5906 103.764 19.6093 103.729 19.6368 103.702L20.4545 102.884C20.4726 102.866 20.4941 102.852 20.5178 102.842C20.5415 102.832 20.5669 102.827 20.5925 102.827C20.6181 102.827 20.6435 102.832 20.6672 102.842C20.6908 102.852 20.7123 102.866 20.7304 102.885C20.7485 102.903 20.7629 102.924 20.7726 102.948C20.7824 102.972 20.7874 102.997 20.7874 103.023C20.7874 103.048 20.7823 103.074 20.7725 103.097C20.7626 103.121 20.7482 103.142 20.7301 103.16L19.9124 103.978C19.8758 104.015 19.8263 104.035 19.7746 104.035V104.035Z" fill="#516277"/>
<path d="M38.656 28.4941C38.3657 28.4943 38.0855 28.3876 37.8688 28.1945C33.9207 24.678 31.8752 21.1036 31.79 17.5702C31.79 17.5383 31.79 17.5052 31.79 17.472C31.79 17.4389 31.79 17.407 31.79 17.3713C31.79 16.4692 31.9677 15.576 32.3129 14.7426C32.6581 13.9091 33.1641 13.1519 33.802 12.514C34.4398 11.8762 35.1971 11.3702 36.0305 11.025C36.8639 10.6798 37.7572 10.5021 38.6593 10.5021C39.5613 10.5021 40.4546 10.6798 41.288 11.025C42.1214 11.3702 42.8787 11.8762 43.5165 12.514C44.1544 13.1519 44.6604 13.9091 45.0056 14.7426C45.3508 15.576 45.5285 16.4692 45.5285 17.3713C45.5285 17.4057 45.5285 17.4395 45.5285 17.474C45.5285 17.5084 45.5285 17.539 45.5285 17.5715C45.4433 21.1036 43.3978 24.678 39.449 28.1945C39.2308 28.389 38.9483 28.4958 38.656 28.4941ZM38.656 10.8921C36.9382 10.894 35.2913 11.5772 34.0766 12.7919C32.8619 14.0066 32.1787 15.6535 32.1768 17.3713C32.1768 17.4031 32.1768 17.4363 32.1768 17.4662C32.1768 17.4961 32.1768 17.5312 32.1768 17.5598C32.26 20.9814 34.2613 24.4615 38.1256 27.9033C38.2709 28.0327 38.4588 28.1042 38.6534 28.1042C38.848 28.1042 39.0359 28.0327 39.1812 27.9033C43.0461 24.4615 45.0475 20.9814 45.13 17.5611C45.13 17.5292 45.13 17.4961 45.13 17.4681C45.13 17.4402 45.13 17.4031 45.13 17.3713C45.1288 15.654 44.4466 14.0073 43.2329 12.7923C42.0193 11.5773 40.3733 10.8932 38.656 10.8901V10.8921ZM38.656 21.8316C37.7738 21.8316 36.9115 21.57 36.178 21.0799C35.4445 20.5898 34.8728 19.8932 34.5352 19.0782C34.1976 18.2632 34.1093 17.3663 34.2814 16.5011C34.4535 15.6359 34.8783 14.8412 35.5021 14.2174C36.1259 13.5936 36.9206 13.1688 37.7858 12.9967C38.6511 12.8246 39.5479 12.9129 40.3629 13.2505C41.1779 13.5881 41.8745 14.1598 42.3646 14.8933C42.8547 15.6268 43.1163 16.4891 43.1163 17.3713C43.1151 18.5539 42.6448 19.6877 41.8086 20.5239C40.9724 21.3601 39.8386 21.8304 38.656 21.8316V21.8316ZM38.656 13.3016C37.8509 13.3016 37.064 13.5404 36.3946 13.9876C35.7252 14.4349 35.2035 15.0707 34.8955 15.8145C34.5874 16.5582 34.5068 17.3767 34.6639 18.1663C34.8211 18.9558 35.2088 19.6811 35.7781 20.2503C36.3474 20.8195 37.0727 21.2071 37.8623 21.3641C38.6519 21.5211 39.4703 21.4404 40.2141 21.1322C40.9578 20.8241 41.5935 20.3022 42.0407 19.6328C42.4878 18.9634 42.7264 18.1763 42.7263 17.3713C42.7251 16.2922 42.2959 15.2577 41.5328 14.4947C40.7697 13.7317 39.7351 13.3027 38.656 13.3016V13.3016Z" fill="#516277"/>
<path d="M182.126 101.646C181.836 101.647 181.556 101.54 181.339 101.347C177.39 97.8303 175.346 94.256 175.26 90.7226C175.26 90.6907 175.26 90.6576 175.26 90.6244C175.26 90.5913 175.26 90.5594 175.26 90.5236C175.277 88.7133 176.009 86.9831 177.295 85.7092C178.582 84.4353 180.319 83.7206 182.129 83.7206C183.94 83.7206 185.677 84.4353 186.963 85.7092C188.25 86.9831 188.981 88.7133 188.999 90.5236C188.999 90.5581 188.999 90.5919 188.999 90.6264C188.999 90.6608 188.999 90.6914 188.999 90.7239C188.914 94.256 186.869 97.8303 182.92 101.347C182.702 101.542 182.419 101.648 182.126 101.646V101.646ZM182.126 84.0445C180.409 84.0463 178.762 84.7296 177.547 85.9442C176.332 87.1589 175.649 88.8058 175.647 90.5236C175.647 90.5548 175.647 90.5886 175.647 90.6185C175.647 90.6484 175.647 90.6835 175.647 90.7121C175.729 94.1338 177.73 97.6139 181.595 101.056C181.741 101.185 181.929 101.257 182.123 101.257C182.318 101.257 182.506 101.185 182.651 101.056C186.516 97.6139 188.517 94.1338 188.6 90.7134C188.6 90.6816 188.6 90.6485 188.6 90.6205C188.6 90.5926 188.6 90.5555 188.6 90.5236C188.598 88.8069 187.915 87.161 186.702 85.9465C185.488 84.732 183.843 84.0481 182.126 84.0445V84.0445ZM182.126 94.984C181.244 94.9841 180.382 94.7226 179.648 94.2326C178.915 93.7426 178.343 93.046 178.005 92.231C177.667 91.416 177.579 90.5191 177.751 89.6539C177.923 88.7886 178.348 87.9938 178.972 87.37C179.595 86.7461 180.39 86.3212 181.255 86.1491C182.121 85.9769 183.017 86.0652 183.832 86.4028C184.648 86.7404 185.344 87.3121 185.834 88.0456C186.324 88.7791 186.586 89.6415 186.586 90.5236C186.585 91.7061 186.114 92.8397 185.278 93.6758C184.442 94.512 183.309 94.9824 182.126 94.984ZM182.126 86.454C181.321 86.4539 180.534 86.6925 179.865 87.1397C179.195 87.5869 178.674 88.2226 178.365 88.9664C178.057 89.7102 177.977 90.5286 178.134 91.3182C178.291 92.1078 178.678 92.8332 179.248 93.4024C179.817 93.9717 180.542 94.3594 181.332 94.5164C182.121 94.6735 182.94 94.5928 183.684 94.2846C184.427 93.9765 185.063 93.4547 185.51 92.7852C185.958 92.1158 186.196 91.3287 186.196 90.5236C186.195 89.4447 185.765 88.4104 185.003 87.6475C184.24 86.8846 183.205 86.4554 182.126 86.454V86.454Z" fill="#516277"/>
<path d="M143.197 145.255L145.376 165.05L139.857 168.541L137.474 169.222C137.279 169.278 137.114 169.406 137.012 169.582C136.91 169.757 136.88 169.964 136.928 170.161V170.161C136.969 170.332 137.067 170.484 137.205 170.593C137.343 170.702 137.514 170.761 137.69 170.761H150.054C150.257 170.761 150.457 170.712 150.637 170.619C150.818 170.526 150.973 170.391 151.091 170.226C151.208 170.06 151.285 169.869 151.313 169.668C151.342 169.467 151.322 169.262 151.255 169.071L149.946 165.313L151.398 144.205L143.197 145.255Z" fill="#FFA79B"/>
<path d="M140.233 168.303C140.617 168.472 140.958 168.727 141.228 169.048C141.499 169.369 141.692 169.748 141.793 170.155H151.881V170.761H136.975C136.076 170.761 135.794 169.546 136.601 169.151C137.511 168.707 138.716 168.335 140.233 168.303Z" fill="#72D847"/>
<path d="M165.353 139.897L181.347 155.482L179.305 161.685L177.898 163.726C177.783 163.892 177.737 164.097 177.769 164.297C177.802 164.497 177.91 164.677 178.072 164.798V164.798C178.213 164.904 178.385 164.959 178.561 164.955C178.737 164.951 178.906 164.888 179.042 164.777L188.588 156.918C188.745 156.789 188.868 156.625 188.948 156.438C189.028 156.252 189.063 156.049 189.048 155.846C189.034 155.644 188.971 155.448 188.866 155.275C188.76 155.102 188.615 154.956 188.441 154.851L185.042 152.78L172.75 135.56L165.353 139.897Z" fill="#FFA79B"/>
<path d="M179.444 161.262C179.848 161.148 180.273 161.128 180.686 161.204C181.099 161.28 181.489 161.45 181.826 161.7L189.616 155.288L190 155.755L178.492 165.23C177.799 165.801 176.808 165.042 177.181 164.224C177.6 163.303 178.297 162.251 179.444 161.262Z" fill="#72D847"/>
<path d="M169.014 92.6507C169.014 92.6507 170.073 97.7656 169.528 103.759C168.983 109.752 169.014 126.006 169.014 126.006L174.946 135.933C174.946 135.933 172.827 139.021 170.467 139.262C168.106 139.504 165.744 141.805 163.081 143.015C160.418 144.226 158.178 142.653 155.514 144.226C152.85 145.8 151.519 146.285 149.4 145.981C147.281 145.678 143.891 146.102 141.773 147.374C139.655 148.645 136.143 146.284 136.143 146.284L141.168 92.8918L169.014 92.6507Z" fill="#687CCD"/>
<path d="M124.338 0H63.4472C60.9393 0 58.9062 2.03303 58.9062 4.54091V119.223C58.9062 121.73 60.9393 123.764 63.4472 123.764H124.338C126.846 123.764 128.879 121.73 128.879 119.223V4.54091C128.879 2.03303 126.846 0 124.338 0Z" fill="#72D847"/>
<path d="M117.231 9.1922H70.5526C68.0448 9.1922 66.0117 11.2252 66.0117 13.7331V86.8687C66.0117 89.3766 68.0448 91.4096 70.5526 91.4096H117.231C119.739 91.4096 121.772 89.3766 121.772 86.8687V13.7331C121.772 11.2252 119.739 9.1922 117.231 9.1922Z" fill="#E2ECF9"/>
<path d="M113.939 119.384H76.174C75.6621 119.384 75.2471 119.799 75.2471 120.311C75.2471 120.823 75.6621 121.238 76.174 121.238H113.939C114.451 121.238 114.866 120.823 114.866 120.311C114.866 119.799 114.451 119.384 113.939 119.384Z" fill="white"/>
<path d="M93.893 44.057C101.266 44.057 107.242 38.0804 107.242 30.7079C107.242 23.3354 101.266 17.3588 93.893 17.3588C86.5205 17.3588 80.5439 23.3354 80.5439 30.7079C80.5439 38.0804 86.5205 44.057 93.893 44.057Z" fill="#72D847"/>
<path d="M93.893 30.7081H80.5439C80.5712 37.823 84.5824 44.9412 92.5774 52.0626C92.9398 52.3849 93.4078 52.5629 93.8927 52.5629C94.3776 52.5629 94.8456 52.3849 95.208 52.0626C103.206 44.9412 107.217 37.823 107.241 30.7081H93.893Z" fill="#72D847"/>
<path d="M93.8923 39.2379C98.6032 39.2379 102.422 35.4189 102.422 30.7079C102.422 25.9969 98.6032 22.1779 93.8923 22.1779C89.1813 22.1779 85.3623 25.9969 85.3623 30.7079C85.3623 35.4189 89.1813 39.2379 93.8923 39.2379Z" fill="white"/>
<path d="M91.9647 36.3703C91.7993 36.3701 91.6359 36.3333 91.4864 36.2623C91.3369 36.1914 91.205 36.0882 91.1002 35.9602L88.0264 32.2032C87.9333 32.0895 87.8636 31.9585 87.8212 31.8179C87.7787 31.6773 87.7644 31.5296 87.779 31.3834C87.7936 31.2372 87.8368 31.0954 87.9063 30.9659C87.9757 30.8364 88.07 30.7219 88.1837 30.6289C88.2974 30.5358 88.4283 30.4661 88.5689 30.4236C88.7096 30.3812 88.8572 30.3668 89.0034 30.3815C89.1496 30.3961 89.2915 30.4393 89.4209 30.5088C89.5504 30.5782 89.665 30.6725 89.758 30.7862L91.968 33.4882L97.7062 26.5722C97.7993 26.4579 97.914 26.3631 98.0439 26.2932C98.1737 26.2234 98.3161 26.1799 98.4628 26.1653C98.6095 26.1507 98.7577 26.1652 98.8987 26.2081C99.0398 26.2509 99.171 26.3212 99.2848 26.4149C99.3986 26.5086 99.4928 26.6239 99.5619 26.7542C99.631 26.8844 99.6737 27.027 99.6874 27.1738C99.7012 27.3206 99.6859 27.4686 99.6423 27.6095C99.5986 27.7503 99.5276 27.8811 99.4333 27.9944L92.8293 35.9628C92.7241 36.0903 92.5921 36.1929 92.4426 36.2634C92.2932 36.3339 92.13 36.3704 91.9647 36.3703V36.3703Z" fill="#72D847"/>
<path d="M106.511 66.2351H81.2744V81.7337H106.511V66.2351Z" fill="#B1C3F2"/>
<path d="M93.8929 66.2351H81.2744V81.7337H93.8929V66.2351Z" fill="#687CCD"/>
<g style="mix-blend-mode:overlay" opacity="0.3">
<path d="M88.5733 66.2351H86.5928V81.7337H88.5733V66.2351Z" fill="white"/>
</g>
<g style="mix-blend-mode:overlay" opacity="0.3">
<path d="M101.249 66.2351H99.2686V81.7337H101.249V66.2351Z" fill="white"/>
</g>
<path d="M116.612 100.502H71.1714C68.3218 100.502 66.0117 102.812 66.0117 105.662V105.662C66.0117 108.512 68.3218 110.822 71.1714 110.822H116.612C119.462 110.822 121.772 108.512 121.772 105.662V105.662C121.772 102.812 119.462 100.502 116.612 100.502Z" fill="#72D847"/>
<path d="M118.61 81.8964H69.1752C69.1321 81.8964 69.0908 81.8793 69.0603 81.8489C69.0298 81.8184 69.0127 81.777 69.0127 81.7339C69.0127 81.6908 69.0298 81.6495 69.0603 81.619C69.0908 81.5886 69.1321 81.5714 69.1752 81.5714H118.61C118.654 81.5714 118.695 81.5886 118.725 81.619C118.756 81.6495 118.773 81.6908 118.773 81.7339C118.773 81.777 118.756 81.8184 118.725 81.8489C118.695 81.8793 118.654 81.8964 118.61 81.8964Z" fill="#516277"/>
<path d="M93.893 64.6101C93.8499 64.6101 93.8085 64.593 93.7781 64.5625C93.7476 64.532 93.7305 64.4907 93.7305 64.4476V54.7938C93.7305 54.7507 93.7476 54.7094 93.7781 54.6789C93.8085 54.6484 93.8499 54.6313 93.893 54.6313C93.9361 54.6313 93.9774 54.6484 94.0079 54.6789C94.0384 54.7094 94.0555 54.7507 94.0555 54.7938V64.4502C94.0548 64.4929 94.0374 64.5335 94.007 64.5635C93.9766 64.5934 93.9356 64.6101 93.893 64.6101V64.6101Z" fill="#516277"/>
<path d="M147.846 37.8054C147.846 37.8054 143.931 39.8204 144.496 45.1101C145.061 50.3999 145.102 54.9167 145.102 54.9167C145.102 54.9167 159.025 54.5131 163.141 51.9306C163.141 51.9306 162.044 40.5296 158.143 38.2292C154.242 35.9289 149.319 36.0498 147.846 37.8054Z" fill="#1F3B6A"/>
<path d="M169.981 68.7403C168.287 73.6439 166.048 80.4839 166.048 80.4839L169.014 92.6519C169.014 92.6519 159.752 95.4359 151.034 94.468C142.316 93.5002 141.168 92.8937 141.168 92.8937L145.162 81.9978L145.707 72.251C145.707 72.251 142.681 79.6363 140.581 81.0085C138.482 82.3806 132.228 85.2458 132.228 85.2458C132.228 85.2458 131.017 77.9008 130.13 76.4058L136.305 75.3573C136.305 75.3573 141.067 60.1427 141.955 58.8473C142.45 58.1264 143.964 56.9915 145.997 55.9814C147.607 55.1819 149.544 54.4598 151.559 54.0854C156.12 53.2404 157.339 53.2482 157.339 53.2482C157.339 53.2482 161.008 54.1484 164.126 55.1429C165.644 55.6259 167.03 56.1322 167.803 56.5677C170.163 57.9029 171.677 63.8354 169.981 68.7403Z" fill="#72D847"/>
<path d="M154.366 77.0545L145.355 81.7014L141.903 82.2675L137.888 82.8123C137.888 82.8123 137.693 83.3466 138.208 83.4272C138.723 83.5078 141.66 83.4272 141.66 83.4272L138.666 84.5322L137.102 85.5838C137.102 85.5838 137.371 86.1773 137.911 86.0154C138.45 85.8536 139.098 85.476 139.098 85.476L141.876 85.1256C141.876 85.1256 138.154 86.8806 138.154 87.283C138.154 87.6853 138.909 87.58 139.664 87.283C140.419 86.9859 141.633 86.4737 141.633 86.4737L139.286 88.1754C139.286 88.1754 139.367 88.7149 139.961 88.4718C140.554 88.2287 141.256 87.6918 141.256 87.6918L143.171 86.9632C143.171 86.9632 146.057 86.0194 146.65 84.7531L156.628 81.8281L154.366 77.0545Z" fill="#FFA79B"/>
<path d="M145.693 81.7012C145.693 81.7012 144.493 80.9998 143.845 81.0512C143.198 81.1025 141.836 80.862 141.836 80.862C141.836 80.862 141.771 81.6173 142.335 81.6986C142.9 81.7798 143.671 82.3323 143.671 82.3323C143.671 82.3323 145.572 82.3902 145.693 81.7012Z" fill="#FFA79B"/>
<path d="M131.308 76.2466L122.04 77.5089L118.863 76.9369L115.204 76.1725C115.204 76.1725 114.871 76.5775 115.292 76.8056C115.713 77.0338 118.294 77.8703 118.294 77.8703L115.35 77.9086L113.665 78.3415C113.665 78.3415 113.717 78.9402 114.236 78.9662C114.754 78.9922 115.434 78.8629 115.434 78.8629L117.958 79.4147C117.958 79.4147 114.181 79.7917 114.058 80.1434C113.935 80.495 114.623 80.6341 115.371 80.6087C116.119 80.5834 117.333 80.5125 117.333 80.5125L114.769 81.2666C114.769 81.2666 114.673 81.7606 115.263 81.7326C115.854 81.7047 116.628 81.4518 116.628 81.4518L118.519 81.4089C118.519 81.4089 121.319 81.4778 122.224 80.5581L131.801 81.0904L131.308 76.2466Z" fill="#FFA79B"/>
<path d="M122.331 77.6127C122.331 77.6127 121.503 76.6325 120.924 76.4798C120.345 76.327 119.234 75.6959 119.234 75.6959C119.234 75.6959 118.943 76.3322 119.41 76.5773C119.878 76.8223 120.376 77.5399 120.376 77.5399C120.376 77.5399 122.016 78.173 122.331 77.6127Z" fill="#FFA79B"/>
<path d="M121.642 79.7786C120.233 79.7786 119.596 77.8858 119.569 77.8046C119.565 77.7924 119.564 77.7796 119.565 77.7668C119.566 77.754 119.569 77.7416 119.575 77.7301C119.581 77.7187 119.589 77.7085 119.598 77.7001C119.608 77.6918 119.619 77.6854 119.631 77.6814C119.644 77.6774 119.656 77.6758 119.669 77.6767C119.682 77.6777 119.694 77.6812 119.706 77.6869C119.717 77.6927 119.728 77.7007 119.736 77.7104C119.744 77.7201 119.751 77.7313 119.755 77.7435C119.761 77.7623 120.384 79.6109 121.673 79.583C121.686 79.5827 121.698 79.585 121.71 79.5897C121.722 79.5943 121.733 79.6013 121.742 79.6102C121.752 79.619 121.759 79.6297 121.764 79.6414C121.769 79.6531 121.772 79.6657 121.772 79.6785C121.772 79.6913 121.77 79.7041 121.766 79.716C121.761 79.7279 121.754 79.7388 121.745 79.7481C121.736 79.7573 121.726 79.7647 121.714 79.7698C121.702 79.775 121.689 79.7777 121.677 79.778L121.642 79.7786Z" fill="#FFA79B"/>
<path d="M119.011 80.6861C119.003 80.6862 118.995 80.6852 118.987 80.6828C118.962 80.6763 118.94 80.6601 118.927 80.6378C118.914 80.6155 118.911 80.5889 118.917 80.5639C119.063 80.0114 118.917 78.0581 118.917 78.0386C118.916 78.0258 118.918 78.013 118.922 78.0008C118.926 77.9886 118.932 77.9772 118.941 77.9675C118.949 77.9578 118.959 77.9498 118.971 77.9439C118.982 77.9381 118.994 77.9346 119.007 77.9337C119.02 77.9327 119.033 77.9342 119.045 77.9382C119.057 77.9422 119.069 77.9486 119.078 77.9569C119.088 77.9653 119.096 77.9755 119.102 77.987C119.108 77.9984 119.111 78.0109 119.112 78.0237C119.119 78.1056 119.263 80.0296 119.109 80.6139C119.103 80.6353 119.091 80.654 119.073 80.6672C119.055 80.6803 119.034 80.687 119.011 80.6861Z" fill="#FFA79B"/>
<path d="M164.127 55.1467C162.539 56.8367 157.709 61.4329 152.368 61.1118C146.879 60.7809 146.105 57.1468 145.998 55.9852C147.608 55.1857 149.545 54.4636 151.56 54.0892C156.121 53.2442 157.34 53.252 157.34 53.252C157.34 53.252 161.007 54.1522 164.127 55.1467Z" fill="#FFA79B"/>
<path d="M14.5312 158.462L16.7893 154.019L21.7489 157.125L18.2161 162.007C18.2161 162.007 16.7269 162.408 15.0083 161.046C13.2897 159.684 14.5312 158.462 14.5312 158.462Z" fill="#FFA79B"/>
<path d="M22.664 170.316L10.5473 162.731C10.4263 162.655 10.3222 162.555 10.2415 162.437C10.1608 162.319 10.1052 162.186 10.0783 162.046C10.0513 161.905 10.0535 161.761 10.0848 161.622C10.1161 161.482 10.1757 161.351 10.26 161.236C10.7585 160.553 11.5665 159.705 12.6442 159.426C12.6442 159.426 13.4541 157.981 14.5292 158.465C14.5292 158.465 14.2581 160.724 17.2592 161.41C17.2592 161.41 18.5748 161.134 19.516 162.369L21.8073 166.924C21.8073 166.924 23.9243 168.439 23.7683 169.803C23.7072 170.323 23.1099 170.596 22.664 170.316Z" fill="#72D847"/>
<path d="M22.664 170.316L10.5473 162.73C10.4263 162.655 10.3222 162.555 10.2415 162.437C10.1608 162.319 10.1052 162.186 10.0783 162.045C10.0513 161.905 10.0535 161.761 10.0848 161.621C10.1161 161.482 10.1757 161.351 10.26 161.235C10.7585 160.553 11.5665 159.705 12.6442 159.426C12.6442 159.426 13.224 161.311 12.3842 162.882L20.2492 167.808C20.2492 167.808 20.7972 167.008 21.8034 166.924C21.8034 166.924 23.9204 168.439 23.7644 169.803C23.7072 170.323 23.1099 170.595 22.664 170.316Z" fill="#516277"/>
<path d="M45.1256 165.029L44.6816 160.066H50.5317L50.1287 166.079C50.1287 166.079 49.0789 167.209 46.9001 166.967C44.7213 166.725 45.1256 165.029 45.1256 165.029Z" fill="#FFA79B"/>
<path d="M25.5922 102.679L26.8987 129.314L15.4521 154.83C15.4521 154.83 20.1738 158.28 23.6246 159.188L37.6081 132.674L41.9631 112.606L44.1426 134.218L43.7493 161.095C43.7493 161.095 48.8343 161.761 52.5243 161.095L54.6732 131.493L55.2179 102.164L54.1285 94.0826H27.16L25.5922 102.679Z" fill="white"/>
<path d="M41.9672 112.704C41.9618 112.704 41.9564 112.704 41.951 112.704C41.9255 112.699 41.9027 112.685 41.8876 112.664C41.8724 112.643 41.8663 112.617 41.8704 112.592L42.8694 106.417C42.8736 106.391 42.8878 106.368 42.909 106.352C42.9302 106.337 42.9567 106.331 42.9825 106.335C43.0084 106.339 43.0316 106.353 43.0469 106.374C43.0623 106.396 43.0686 106.422 43.0644 106.448L42.066 112.623C42.062 112.646 42.0498 112.667 42.0316 112.682C42.0135 112.697 41.9906 112.704 41.9672 112.704V112.704Z" fill="#2D4559"/>
<path d="M58.3067 170.761H44.0125C43.8693 170.761 43.7276 170.732 43.5963 170.675C43.4649 170.618 43.3467 170.535 43.2491 170.43C43.1515 170.325 43.0765 170.202 43.0289 170.066C42.9813 169.931 42.9621 169.788 42.9725 169.645C43.0329 168.8 43.2676 167.655 44.0333 166.846C44.0333 166.846 43.952 165.191 45.1227 165.03C45.1227 165.03 46.0912 167.088 48.9967 166.079C48.9967 166.079 49.9652 165.147 51.4179 165.694L55.7768 168.339C55.7768 168.339 58.3769 168.499 58.9677 169.738C59.1965 170.213 58.8351 170.761 58.3067 170.761Z" fill="#72D847"/>
<path d="M58.3067 170.761H44.0125C43.8693 170.761 43.7276 170.732 43.5963 170.675C43.4649 170.618 43.3467 170.535 43.2491 170.43C43.1515 170.325 43.0765 170.201 43.0289 170.066C42.9813 169.931 42.9621 169.788 42.9725 169.645C43.0329 168.8 43.2676 167.655 44.0333 166.846C44.0333 166.846 45.5283 168.137 45.6472 169.914H54.9292C54.9292 169.914 54.9695 168.945 55.7742 168.339C55.7742 168.339 58.3743 168.499 58.9651 169.738C59.1965 170.213 58.8351 170.761 58.3067 170.761Z" fill="#516277"/>
<path d="M38.6566 51.1025L30.7078 53.4718L24.8662 104.1H40.8322L42.4214 95.9104L43.7533 104.1C43.7533 104.1 54.7097 104.013 56.1033 103.287L54.5284 85.1853L56.102 73.1993L59.1291 72.3543C59.1291 72.3543 60.9452 59.7833 59.5841 57.2613C58.223 54.7393 48.4171 52.253 48.4171 52.253L38.6566 51.1025Z" fill="#72D847"/>
<path d="M47.1431 47.0471L47.9881 52.838C47.9881 52.838 48.3508 54.8615 44.9454 54.4981C41.5401 54.1348 39.9404 50.8003 39.9404 50.8003L41.4042 44.7552L47.1431 47.0471Z" fill="#FFA79B"/>
<path d="M37.2148 41.8022C37.2148 41.8022 38.65 46.0655 41.1149 45.6216C43.5797 45.1776 42.7067 43.3758 42.7067 43.3758L43.2066 38.8459L39.3975 39.5018L37.2148 41.8022Z" fill="#594D7A"/>
<path d="M51.2382 39.5825C51.2382 39.5825 51.1375 48.0175 48.0701 48.7436C45.0028 49.4696 42.0251 47.8986 41.1151 45.959C41.1151 45.959 39.3751 47.0282 38.7693 44.3951C38.1635 41.7619 40.1921 42.2767 40.6159 42.9118C40.8832 43.3264 41.0872 43.7786 41.2211 44.2534C41.2211 44.2534 41.8568 44.3951 41.9777 43.487C42.0986 42.579 42.0082 41.1568 42.0082 41.1568L43.3401 38.5841L51.2382 39.5825Z" fill="#FFA79B"/>
<path d="M37.2146 41.8022C37.2146 41.8022 42.4205 38.4931 51.2384 39.5825C51.2384 39.5825 50.7073 31.6174 42.5823 33.6499C35.1417 35.5115 37.2146 41.8022 37.2146 41.8022Z" fill="#72D847"/>
<path d="M42.374 39.9186C42.374 39.9186 48.85 35.6215 54.1442 37.1613C57.4736 38.1298 51.2381 39.5826 51.2381 39.5826C51.2381 39.5826 47.9166 39.0743 42.374 39.9186Z" fill="#72D847"/>
<path d="M46.4111 48.9946C45.4831 48.9864 44.5683 48.7738 43.7318 48.3719C42.947 48.0059 42.2307 47.5082 41.6141 46.9003C41.597 46.8814 41.588 46.8565 41.5889 46.831C41.5899 46.8055 41.6009 46.7815 41.6194 46.7639C41.6379 46.7464 41.6626 46.7369 41.6881 46.7373C41.7136 46.7378 41.7379 46.7482 41.7558 46.7664C42.3594 47.3553 43.0577 47.8387 43.8215 48.1964C44.9824 48.7417 46.7933 49.1935 48.8265 48.251C48.8498 48.2413 48.8759 48.241 48.8994 48.2501C48.9228 48.2593 48.9419 48.2771 48.9525 48.3C48.963 48.3228 48.9644 48.3489 48.9562 48.3728C48.948 48.3966 48.9308 48.4163 48.9084 48.4278C48.1277 48.7978 47.2751 48.9913 46.4111 48.9946Z" fill="#FFA79B"/>
<path d="M46.8021 45.911C44.8359 45.911 43.8875 44.4953 43.8771 44.481C43.8696 44.4703 43.8643 44.4582 43.8615 44.4454C43.8588 44.4326 43.8587 44.4194 43.8611 44.4065C43.8636 44.3937 43.8686 44.3815 43.8759 44.3706C43.8832 44.3597 43.8926 44.3505 43.9035 44.3433C43.9145 44.3361 43.9268 44.3313 43.9397 44.329C43.9525 44.3266 43.9657 44.3269 43.9785 44.3298C43.9912 44.3327 44.0033 44.3382 44.0139 44.3458C44.0245 44.3535 44.0335 44.3632 44.0403 44.3744C44.0897 44.4498 45.2824 46.2171 47.8603 45.584C47.8848 45.5795 47.9101 45.5845 47.9311 45.598C47.952 45.6115 47.9669 45.6326 47.9728 45.6568C47.9788 45.681 47.9752 45.7065 47.9628 45.7282C47.9505 45.7498 47.9303 45.766 47.9065 45.7732C47.5453 45.8636 47.1744 45.9099 46.8021 45.911Z" fill="#FFA79B"/>
<path d="M40.2085 49.6869C40.2085 49.6869 42.438 53.2989 45.4156 54.5346L42.8748 57.2574L38.6562 51.1025L40.2085 49.6869Z" fill="#72D847"/>
<path d="M47.7645 51.2908C47.7645 51.2908 47.927 54.0014 45.416 54.5344L47.264 57.2572C47.264 57.2572 48.6582 54.6741 48.7486 52.7371L47.7645 51.2908Z" fill="#72D847"/>
<path d="M30.7074 53.4717C30.7074 53.4717 26.561 55.0967 24.8658 59.5167C23.1706 63.9367 20.1442 80.4019 20.8703 82.944L29.5874 80.8861L33.0383 67.8101L30.7074 53.4717Z" fill="#72D847"/>
<path d="M29.366 80.5397C29.3514 80.5398 29.337 80.5365 29.3239 80.5302C29.3107 80.5239 29.2991 80.5147 29.29 80.5034C28.4398 79.4595 27.1684 79.3093 27.156 79.308C27.1432 79.3066 27.1308 79.3028 27.1195 79.2966C27.1082 79.2905 27.0982 79.2821 27.0901 79.2721C27.0738 79.2518 27.0662 79.226 27.0689 79.2001C27.0717 79.1742 27.0846 79.1505 27.1048 79.1342C27.1251 79.1179 27.1509 79.1103 27.1768 79.113C27.2321 79.1189 28.5418 79.271 29.4414 80.3792C29.4531 80.3935 29.4605 80.4108 29.4627 80.4291C29.465 80.4474 29.462 80.466 29.4541 80.4827C29.4462 80.4994 29.4337 80.5135 29.4181 80.5233C29.4025 80.5332 29.3845 80.5384 29.366 80.5384V80.5397Z" fill="#E24D4D"/>
<path d="M42.421 96.0051H42.4139C42.4011 96.0042 42.3885 96.0007 42.3771 95.995C42.3656 95.9892 42.3553 95.9813 42.3469 95.9715C42.3385 95.9618 42.3322 95.9505 42.3281 95.9383C42.3241 95.9261 42.3225 95.9132 42.3235 95.9004L45.3187 54.5272C45.3206 54.5013 45.3327 54.4773 45.3523 54.4603C45.372 54.4434 45.3975 54.435 45.4234 54.4368C45.4492 54.4387 45.4733 54.4508 45.4902 54.4705C45.5072 54.4901 45.5156 54.5156 45.5137 54.5415L42.5192 95.9147C42.5174 95.9394 42.5062 95.9625 42.488 95.9793C42.4697 95.9961 42.4458 96.0053 42.421 96.0051V96.0051Z" fill="#E24D4D"/>
<path d="M71.2057 68.2951H30.708V89.634H71.2057V68.2951Z" fill="#C4977E"/>
<path d="M50.9569 68.2951H30.708V89.634H50.9569V68.2951Z" fill="#AF8366"/>
<g style="mix-blend-mode:overlay" opacity="0.3">
<path d="M42.421 68.2951H39.2432V89.634H42.421V68.2951Z" fill="white"/>
</g>
<g style="mix-blend-mode:overlay" opacity="0.3">
<path d="M62.7609 68.2951H59.583V89.634H62.7609V68.2951Z" fill="white"/>
</g>
<g style="mix-blend-mode:overlay" opacity="0.3">
<path d="M70.3105 71.6407L68.4567 69.4105L66.6035 71.6407H67.4394V74.4929H69.4739V71.6407H70.3105Z" fill="white"/>
</g>
<path d="M67.2098 58.2156H47.5967V68.2945H67.2098V58.2156Z" fill="#AF8366"/>
<g style="mix-blend-mode:overlay" opacity="0.3">
<path d="M67.2098 58.2156H47.5967V61.5754H67.2098V58.2156Z" fill="white"/>
</g>
<path d="M43.067 88.3404C43.067 88.3404 44.2188 87.3095 45.0547 86.9903L46.1454 86.5834C46.2156 86.5573 46.2915 86.5503 46.3653 86.5631C46.4392 86.5759 46.5083 86.608 46.5656 86.6563C46.6229 86.7045 46.6664 86.7672 46.6916 86.8377C46.7168 86.9083 46.7228 86.9843 46.709 87.0579C46.6544 87.3491 46.5042 87.6553 46.1363 87.8002L45.2036 88.7336L46.9716 88.4632L48.8377 87.7482C48.8377 87.7482 50.0409 86.7167 50.4335 86.7414C50.8261 86.7661 51.244 87.2568 50.7773 87.6988C50.3106 88.1408 49.5495 88.8532 49.5495 88.8532L48.4919 89.5435L50.5069 89.1756C50.5069 89.1756 52.2749 88.0212 52.7663 88.0706C53.2577 88.12 53.3552 88.6595 53.3552 88.6595L51.8329 89.4207H53.1329C53.1329 89.4207 53.4768 89.9608 52.544 90.1357C52.544 90.1357 52.765 90.3307 52.349 90.553C51.933 90.7753 50.3607 91.3876 50.3607 91.3876L46.6284 92.3301L41.4933 91.9524C41.4933 91.9524 41.0819 89.6911 43.067 88.3404Z" fill="#FFA79B"/>
<path d="M24.8657 80.5833L20.8701 82.9441C20.8701 82.9441 22.7467 87.2276 30.2535 90.1331C37.7604 93.0386 39.7975 91.8231 39.7975 91.8231L41.4953 91.9531C41.4953 91.9531 41.7345 89.3427 43.0664 88.3437L40.8317 87.8204C40.8317 87.8204 41.0267 86.8214 39.3939 86.2162C37.7611 85.6111 29.5873 80.8862 29.5873 80.8862L24.8657 80.5833Z" fill="#72D847"/>
<path d="M27.7106 82.1134C27.6934 82.1133 27.6766 82.1088 27.6617 82.1001C27.6469 82.0915 27.6346 82.0791 27.6261 82.0642C27.6176 82.0493 27.6132 82.0324 27.6133 82.0152C27.6134 81.9981 27.618 81.9812 27.6267 81.9665C27.6488 81.9288 28.1903 81.0369 29.5702 80.7899C29.5951 80.7866 29.6204 80.793 29.6407 80.8078C29.661 80.8225 29.6749 80.8446 29.6793 80.8693C29.6837 80.8941 29.6785 80.9196 29.6646 80.9405C29.6507 80.9615 29.6292 80.9762 29.6047 80.9817C28.3164 81.2125 27.7996 82.0574 27.7944 82.0659C27.7858 82.0804 27.7735 82.0924 27.7588 82.1007C27.7441 82.109 27.7275 82.1134 27.7106 82.1134V82.1134Z" fill="#E24D4D"/>
<path d="M48.5341 90.8365C48.5103 90.8368 48.4873 90.8284 48.4693 90.8128C48.4513 90.7973 48.4396 90.7757 48.4364 90.7521C48.4332 90.7286 48.4388 90.7047 48.452 90.6849C48.4652 90.6652 48.4851 90.6509 48.5081 90.6448L50.4276 90.1248L51.7835 89.3376C51.7945 89.3302 51.807 89.3251 51.8202 89.3226C51.8333 89.3202 51.8468 89.3205 51.8598 89.3235C51.8729 89.3265 51.8851 89.3321 51.8959 89.34C51.9066 89.348 51.9156 89.3581 51.9223 89.3696C51.929 89.3812 51.9333 89.394 51.9348 89.4073C51.9364 89.4205 51.9351 89.434 51.9313 89.4468C51.9274 89.4596 51.9209 89.4714 51.9123 89.4816C51.9036 89.4918 51.893 89.5001 51.881 89.506L50.516 90.2997C50.5087 90.304 50.5008 90.3073 50.4926 90.3094L48.5608 90.8333C48.5521 90.8358 48.5431 90.8369 48.5341 90.8365Z" fill="#FFA79B"/>
<path d="M48.8123 91.5071C48.7889 91.5071 48.7662 91.4986 48.7485 91.4832C48.7307 91.4679 48.7191 91.4466 48.7158 91.4234C48.7125 91.4001 48.7177 91.3765 48.7304 91.3568C48.7431 91.337 48.7625 91.3225 48.785 91.316L50.7448 90.7446L52.5083 90.042C52.5202 90.0373 52.5329 90.0349 52.5457 90.0351C52.5585 90.0353 52.5712 90.038 52.5829 90.043C52.5947 90.0481 52.6054 90.0554 52.6143 90.0646C52.6232 90.0738 52.6303 90.0847 52.635 90.0966C52.6397 90.1085 52.6421 90.1212 52.6419 90.134C52.6417 90.1468 52.639 90.1595 52.634 90.1713C52.6289 90.183 52.6215 90.1937 52.6124 90.2026C52.6032 90.2116 52.5923 90.2186 52.5804 90.2233L50.8124 90.9273L50.8039 90.9305L48.8396 91.5032C48.8308 91.5058 48.8216 91.507 48.8123 91.5071V91.5071Z" fill="#FFA79B"/>
<path d="M44.3429 88.9554C44.317 88.9572 44.2915 88.9486 44.2719 88.9316C44.2523 88.9146 44.2403 88.8906 44.2385 88.8647C44.2367 88.8388 44.2452 88.8133 44.2623 88.7938C44.2793 88.7742 44.3033 88.7622 44.3292 88.7604L45.1891 88.6375C45.215 88.6339 45.2412 88.6407 45.2621 88.6564C45.2829 88.6722 45.2967 88.6955 45.3003 88.7214C45.3039 88.7472 45.2971 88.7735 45.2814 88.7943C45.2657 88.8151 45.2423 88.8289 45.2165 88.8325L44.3572 88.9554H44.3429Z" fill="#FFA79B"/>
<path d="M47.4863 91.5073C47.4628 91.5072 47.4401 91.4987 47.4223 91.4834C47.4045 91.468 47.3929 91.4467 47.3895 91.4235L47.1113 89.4345C47.1077 89.4086 47.1146 89.3824 47.1304 89.3616C47.1462 89.3408 47.1696 89.3272 47.1954 89.3236C47.2213 89.3201 47.2475 89.327 47.2683 89.3428C47.2891 89.3586 47.3027 89.3819 47.3063 89.4078L47.5845 91.3961C47.5863 91.4088 47.5856 91.4218 47.5825 91.4342C47.5793 91.4466 47.5737 91.4582 47.5661 91.4685C47.5584 91.4788 47.5488 91.4874 47.5378 91.494C47.5268 91.5005 47.5146 91.5048 47.5019 91.5067L47.4863 91.5073Z" fill="#FFA79B"/>
<path d="M59.583 89.6331H66.8773C66.8773 89.6331 66.3014 91.002 65.0534 90.9474C63.8054 90.8928 60.4943 91.3251 59.583 89.6331Z" fill="#FFA79B"/>
<path d="M38.2039 92.1772C36.7908 92.1772 34.3162 91.8099 30.2186 90.2272C26.3245 88.7198 23.9682 86.8355 22.6786 85.5206C21.2753 84.0906 20.8021 83.031 20.7826 82.9855C20.7722 82.9618 20.7717 82.935 20.7812 82.9109C20.7906 82.8869 20.8092 82.8675 20.8329 82.8572C20.8566 82.8468 20.8835 82.8463 20.9076 82.8558C20.9316 82.8652 20.951 82.8838 20.9613 82.9075C20.9659 82.9179 21.4443 83.9859 22.8268 85.3919C24.1041 86.6919 26.435 88.5521 30.2901 90.0445C37.6351 92.887 39.7294 91.7527 39.7496 91.741C39.7668 91.7313 39.7864 91.7268 39.8061 91.7281L41.504 91.8581C41.5298 91.8601 41.5538 91.8722 41.5707 91.8919C41.5876 91.9116 41.596 91.9372 41.594 91.963C41.592 91.9889 41.5798 92.0129 41.5601 92.0298C41.5405 92.0467 41.5149 92.0551 41.489 92.0531L39.8204 91.9276C39.7002 91.9816 39.2341 92.1772 38.2039 92.1772Z" fill="#E24D4D"/>
<path d="M23.1787 50.1527C27.4457 45.8856 27.4457 38.9673 23.1787 34.7002C18.9116 30.4332 11.9933 30.4332 7.72622 34.7002C3.45915 38.9673 3.45914 45.8856 7.72621 50.1527C11.9933 54.4197 18.9116 54.4197 23.1787 50.1527Z" fill="#72D847"/>
<path d="M14.1065 47.1265C13.9872 47.1264 13.8695 47.0998 13.7619 47.0487C13.6542 46.9975 13.5592 46.9231 13.4838 46.8308L9.76184 42.2808C9.69208 42.1992 9.63931 42.1045 9.60663 42.0023C9.57395 41.9001 9.56202 41.7924 9.57153 41.6854C9.58105 41.5785 9.61181 41.4746 9.66204 41.3798C9.71226 41.2849 9.78092 41.201 9.86399 41.1331C9.94706 41.0651 10.0429 41.0144 10.1458 40.984C10.2487 40.9535 10.3567 40.944 10.4633 40.9558C10.57 40.9677 10.6732 41.0007 10.767 41.053C10.8607 41.1053 10.9431 41.1757 11.0092 41.2603L14.1091 45.0491L19.8941 38.0187C20.0298 37.8538 20.2256 37.7494 20.4382 37.7288C20.6509 37.7081 20.863 37.7728 21.028 37.9086C21.193 38.0443 21.2973 38.24 21.3179 38.4527C21.3386 38.6653 21.2739 38.8775 21.1382 39.0425L14.7311 46.8353C14.6549 46.927 14.5594 47.0006 14.4514 47.0509C14.3434 47.1013 14.2256 47.1271 14.1065 47.1265V47.1265Z" fill="white"/>
<path d="M15.4526 34.961C15.4115 34.961 15.3722 34.9447 15.3432 34.9157C15.3142 34.8867 15.2979 34.8473 15.2979 34.8063V32.0204C15.2979 31.9794 15.3142 31.94 15.3432 31.911C15.3722 31.882 15.4115 31.8657 15.4526 31.8657C15.4936 31.8657 15.5329 31.882 15.5619 31.911C15.591 31.94 15.6073 31.9794 15.6073 32.0204V34.8063C15.6073 34.8266 15.6034 34.8468 15.5957 34.8656C15.5879 34.8844 15.5765 34.9015 15.5621 34.9159C15.5478 34.9303 15.5307 34.9417 15.5119 34.9494C15.493 34.9572 15.4729 34.9611 15.4526 34.961V34.961Z" fill="#72D847"/>
<path d="M15.4526 52.9868C15.4116 52.9866 15.3723 52.9703 15.3434 52.9413C15.3144 52.9123 15.298 52.873 15.2979 52.8321V50.0462C15.2979 50.0051 15.3142 49.9658 15.3432 49.9368C15.3722 49.9078 15.4115 49.8915 15.4526 49.8915C15.4936 49.8915 15.5329 49.9078 15.5619 49.9368C15.591 49.9658 15.6073 50.0051 15.6073 50.0462V52.8321C15.6073 52.8524 15.6033 52.8725 15.5955 52.8913C15.5877 52.9101 15.5763 52.9271 15.5619 52.9415C15.5476 52.9558 15.5305 52.9672 15.5118 52.975C15.493 52.9828 15.4729 52.9868 15.4526 52.9868Z" fill="#72D847"/>
<path d="M25.8586 42.5809H23.0727C23.0316 42.5809 22.9923 42.5647 22.9633 42.5356C22.9343 42.5066 22.918 42.4673 22.918 42.4262C22.918 42.3852 22.9343 42.3459 22.9633 42.3169C22.9923 42.2878 23.0316 42.2715 23.0727 42.2715H25.8586C25.8996 42.2715 25.9389 42.2878 25.968 42.3169C25.997 42.3459 26.0133 42.3852 26.0133 42.4262C26.0133 42.4673 25.997 42.5066 25.968 42.5356C25.9389 42.5647 25.8996 42.5809 25.8586 42.5809V42.5809Z" fill="#72D847"/>
<path d="M7.83221 42.5809H5.0463C5.00527 42.5809 4.96593 42.5647 4.93692 42.5356C4.9079 42.5066 4.8916 42.4673 4.8916 42.4262C4.8916 42.3852 4.9079 42.3459 4.93692 42.3169C4.96593 42.2878 5.00527 42.2715 5.0463 42.2715H7.83221C7.87324 42.2715 7.91259 42.2878 7.9416 42.3169C7.97061 42.3459 7.98691 42.3852 7.98691 42.4262C7.98691 42.4673 7.97061 42.5066 7.9416 42.5356C7.91259 42.5647 7.87324 42.5809 7.83221 42.5809V42.5809Z" fill="#72D847"/>
<path d="M184.015 50.7238C187.06 47.679 187.06 42.7423 184.015 39.6975C180.97 36.6526 176.034 36.6527 172.989 39.6975C169.944 42.7423 169.944 47.6789 172.989 50.7238C176.034 53.7686 180.97 53.7686 184.015 50.7238Z" fill="#72D847"/>
<path d="M173.715 50.591L173.032 53.7253C173.012 53.8134 173.018 53.9055 173.051 53.99C173.083 54.0744 173.14 54.1472 173.214 54.1993C173.288 54.2513 173.375 54.2801 173.466 54.282C173.556 54.284 173.645 54.259 173.721 54.2102L176.814 52.2771L173.715 50.591Z" fill="#72D847"/>
<path d="M174.701 42.5327C175.14 42.0934 175.737 41.8466 176.358 41.8466C176.98 41.8466 177.576 42.0934 178.016 42.5327L178.501 43.0183L178.987 42.5327C179.427 42.0934 180.023 41.8466 180.644 41.8466C181.266 41.8466 181.862 42.0934 182.302 42.5327V42.5327C182.741 42.9725 182.988 43.5686 182.988 44.1902C182.988 44.8118 182.741 45.408 182.302 45.8477L181.816 46.3333L180.646 47.5033L178.917 49.2323C178.863 49.2867 178.798 49.3299 178.727 49.3594C178.656 49.3889 178.58 49.404 178.503 49.404C178.426 49.404 178.35 49.3889 178.279 49.3594C178.208 49.3299 178.144 49.2867 178.089 49.2323L176.36 47.5033L175.19 46.3333L174.705 45.8477C174.265 45.4085 174.017 44.8126 174.017 44.1911C174.016 43.5695 174.262 42.973 174.701 42.5327V42.5327Z" fill="white"/>
<path d="M171.486 17.8398H138.791C137 17.8398 135.548 19.292 135.548 21.0833V25.892C135.548 27.6833 137 29.1355 138.791 29.1355H171.486C173.278 29.1355 174.73 27.6833 174.73 25.892V21.0833C174.73 19.292 173.278 17.8398 171.486 17.8398Z" fill="#687CCD"/>
<path d="M135.548 24.8976V30.2543C135.548 30.4116 135.595 30.5653 135.682 30.696C135.77 30.8267 135.894 30.9286 136.039 30.9887C136.184 31.0489 136.344 31.0646 136.498 31.034C136.653 31.0034 136.794 30.9277 136.906 30.8166L140.091 27.6316L135.548 24.8976Z" fill="#687CCD"/>
<path d="M141.61 25.484L142.852 26.1002C142.903 26.1255 142.96 26.1363 143.017 26.1315C143.073 26.1267 143.128 26.1065 143.174 26.073C143.22 26.0396 143.256 25.9941 143.278 25.9416C143.3 25.8891 143.307 25.8316 143.299 25.7752L143.096 24.4043C143.09 24.3573 143.094 24.3094 143.109 24.2643C143.124 24.2192 143.149 24.1782 143.182 24.1443L144.152 23.1544C144.192 23.1137 144.22 23.0628 144.233 23.0074C144.246 22.9519 144.243 22.8939 144.226 22.8397C144.208 22.7855 144.176 22.7372 144.133 22.7C144.09 22.6628 144.037 22.6381 143.981 22.6286L142.616 22.3978C142.568 22.3897 142.523 22.3708 142.484 22.3425C142.445 22.3142 142.413 22.2773 142.391 22.2346L141.749 21.0068C141.723 20.9562 141.683 20.9139 141.635 20.8843C141.586 20.8547 141.53 20.8391 141.473 20.8391C141.416 20.8391 141.36 20.8547 141.312 20.8843C141.263 20.9139 141.223 20.9562 141.197 21.0068L140.555 22.2346C140.533 22.2773 140.501 22.3142 140.462 22.3425C140.423 22.3708 140.378 22.3897 140.33 22.3978L138.965 22.6286C138.909 22.6382 138.857 22.6629 138.814 22.7002C138.771 22.7375 138.739 22.7858 138.721 22.84C138.704 22.8941 138.701 22.9521 138.714 23.0075C138.727 23.0629 138.755 23.1137 138.795 23.1544L139.765 24.1443C139.798 24.1783 139.823 24.2194 139.838 24.2645C139.853 24.3095 139.857 24.3573 139.851 24.4043L139.647 25.7752C139.639 25.8316 139.646 25.8891 139.668 25.9416C139.69 25.9941 139.726 26.0396 139.773 26.073C139.819 26.1065 139.873 26.1267 139.93 26.1315C139.986 26.1363 140.043 26.1255 140.095 26.1002L141.336 25.484C141.379 25.463 141.426 25.452 141.473 25.452C141.521 25.452 141.568 25.463 141.61 25.484Z" fill="white"/>
<path d="M148.642 25.484L149.883 26.1002C149.934 26.1257 149.991 26.1368 150.048 26.1321C150.105 26.1274 150.16 26.1072 150.206 26.0736C150.252 26.0401 150.288 25.9945 150.31 25.9419C150.332 25.8893 150.339 25.8316 150.331 25.7752L150.128 24.4043C150.121 24.3573 150.126 24.3095 150.14 24.2644C150.155 24.2193 150.18 24.1783 150.214 24.1443L151.183 23.1544C151.223 23.1137 151.251 23.0629 151.264 23.0075C151.277 22.9521 151.275 22.8941 151.257 22.84C151.24 22.7858 151.208 22.7375 151.165 22.7002C151.122 22.6629 151.069 22.6382 151.013 22.6286L149.648 22.3978C149.601 22.3897 149.556 22.3708 149.517 22.3425C149.478 22.3142 149.446 22.2773 149.424 22.2346L148.782 21.0068C148.756 20.9562 148.716 20.9139 148.668 20.8843C148.619 20.8547 148.563 20.8391 148.506 20.8391C148.449 20.8391 148.393 20.8547 148.344 20.8843C148.296 20.9139 148.256 20.9562 148.23 21.0068L147.588 22.2346C147.565 22.2773 147.533 22.3143 147.495 22.3426C147.456 22.3709 147.411 22.3898 147.363 22.3978L145.998 22.6286C145.942 22.6381 145.89 22.6628 145.846 22.7C145.803 22.7372 145.771 22.7855 145.754 22.8397C145.736 22.8939 145.734 22.9519 145.747 23.0074C145.76 23.0628 145.787 23.1137 145.827 23.1544L146.797 24.1443C146.83 24.1783 146.855 24.2193 146.87 24.2644C146.885 24.3095 146.889 24.3573 146.883 24.4043L146.68 25.7752C146.672 25.8316 146.679 25.8893 146.701 25.9419C146.723 25.9945 146.759 26.0401 146.805 26.0736C146.851 26.1072 146.906 26.1274 146.962 26.1321C147.019 26.1368 147.076 26.1257 147.127 26.1002L148.368 25.484C148.411 25.4631 148.458 25.4522 148.505 25.4522C148.553 25.4522 148.6 25.4631 148.642 25.484V25.484Z" fill="white"/>
<path d="M155.677 25.4839L156.918 26.1001C156.969 26.1256 157.026 26.1366 157.083 26.1319C157.14 26.1273 157.194 26.107 157.241 26.0735C157.287 26.04 157.323 25.9944 157.345 25.9418C157.367 25.8891 157.374 25.8315 157.365 25.7751L157.163 24.4042C157.156 24.3572 157.16 24.3093 157.175 24.2643C157.19 24.2192 157.215 24.1781 157.248 24.1442L158.218 23.1543C158.258 23.1135 158.286 23.0627 158.299 23.0072C158.312 22.9517 158.309 22.8938 158.292 22.8396C158.274 22.7854 158.242 22.7371 158.199 22.6998C158.156 22.6626 158.103 22.6379 158.047 22.6284L156.682 22.3977C156.635 22.3896 156.59 22.3707 156.551 22.3424C156.512 22.3141 156.48 22.2772 156.458 22.2345L155.816 21.0066C155.79 20.9561 155.75 20.9138 155.701 20.8842C155.653 20.8547 155.597 20.8391 155.54 20.8391C155.483 20.8391 155.427 20.8547 155.378 20.8842C155.329 20.9138 155.29 20.9561 155.263 21.0066L154.622 22.2345C154.599 22.2772 154.568 22.3141 154.529 22.3424C154.49 22.3707 154.445 22.3896 154.397 22.3977L153.032 22.6284C152.976 22.6379 152.924 22.6626 152.881 22.6998C152.837 22.7371 152.805 22.7854 152.788 22.8396C152.77 22.8938 152.768 22.9517 152.781 23.0072C152.794 23.0627 152.822 23.1135 152.861 23.1543L153.831 24.1442C153.864 24.1781 153.889 24.2192 153.904 24.2643C153.919 24.3093 153.924 24.3572 153.917 24.4042L153.714 25.7751C153.706 25.8315 153.713 25.8891 153.735 25.9418C153.757 25.9944 153.793 26.04 153.839 26.0735C153.885 26.107 153.94 26.1273 153.997 26.1319C154.053 26.1366 154.11 26.1256 154.161 26.1001L155.402 25.4839C155.445 25.4628 155.492 25.4519 155.54 25.4519C155.587 25.4519 155.635 25.4628 155.677 25.4839V25.4839Z" fill="white"/>
<path d="M162.707 25.484L163.948 26.1002C163.999 26.1255 164.056 26.1363 164.113 26.1315C164.169 26.1267 164.224 26.1065 164.27 26.073C164.316 26.0396 164.352 25.9941 164.374 25.9416C164.396 25.8891 164.403 25.8316 164.395 25.7752L164.192 24.4043C164.186 24.3573 164.19 24.3095 164.205 24.2644C164.22 24.2193 164.245 24.1783 164.278 24.1443L165.248 23.1544C165.288 23.1137 165.316 23.0628 165.329 23.0074C165.342 22.9519 165.339 22.8939 165.322 22.8397C165.304 22.7855 165.272 22.7372 165.229 22.7C165.186 22.6628 165.133 22.6381 165.077 22.6286L163.712 22.3978C163.664 22.3897 163.619 22.3708 163.58 22.3425C163.541 22.3142 163.509 22.2773 163.487 22.2346L162.845 21.0068C162.819 20.9562 162.78 20.9139 162.731 20.8843C162.682 20.8547 162.626 20.8391 162.569 20.8391C162.512 20.8391 162.456 20.8547 162.408 20.8843C162.359 20.9139 162.319 20.9562 162.293 21.0068L161.651 22.2346C161.629 22.2773 161.597 22.3142 161.558 22.3425C161.519 22.3708 161.475 22.3897 161.427 22.3978L160.062 22.6286C160.006 22.6382 159.954 22.6629 159.911 22.7002C159.867 22.7375 159.835 22.7858 159.818 22.84C159.8 22.8941 159.798 22.9521 159.811 23.0075C159.824 23.0629 159.852 23.1137 159.892 23.1544L160.862 24.1443C160.895 24.1783 160.92 24.2193 160.935 24.2644C160.95 24.3095 160.954 24.3573 160.947 24.4043L160.744 25.7752C160.736 25.8316 160.743 25.8891 160.765 25.9416C160.787 25.9941 160.823 26.0396 160.869 26.073C160.915 26.1065 160.97 26.1267 161.026 26.1315C161.083 26.1363 161.14 26.1255 161.191 26.1002L162.433 25.484C162.475 25.4631 162.522 25.4522 162.57 25.4522C162.617 25.4522 162.664 25.4631 162.707 25.484V25.484Z" fill="white"/>
<path d="M169.738 25.484L170.98 26.1002C171.031 26.1256 171.088 26.1365 171.144 26.1317C171.201 26.1269 171.255 26.1067 171.302 26.0732C171.348 26.0397 171.384 25.9942 171.406 25.9416C171.428 25.8891 171.435 25.8315 171.426 25.7752L171.223 24.4043C171.217 24.3573 171.221 24.3095 171.236 24.2644C171.251 24.2193 171.276 24.1783 171.309 24.1443L172.279 23.1544C172.319 23.1137 172.347 23.0629 172.36 23.0075C172.373 22.9521 172.37 22.8941 172.353 22.84C172.335 22.7858 172.303 22.7375 172.26 22.7002C172.217 22.6629 172.165 22.6382 172.109 22.6286L170.744 22.3978C170.696 22.3897 170.651 22.3708 170.612 22.3425C170.574 22.3142 170.542 22.2773 170.519 22.2346L169.878 21.0068C169.852 20.9562 169.812 20.9139 169.763 20.8843C169.715 20.8547 169.659 20.8391 169.602 20.8391C169.545 20.8391 169.489 20.8547 169.44 20.8843C169.391 20.9139 169.352 20.9562 169.325 21.0068L168.684 22.2346C168.661 22.2773 168.629 22.3142 168.59 22.3425C168.551 22.3708 168.506 22.3897 168.459 22.3978L167.094 22.6286C167.038 22.6381 166.985 22.6628 166.942 22.7C166.899 22.7372 166.867 22.7855 166.849 22.8397C166.832 22.8939 166.829 22.9519 166.842 23.0074C166.855 23.0628 166.883 23.1137 166.923 23.1544L167.893 24.1443C167.926 24.1783 167.951 24.2193 167.966 24.2644C167.981 24.3095 167.985 24.3573 167.979 24.4043L167.773 25.7752C167.764 25.8316 167.771 25.8893 167.793 25.9419C167.815 25.9945 167.851 26.0401 167.897 26.0736C167.943 26.1072 167.998 26.1274 168.055 26.1321C168.112 26.1368 168.169 26.1257 168.22 26.1002L169.461 25.484C169.504 25.4625 169.551 25.4514 169.599 25.4514C169.648 25.4514 169.695 25.4625 169.738 25.484Z" fill="white"/>
<path d="M156.181 47.4307L157.451 53.817C157.451 53.817 155.121 56.872 152.972 56.8135C150.823 56.755 151.098 54.1485 151.098 54.1485L151.087 50.4857L156.181 47.4307Z" fill="#FFA79B"/>
<path d="M145.98 43.7984C145.98 43.7984 146.647 52.2432 150.855 52.2731C155.064 52.303 156.483 48.9152 156.483 48.9152C156.483 48.9152 157.725 48.9757 158.087 47.0686C158.45 45.1614 156.967 44.7988 156.271 45.1615C155.575 45.5242 155.545 45.9187 155.545 45.9187C155.545 45.9187 149.138 44.9496 147.726 41.6807C147.726 41.6794 147.221 43.7802 145.98 43.7984Z" fill="#FFA79B"/>
<path d="M155.697 42.4261L154.098 45.6131L155.153 45.8478L156.181 42.7693L155.697 42.4261Z" fill="#72D847"/>
<path d="M149.513 49.3371C149.513 49.3371 151.357 48.9562 152.655 48.1704C152.655 48.1704 153.012 49.7895 151.203 50.2179C150.157 50.4655 149.513 49.3371 149.513 49.3371Z" fill="white"/>
<path d="M150.956 52.3738C150.77 52.3738 150.66 52.364 150.647 52.3627C150.635 52.3615 150.622 52.3578 150.611 52.3518C150.599 52.3458 150.589 52.3376 150.581 52.3277C150.573 52.3178 150.567 52.3064 150.563 52.2941C150.559 52.2819 150.558 52.2689 150.559 52.2561C150.56 52.2433 150.564 52.2309 150.57 52.2195C150.576 52.2081 150.584 52.1981 150.594 52.1899C150.604 52.1816 150.615 52.1755 150.628 52.1717C150.64 52.1679 150.653 52.1665 150.666 52.1677C150.699 52.171 154.064 52.4492 156.035 49.5112C156.042 49.5 156.051 49.4904 156.061 49.4829C156.072 49.4754 156.084 49.4701 156.097 49.4673C156.11 49.4645 156.123 49.4644 156.136 49.4669C156.149 49.4693 156.161 49.4744 156.172 49.4817C156.183 49.4889 156.192 49.4983 156.199 49.5093C156.206 49.5203 156.211 49.5326 156.213 49.5454C156.216 49.5583 156.215 49.5715 156.213 49.5843C156.21 49.5971 156.204 49.6091 156.196 49.6197C155.364 50.8675 154.102 51.7656 152.651 52.143C152.098 52.2924 151.528 52.3699 150.956 52.3738V52.3738Z" fill="#FFA79B"/>
<path d="M158.662 86.2102C158.655 86.2101 158.647 86.209 158.64 86.207C158.625 86.2037 158.612 86.1973 158.601 86.1882C158.59 86.179 158.581 86.1675 158.575 86.1543L154.278 77.0965C154.272 77.0846 154.269 77.0717 154.269 77.0585C154.268 77.0453 154.27 77.0322 154.275 77.0198C154.279 77.0076 154.287 76.9965 154.296 76.9872C154.305 76.9778 154.315 76.9703 154.327 76.9652L160.49 74.3093C160.473 74.1865 160.467 73.9603 160.613 73.842C160.718 73.7568 160.873 73.751 161.068 73.8238L162.498 65.3932C162.5 65.3804 162.505 65.3682 162.512 65.3572C162.519 65.3462 162.527 65.3366 162.538 65.3291C162.549 65.3215 162.561 65.3161 162.573 65.3132C162.586 65.3103 162.599 65.3098 162.612 65.312C162.625 65.3141 162.637 65.3188 162.648 65.3256C162.659 65.3325 162.668 65.3415 162.676 65.352C162.683 65.3626 162.689 65.3746 162.692 65.3872C162.695 65.3998 162.695 65.4129 162.693 65.4257L161.24 73.9778C161.238 73.9926 161.232 74.0066 161.223 74.0187C161.214 74.0309 161.203 74.0409 161.19 74.048C161.176 74.0548 161.161 74.0583 161.146 74.0583C161.131 74.0583 161.116 74.0548 161.102 74.048C160.926 73.9642 160.796 73.944 160.736 73.9921C160.657 74.0571 160.671 74.2573 160.694 74.3444C160.7 74.3668 160.697 74.3903 160.687 74.4108C160.677 74.4314 160.659 74.4477 160.638 74.4569L154.497 77.1024L158.699 85.9651L165.988 80.4083C165.999 80.4005 166.01 80.3948 166.023 80.3916C166.035 80.3883 166.048 80.3875 166.061 80.3892C166.073 80.3909 166.086 80.3951 166.097 80.4016C166.108 80.408 166.118 80.4166 166.125 80.4268C166.133 80.437 166.139 80.4487 166.142 80.461C166.145 80.4734 166.146 80.4864 166.144 80.4991C166.143 80.5118 166.138 80.524 166.132 80.5351C166.126 80.5462 166.117 80.5559 166.107 80.5636L158.721 86.1933C158.704 86.2052 158.683 86.2111 158.662 86.2102Z" fill="#72D847"/>
<path d="M145.708 72.3478C145.689 72.3477 145.671 72.3425 145.656 72.3327C145.64 72.3229 145.628 72.309 145.62 72.2925C145.555 72.1534 143.976 68.8716 143.916 67.7152C143.855 66.5589 145.485 61.3056 145.554 61.0852C145.558 61.0723 145.563 61.0603 145.571 61.0497C145.579 61.0392 145.59 61.0304 145.601 61.0239C145.613 61.0174 145.626 61.0133 145.639 61.0119C145.652 61.0106 145.665 61.0119 145.678 61.0158C145.691 61.0198 145.702 61.0262 145.712 61.0349C145.722 61.0435 145.731 61.0541 145.736 61.066C145.742 61.0779 145.746 61.0909 145.746 61.1041C145.747 61.1174 145.745 61.1306 145.74 61.1431C145.723 61.1977 144.05 66.5875 144.11 67.7081C144.17 68.8287 145.779 72.1775 145.796 72.2106C145.803 72.2255 145.806 72.242 145.805 72.2585C145.804 72.2749 145.799 72.2909 145.79 72.3049C145.781 72.3189 145.769 72.3305 145.755 72.3385C145.74 72.3466 145.724 72.3509 145.708 72.351V72.3478Z" fill="#72D847"/>
</svg>
