<svg xmlns="http://www.w3.org/2000/svg" data-name="Layer 2" viewBox="0 0 28 35" x="0px" y="0px"><title>UI</title><path d="M14,1A12.984,12.984,0,0,0,2.77,20.529L1.052,25.684A1,1,0,0,0,2,27a1.014,1.014,0,0,0,.316-.051L7.472,25.23A13,13,0,1,0,14,1Zm0,24a10.96,10.96,0,0,1-5.87-1.709.994.994,0,0,0-.852-.1l-3.7,1.232,1.232-3.7a1,1,0,0,0-.1-.852A10.992,10.992,0,1,1,14,25Z"/><path d="M9,11h5a1,1,0,0,0,0-2H9a1,1,0,0,0,0,2Z"/><path d="M19,13H9a1,1,0,0,0,0,2H19a1,1,0,0,0,0-2Z"/><path d="M19,17H9a1,1,0,0,0,0,2H19a1,1,0,0,0,0-2Z"/><text x="0" y="43" fill="#000000" font-size="5px" font-weight="bold" font-family="'Helvetica Neue', Helvetica, Arial-Unicode, Arial, Sans-serif">Created by Ilham Fitrotul Hayat</text><text x="0" y="48" fill="#000000" font-size="5px" font-weight="bold" font-family="'Helvetica Neue', Helvetica, Arial-Unicode, Arial, Sans-serif">from the Noun Project</text></svg>