<svg xmlns="http://www.w3.org/2000/svg" viewBox="0 0 24 30" fill="none" x="0px" y="0px"><path fill-rule="evenodd" clip-rule="evenodd" d="M12.5663 3.6477C12.2849 3.45077 11.9105 3.45077 11.6292 3.6477L2.84867 9.79404C2.47898 10.0528 2.38908 10.5623 2.64786 10.932C2.90664 11.3017 3.41611 11.3916 3.78579 11.1328L4.34757 10.7395C4.50031 10.6326 4.69984 10.6196 4.86521 10.7057C5.03057 10.7918 5.1343 10.9627 5.1343 11.1492V17.9268C5.1343 19.348 6.28635 20.5 7.70747 20.5H16.488C17.9091 20.5 19.0611 19.348 19.0611 17.9268V11.1492C19.0611 10.9627 19.1649 10.7918 19.3302 10.7057C19.4956 10.6196 19.6951 10.6326 19.8479 10.7395L20.4096 11.1328C20.7793 11.3916 21.2888 11.3017 21.5476 10.932C21.8064 10.5623 21.7164 10.0528 21.3468 9.79404L12.5663 3.6477ZM11.0557 2.82847C11.6813 2.39051 12.5141 2.39051 13.1397 2.82847L21.9202 8.97481C22.7424 9.5503 22.9423 10.6833 22.3668 11.5054C21.8422 12.2548 20.8545 12.4873 20.0611 12.0867V17.9268C20.0611 19.9002 18.4614 21.5 16.488 21.5H7.70747C5.73407 21.5 4.1343 19.9002 4.1343 17.9268V12.0867C3.34097 12.4873 2.35319 12.2548 1.82862 11.5054C1.25313 10.6833 1.45307 9.5503 2.27521 8.97481L11.0557 2.82847Z" fill="black"/><text x="0" y="39" fill="#000000" font-size="5px" font-weight="bold" font-family="'Helvetica Neue', Helvetica, Arial-Unicode, Arial, Sans-serif">Created by Kawalan Icon</text><text x="0" y="44" fill="#000000" font-size="5px" font-weight="bold" font-family="'Helvetica Neue', Helvetica, Arial-Unicode, Arial, Sans-serif">from the Noun Project</text></svg>