<svg xmlns="http://www.w3.org/2000/svg" viewBox="0 0 64 80" x="0px" y="0px"><title>1</title><g data-name="Layer 5"><path d="M37.87,31.5l-2.5-4.33a1,1,0,0,0-.87-.5h-5a1,1,0,0,0-.87.5l-2.5,4.33a1,1,0,0,0,0,1l2.5,4.33a1,1,0,0,0,.87.5h5a1,1,0,0,0,.87-.5l2.5-4.33A1,1,0,0,0,37.87,31.5Zm-3.95,3.83H30.08L28.15,32l1.92-3.33h3.85L35.85,32Z"/><path d="M29.29,21.94h5.41a1,1,0,0,0,.87-.5l2.71-4.69a1,1,0,0,0,0-1l-2.71-4.69a1,1,0,0,0-.87-.5H29.29a1,1,0,0,0-.87.5l-2.71,4.69a1,1,0,0,0,0,1l2.71,4.69A1,1,0,0,0,29.29,21.94Zm.58-9.37h4.26l2.13,3.69-2.13,3.69H29.87l-2.13-3.69Z"/><path d="M34.45,42.5H29.55a1,1,0,0,0-.87.5l-2.45,4.25a1,1,0,0,0,0,1l2.45,4.25a1,1,0,0,0,.87.5h4.91a1,1,0,0,0,.87-.5l2.45-4.25a1,1,0,0,0,0-1L35.32,43A1,1,0,0,0,34.45,42.5ZM33.88,51H30.12l-1.88-3.25,1.88-3.25h3.75l1.88,3.25Z"/><path d="M39.52,24.63l2.65,4.59a1,1,0,0,0,.87.5h5.3a1,1,0,0,0,.87-.5l2.65-4.59a1,1,0,0,0,0-1L49.21,19a1,1,0,0,0-.87-.5H43a1,1,0,0,0-.87.5l-2.65,4.59A1,1,0,0,0,39.52,24.63Zm4.1-4.09h4.15l2.07,3.59-2.07,3.59H43.62l-2.07-3.59Z"/><path d="M15.63,29.72h5.3a1,1,0,0,0,.87-.5l2.65-4.59a1,1,0,0,0,0-1L21.8,19a1,1,0,0,0-.87-.5h-5.3a1,1,0,0,0-.87.5l-2.65,4.59a1,1,0,0,0,0,1l2.65,4.59A1,1,0,0,0,15.63,29.72Zm.58-9.19h4.15l2.07,3.59-2.07,3.59H16.2l-2.07-3.59Z"/><path d="M51.4,32l4.26-7.37a1,1,0,0,0,0-1l-4.55-7.87a1,1,0,0,0-.87-.5H41.67L37.41,7.88a1,1,0,0,0-.87-.5H27.45a1,1,0,0,0-.87.5l-4.26,7.38h-8.6a1,1,0,0,0-.87.5L8.32,23.63a1,1,0,0,0,0,1L12.58,32,8.32,39.38a1,1,0,0,0,0,1l4.55,7.88a1,1,0,0,0,.87.5h8.6l4.26,7.38a1,1,0,0,0,.87.5h9.09a1,1,0,0,0,.87-.5l4.26-7.37h8.57a1,1,0,0,0,.87-.5l4.55-7.87a1,1,0,0,0,0-1Zm2.24-7.87-4,6.88H41.72l-4-6.87,4-6.87h7.94ZM28,38.88l-4-6.87,4-6.87H36l4,6.88-4,6.88Zm0-29.5H36l4,6.88-4,6.88H28l-4-6.87ZM14.31,17.25h7.94l4,6.88-4,6.88H14.31l-4-6.87Zm-4,22.63,4-6.87h7.94l4,6.88-4,6.88H14.31ZM36,54.63H28l-4-6.87,4-6.87H36l4,6.88Zm13.69-7.87H41.72l-4-6.87,4-6.87h7.94l4,6.88Z"/><path d="M48.27,34.42H43.12a1,1,0,0,0-.87.5l-2.57,4.46a1,1,0,0,0,0,1l2.57,4.46a1,1,0,0,0,.87.5h5.15a1,1,0,0,0,.87-.5l2.57-4.46a1,1,0,0,0,0-1l-2.57-4.46A1,1,0,0,0,48.27,34.42Zm-.58,8.92h-4l-2-3.46,2-3.46h4l2,3.46Z"/><path d="M24.34,39.38l-2.6-4.5a1,1,0,0,0-.87-.5H15.68a1,1,0,0,0-.87.5l-2.6,4.5a1,1,0,0,0,0,1l2.6,4.5a1,1,0,0,0,.87.5h5.19a1,1,0,0,0,.87-.5l2.6-4.5A1,1,0,0,0,24.34,39.38Zm-4,4h-4l-2-3.5,2-3.5h4l2,3.5Z"/></g><text x="0" y="79" fill="#000000" font-size="5px" font-weight="bold" font-family="'Helvetica Neue', Helvetica, Arial-Unicode, Arial, Sans-serif">Created by Colourcreatype</text><text x="0" y="84" fill="#000000" font-size="5px" font-weight="bold" font-family="'Helvetica Neue', Helvetica, Arial-Unicode, Arial, Sans-serif">from the Noun Project</text></svg>