<svg id="Layer_1" data-name="Layer 1" xmlns="http://www.w3.org/2000/svg" viewBox="0 0 1006 1002"><title>story12</title><path d="M637,501.63l-52.81-88.08a21.28,21.28,0,0,0-18.37-10.17H460.19a21.28,21.28,0,0,0-18.37,10.17L389,501.63A19.7,19.7,0,0,0,389,522L441.82,610a21.28,21.28,0,0,0,18.37,10.17H565.81A21.28,21.28,0,0,0,584.18,610L637,522A19.7,19.7,0,0,0,637,501.63Zm-83.44,77.9h-81.1L431.68,511.8l40.55-67.74h81.32l40.77,67.74Z" transform="translate(-10 -11)"/><path d="M455.76,307.17H570A21.33,21.33,0,0,0,588.41,297l57.24-95.4a19.72,19.72,0,0,0,0-20.35L588.41,85.86A21.32,21.32,0,0,0,570,75.68H455.76a21.32,21.32,0,0,0-18.38,10.18l-57.24,95.39a19.72,19.72,0,0,0,0,20.35L437.38,297A21.33,21.33,0,0,0,455.76,307.17ZM468,116.57h90l45,75.06-45,75.06H468l-45-75.06Z" transform="translate(-10 -11)"/><path d="M564.75,725.38H461.25a21.28,21.28,0,0,0-18.38,10.17L391.13,822a19.66,19.66,0,0,0,0,20.34l51.74,86.45A21.28,21.28,0,0,0,461.25,939H565a21.28,21.28,0,0,0,18.38-10.17l51.75-86.45a19.7,19.7,0,0,0,0-20.34l-52-86.45A21.28,21.28,0,0,0,564.75,725.38Zm-12,172.9H473.29l-39.71-66.11,39.71-66.11H552.5l39.71,66.11Z" transform="translate(-10 -11)"/><path d="M671.84,361.88l56,93.37a21.28,21.28,0,0,0,18.38,10.17H858.13a21.28,21.28,0,0,0,18.38-10.17l56-93.37a19.66,19.66,0,0,0,0-20.34l-56-94.18a21.28,21.28,0,0,0-18.38-10.17H745.34A21.27,21.27,0,0,0,727,247.36l-56,93.37A19.7,19.7,0,0,0,671.84,361.88Zm86.6-83.19h87.65l43.73,73-43.73,73H758.44l-43.72-73Z" transform="translate(-10 -11)"/><path d="M167.23,465.42h112a21.28,21.28,0,0,0,18.38-10.17l56-93.37a19.7,19.7,0,0,0,0-20.34l-56-94.18a21.28,21.28,0,0,0-18.38-10.17h-112a21.27,21.27,0,0,0-18.37,10.17l-56,93.37a19.7,19.7,0,0,0,0,20.34l56,93.36A21.21,21.21,0,0,0,167.23,465.42Zm12.25-186.94h87.66l43.72,73-43.72,73H179.27l-43.72-73Z" transform="translate(-10 -11)"/><path d="M922.77,511.8l90-149.92a19.7,19.7,0,0,0,0-20.34L916.64,181.46a21.28,21.28,0,0,0-18.37-10.17h-181l-90-150.12A21.28,21.28,0,0,0,608.89,11h-192a21.28,21.28,0,0,0-18.37,10.17l-90,150.12H126.89a21.28,21.28,0,0,0-18.38,10.17L12.83,341.54a19.7,19.7,0,0,0,0,20.34l90,149.92-90,150.11a19.7,19.7,0,0,0,0,20.34l96.11,160.29a21.27,21.27,0,0,0,18.37,10.17H309l90,150.12A21.28,21.28,0,0,0,417.32,1013h192a21.28,21.28,0,0,0,18.37-10.17l90-149.91h181a21.31,21.31,0,0,0,18.37-10.17l96.11-160.09a19.7,19.7,0,0,0,0-20.34Zm47.31-160.09-84.49,140H718.31L633.82,351.92l84.49-139.75H886Zm-541.57,300L344,512l84.49-139.74h169L682,512.2,597.49,652.15Zm0-600.06h169l84.49,140-84.49,140h-169L344,191.83ZM139.35,211.77H307.06l84.49,139.94-84.49,140H139.35L54.86,351.92ZM54.86,672.08l84.49-139.74H307.06l84.49,139.95L307.06,812.23H139.35Zm542.63,300h-169L344,832.37l84.49-139.74h169L682,832.57ZM886.65,812H718.31L633.82,672.29l84.49-139.75H886l84.48,140Z" transform="translate(-10 -11)"/><path d="M856.66,561H747.88a21.28,21.28,0,0,0-18.38,10.17l-54.28,90.72a19.66,19.66,0,0,0,0,20.34L729.5,773a21.33,21.33,0,0,0,18.38,10.17H856.66A21.32,21.32,0,0,0,875,773l54.29-90.73a19.7,19.7,0,0,0,0-20.34L875,571.19A21.28,21.28,0,0,0,856.66,561ZM844.4,742.46H759.92l-42.25-70.38,42.25-70.38H844.4l42.25,70.38Z" transform="translate(-10 -11)"/><path d="M351.21,661.91l-54.92-91.53a21.28,21.28,0,0,0-18.38-10.17H168.29a21.28,21.28,0,0,0-18.38,10.17L95,661.91a19.7,19.7,0,0,0,0,20.34l54.92,91.54A21.28,21.28,0,0,0,168.29,784H277.91a21.28,21.28,0,0,0,18.38-10.17l54.92-91.54A19.7,19.7,0,0,0,351.21,661.91Zm-84.49,81.37H182.23L140,672.08l42.25-71.19h84.49L309,672.08Z" transform="translate(-10 -11)"/></svg>