<?xml version="1.0" encoding="utf-8"?>
<!-- Generator: Adobe Illustrator 24.0.1, SVG Export Plug-In . SVG Version: 6.00 Build 0)  -->
<svg version="1.1" id="Layer_1" xmlns="http://www.w3.org/2000/svg" xmlns:xlink="http://www.w3.org/1999/xlink" x="0px" y="0px"
	 viewBox="0 0 1024 1024" style="enable-background:new 0 0 1024 1024;" xml:space="preserve">
<g>
	<path d="M636.99,501.63l-52.81-88.08c-3.79-6.32-10.8-10.2-18.38-10.17H460.19c-7.58-0.03-14.59,3.85-18.38,10.17l-52.81,88.08
		c-3.77,6.29-3.77,14.05,0,20.34l52.81,88.08c3.79,6.32,10.8,10.2,18.38,10.17h105.61c7.58,0.03,14.59-3.85,18.38-10.17l52.81-88.08
		C640.76,515.67,640.76,507.92,636.99,501.63z M553.55,579.53h-81.11l-40.77-67.74l40.55-67.74h81.32l40.77,67.74L553.55,579.53z"/>
	<path d="M455.76,307.17h114.27c7.58,0.03,14.59-3.85,18.38-10.17l57.24-95.4c3.77-6.29,3.77-14.05,0-20.34l-57.24-95.4
		c-3.79-6.32-10.8-10.2-18.38-10.17H455.76c-7.58-0.03-14.59,3.85-18.38,10.17l-57.24,95.4c-3.77,6.29-3.77,14.05,0,20.34
		l57.24,95.4C441.17,303.31,448.18,307.19,455.76,307.17z M468.01,116.57h89.98l44.99,75.06l-44.99,75.06h-89.98l-44.99-75.06
		L468.01,116.57z"/>
	<path d="M564.75,725.38h-103.5c-7.58-0.03-14.59,3.85-18.38,10.17L391.13,822c-3.77,6.29-3.77,14.05,0,20.34l51.75,86.45
		c3.79,6.32,10.8,10.2,18.38,10.17h103.71c7.58,0.03,14.59-3.85,18.38-10.17l51.75-86.45c3.77-6.29,3.77-14.05,0-20.34l-51.96-86.45
		C579.34,729.23,572.33,725.35,564.75,725.38z M552.71,898.28h-79.42l-39.71-66.11l39.71-66.11h79.21l39.71,66.11L552.71,898.28z"/>
	<path d="M671.84,361.88l55.97,93.37c3.79,6.32,10.8,10.2,18.38,10.17h111.95c7.58,0.03,14.59-3.85,18.38-10.17l55.97-93.37
		c3.77-6.29,3.77-14.05,0-20.34l-55.97-94.18c-3.79-6.32-10.8-10.2-18.38-10.17H745.34c-7.58-0.03-14.59,3.85-18.38,10.17
		l-55.97,93.37C667.14,347.38,667.47,355.54,671.84,361.88z M758.44,278.69h87.66l43.72,73.02l-43.72,73.02h-87.66l-43.72-73.02
		L758.44,278.69z"/>
	<path d="M167.23,465.42h111.95c7.58,0.03,14.59-3.85,18.38-10.17l55.97-93.37c3.77-6.29,3.77-14.05,0-20.34l-55.97-94.18
		c-3.79-6.32-10.8-10.2-18.38-10.17H167.23c-7.58-0.03-14.59,3.85-18.38,10.17l-55.97,93.37c-3.77,6.29-3.77,14.05,0,20.34
		l55.97,93.37C152.42,461.07,159.48,465.28,167.23,465.42z M179.48,278.48h87.66l43.72,73.02l-43.72,73.02h-87.87l-43.72-73.02
		L179.48,278.48z"/>
	<path d="M922.77,511.8l89.98-149.91c3.77-6.29,3.77-14.05,0-20.34l-96.11-160.08c-3.79-6.32-10.8-10.2-18.38-10.17H717.25
		L627.27,21.17c-3.79-6.32-10.8-10.2-18.38-10.17h-192c-7.58-0.03-14.59,3.85-18.38,10.17l-89.98,150.12H126.89
		c-7.58-0.03-14.59,3.85-18.38,10.17L12.83,341.54c-3.77,6.29-3.77,14.05,0,20.34l89.98,149.91L12.83,661.91
		c-3.77,6.29-3.77,14.05,0,20.34l96.11,160.29c3.79,6.32,10.8,10.2,18.38,10.17h181.65l89.98,150.12
		c3.79,6.32,10.8,10.2,18.38,10.17h192c7.58,0.03,14.59-3.85,18.38-10.17l89.98-149.91h181.02c7.58,0.03,14.59-3.85,18.38-10.17
		l96.11-160.08c3.77-6.29,3.77-14.05,0-20.34L922.77,511.8z M970.08,351.71l-84.49,139.95H718.31l-84.49-139.74l84.49-139.74h167.71
		L970.08,351.71z M428.51,651.74L344.02,512l84.49-139.74h168.98l84.49,139.95l-84.49,139.95L428.51,651.74z M428.51,51.68h168.98
		l84.49,139.95l-84.49,139.95H428.51l-84.49-139.74L428.51,51.68z M139.35,211.77h167.71l84.49,139.95l-84.49,139.95H139.35
		L54.86,351.92L139.35,211.77z M54.86,672.08l84.49-139.74h167.71l84.49,139.95l-84.49,139.95H139.35L54.86,672.08z M597.49,972.11
		H428.51l-84.49-139.74l84.49-139.74h168.98l84.49,139.95L597.49,972.11z M886.65,812.03H718.31l-84.49-139.74l84.49-139.74h167.71
		l84.49,139.95L886.65,812.03z"/>
	<path d="M856.66,561.02H747.88c-7.58-0.03-14.59,3.85-18.38,10.17l-54.28,90.72c-3.77,6.29-3.77,14.05,0,20.34l54.28,90.72
		c3.79,6.32,10.8,10.2,18.38,10.17h108.78c7.58,0.03,14.59-3.85,18.38-10.17l54.28-90.72c3.77-6.29,3.77-14.05,0-20.34l-54.28-90.72
		C871.24,564.87,864.23,560.99,856.66,561.02z M844.4,742.46h-84.49l-42.24-70.38l42.24-70.38h84.49l42.24,70.38L844.4,742.46z"/>
	<path d="M351.21,661.91l-54.92-91.53c-3.79-6.32-10.8-10.2-18.38-10.17H168.29c-7.58-0.03-14.59,3.85-18.38,10.17l-54.92,91.53
		c-3.77,6.29-3.77,14.05,0,20.34l54.92,91.53c3.79,6.32,10.8,10.2,18.38,10.17h109.62c7.58,0.03,14.59-3.85,18.38-10.17l54.92-91.53
		C354.98,675.96,354.98,668.21,351.21,661.91z M266.72,743.28h-84.49l-42.24-71.19l42.24-71.19h84.49l42.24,71.19L266.72,743.28z"/>
</g>
</svg>
